<svg xmlns="http://www.w3.org/2000/svg" viewBox="0 0 88 110" x="0px" y="0px"><title>Camera, image, love, photo, picture, romance, valentine</title><g><path d="M26.7213,42a17.9828,17.9828,0,0,1,34.5574,0H81V28a5.0059,5.0059,0,0,0-5-5H61.5542l-4.7061-7.53A1.0013,1.0013,0,0,0,56,15H32a1.0013,1.0013,0,0,0-.8481.47L26.4458,23H12a5.0059,5.0059,0,0,0-5,5V42ZM67,29h4a1,1,0,0,1,0,2H67a1,1,0,0,1,0-2ZM44,55.5723l7.6641-7.8145c2.52-2.5685,1.2737-7.3422-2.2681-7.7344a3.99,3.99,0,0,0-3.8057,1.878l-.7534,1.1523a1.0368,1.0368,0,0,1-1.6738,0L42.41,41.9014a3.99,3.99,0,0,0-3.8057-1.878c-3.5457.3926-4.7853,5.1681-2.2686,7.7344Zm-7.7832-12.417a1,1,0,0,1,1.8828.6738,1.8173,1.8173,0,0,0,.3775,1.8281,1,1,0,1,1-1.4278,1.4A3.83,3.83,0,0,1,36.2168,43.1553ZM81,50H61.7539a18.4083,18.4083,0,0,0,0-6H81Zm0,2V68a5.0059,5.0059,0,0,1-5,5H12a5.0059,5.0059,0,0,1-5-5V52H26.7213a17.9828,17.9828,0,0,0,34.5574,0ZM26.2461,44A21.7051,21.7051,0,0,0,26,47a21.7024,21.7024,0,0,0,.2461,3H7V44ZM44,63A16,16,0,1,0,28,47,16.0363,16.0363,0,0,0,44,63ZM38.3843,38.0361A5.9992,5.9992,0,0,1,44,40.6826a5.9947,5.9947,0,0,1,5.6157-2.6465c5.2227.5767,7.1574,7.37,3.4761,11.1221L44.7139,57.7a1,1,0,0,1-1.4278,0l-8.3784-8.542C31.1879,45.3654,33.21,38.6075,38.3843,38.0361Z"/></g><text x="0" y="103" fill="#000000" font-size="5px" font-weight="bold" font-family="'Helvetica Neue', Helvetica, Arial-Unicode, Arial, Sans-serif">Created by Kmg Design</text><text x="0" y="108" fill="#000000" font-size="5px" font-weight="bold" font-family="'Helvetica Neue', Helvetica, Arial-Unicode, Arial, Sans-serif">from the Noun Project</text></svg>