<svg xmlns="http://www.w3.org/2000/svg" xmlns:xlink="http://www.w3.org/1999/xlink" xml:space="preserve" version="1.1" style="shape-rendering:geometricPrecision;text-rendering:geometricPrecision;image-rendering:optimizeQuality;" viewBox="0 0 846.66 1058.325" x="0px" y="0px" fill-rule="evenodd" clip-rule="evenodd"><defs><style type="text/css">
   
    .fil0 {fill:black}
   
  </style></defs><g><path class="fil0" d="M663.84 125.8c-25.66,-8.55 -51.3,-17.11 -76.96,-25.66 -36.72,-55.06 -55.67,-85.32 -126.75,-73.38 -72.5,12.19 -111.1,77.09 -76.38,158.97 13.61,16.38 28.12,28.34 44.5,35.19 26.68,11.12 59.99,9.12 104.73,-9.06 34.92,-14.2 57.57,-15.13 59.81,-65.43 21.69,-6.45 49.36,-14.18 71.05,-20.63zm-297.96 86.57c-172.57,164.41 -85.34,433.03 -183.06,539.91 0,0 93.22,-4.28 93.22,0 0,33.49 50.38,57.26 81.37,68.17 21.5,7.54 116.28,-6.89 97.69,-26.19 -6.08,-6.27 -12.18,-12.58 -18.26,-18.88 17.39,0.85 34.77,1.71 52.16,2.56 0,0 11.79,9.91 21.35,15 31.27,16.71 169.25,2 113.51,-22.68 -30.9,-13.68 -38.22,-11.03 -68.15,-24.81 20.15,-22.65 61.7,-83.06 53.86,-218.91 10.18,7.94 30.15,27.72 40.29,35.63 20.71,16.14 9.64,-86.1 -1.92,-106.03 -11.33,-19.55 -19.33,-35.64 -19.33,-35.64 -11.08,-99.58 -7.88,-124.09 -45.24,-192.14 -12.01,2.05 -25.05,6.66 -38.75,12.23 -52.97,21.52 -93.85,23.27 -128.26,8.93 -18.88,-7.88 -35.37,-20.46 -50.48,-37.15zm118.51 -137.31c14.91,0 27.01,12.1 27.01,27 0,14.91 -12.1,27.01 -27.01,27.01 -14.91,0 -27.01,-12.1 -27.01,-27.01 0,-14.9 12.1,-27 27.01,-27zm-150.62 658.97l120.62 1.77c115.58,1.69 115.75,-171.84 117.45,-248.06 -0.6,-14.15 -1.25,-86.23 -14.38,-139.21 -11.6,-46.86 -20.86,-74.99 -86.19,-35.24 15.98,108.62 21.86,230.65 -51.31,322.22 -8.2,10.27 -30.79,22.58 -30.79,4.11 0,-81.2 5.09,-108.21 -18.46,-184.71 -4.44,89.95 7.75,197.8 -36.94,279.12z"/></g><text x="0" y="861.66" fill="#000000" font-size="5px" font-weight="bold" font-family="'Helvetica Neue', Helvetica, Arial-Unicode, Arial, Sans-serif">Created by richad</text><text x="0" y="866.66" fill="#000000" font-size="5px" font-weight="bold" font-family="'Helvetica Neue', Helvetica, Arial-Unicode, Arial, Sans-serif">from the Noun Project</text></svg>