<svg xmlns="http://www.w3.org/2000/svg" data-name="Layer 1" viewBox="0 0 48 60" x="0px" y="0px"><title>dinosaur solid icons</title><path d="M44.72,41.82c-.76,0,1.18-5.23.37-6.54-.42-.66-1.9-1.41-3.34-2a4.09,4.09,0,0,0,.18-.56,143.69,143.69,0,0,0,3.16-15.08c.49-3.44.13-11.79-.73-14.61S40.18-.52,38.71.34s0,2,0,2,.16,1.11-1.87,1.57S35,5.9,35.37,6.54s1.93.28,2.76.46c1.91.43,2.71,3.82,2.92,5.44a21.1,21.1,0,0,1-.38,6.45c-.36,2-1,4.57-2.83,5.7s-4.05.09-5.89-.44a18.77,18.77,0,0,0-8.46-.48,19.19,19.19,0,0,0-10.08,4.6c-1.86,1.74-5.49,6.17-8,2.92C3.7,29,4,25.14,4.38,22.59a.21.21,0,0,0-.4-.12c-1.93,3.9-4,9.75,0,13.21,2.6,2.26,6.35,3,9.8,3.3.44.78.91,1.61.29,2.17C12.8,42.25,11,43.6,11.45,45.2s6.63,2.94,6.69,2-.67-1.62-.79-2.61,1.1-1.35,1.47-2.82c.09-.36.2-.74.31-1.13a.09.09,0,0,1,0,0,32.26,32.26,0,0,0,0,5.09c.23,1.29.36,1.73,1.84,2a12.57,12.57,0,0,0,5.18-.2c1-.22-1.13-2.21-1.33-2.5A5.39,5.39,0,0,1,24,40.68l0,0a25.09,25.09,0,0,0,3.5,0,21.79,21.79,0,0,0,6.51-1.75,3.94,3.94,0,0,1,.67,1.82,33.55,33.55,0,0,0,0,5.09c.21,1.29.33,1.73,1.69,2a10.6,10.6,0,0,0,4.75-.2c.88-.22-1-2.21-1.22-2.5a5.8,5.8,0,0,1-.74-4.43,7.36,7.36,0,0,0,0-3c1.1-.08,2-.21,1.74.62-.65,1.7-1.29,2.61-.82,4.32s6.17,1.43,6.2.92A2.12,2.12,0,0,0,44.72,41.82Z"/><text x="0" y="63" fill="#000000" font-size="5px" font-weight="bold" font-family="'Helvetica Neue', Helvetica, Arial-Unicode, Arial, Sans-serif">Created by tulpahn</text><text x="0" y="68" fill="#000000" font-size="5px" font-weight="bold" font-family="'Helvetica Neue', Helvetica, Arial-Unicode, Arial, Sans-serif">from the Noun Project</text></svg>