<svg xmlns="http://www.w3.org/2000/svg" xmlns:xlink="http://www.w3.org/1999/xlink" version="1.1" x="0px" y="0px" viewBox="0 0 80 100" style="enable-background:new 0 0 80 80;" xml:space="preserve"><path d="M50.7,30h16c3.4,0,6.2-2.7,6.2-6c0-2.8-2-5.1-4.6-5.8c0.1-0.4,0.2-0.8,0.2-1.3c0-2.1-1.8-3.9-4-3.9c-1.2,0-2.2,0.5-3,1.3  c-1.2-1.2-2.8-1.9-4.5-1.9c-3.3,0-6,2.5-6.2,5.6c-3.5,0-6.3,2.7-6.3,6C44.5,27.4,47.3,30,50.7,30z"/><path d="M28,46c1.1-0.7,2.3-1.1,3.7-1.1c3.7,0,6.8,3,6.8,6.6c0,0.1,0,0.3,0,0.4c3.3,1.5,5.5,4.8,5.5,8.4c0,2.1-0.7,4-1.9,5.5  c3,1.1,6.2,1.7,9.5,1.7c8.4,0,16.1-3.8,21.2-10.5c0.3-0.4,0.3-0.8,0-1.2c-0.3-0.4-0.7-0.5-1.1-0.4c-2.5,0.9-5.2,1.3-7.9,1.3  C50.1,56.8,39,45.7,39,32c0-5.5,1.8-10.7,5.1-15c0.3-0.3,0.3-0.8,0-1.2c-0.3-0.4-0.7-0.5-1.1-0.4c-10.9,3.7-18.2,13.8-18.2,25.3  c0,1.3,0.1,2.5,0.3,3.8C26.2,44.8,27.2,45.3,28,46z"/><path d="M14.5,67.5h20c4.1,0,7.5-3.2,7.5-7.2c0-3.4-2.5-6.3-5.8-7.1c0.2-0.5,0.3-1.1,0.3-1.7c0-2.5-2.1-4.6-4.8-4.6  c-1.5,0-2.8,0.6-3.7,1.7c-1.4-1.6-3.5-2.5-5.7-2.5c-4,0-7.3,3.1-7.5,6.9C10.6,52.8,7,56.2,7,60.3C7,64.3,10.4,67.5,14.5,67.5z"/><text x="0" y="95" fill="#000000" font-size="5px" font-weight="bold" font-family="'Helvetica Neue', Helvetica, Arial-Unicode, Arial, Sans-serif">Created by Vectorstall</text><text x="0" y="100" fill="#000000" font-size="5px" font-weight="bold" font-family="'Helvetica Neue', Helvetica, Arial-Unicode, Arial, Sans-serif">from the Noun Project</text></svg>