<svg xmlns="http://www.w3.org/2000/svg" xmlns:xlink="http://www.w3.org/1999/xlink" version="1.1" x="0px" y="0px" viewBox="0 0 90 112.5" style="enable-background:new 0 0 90 90;" xml:space="preserve"><g><path d="M78.4642944,6.8242798c-2.6300049-2.4299927-6.7399902-2.2799683-9.1799927,0.3499756   c-1.5499878,1.6700439-2.0900269,4.0500488-1.4700317,6.2200317l-4.6299438,4.9899902   c-3.8600464-2.5-8.3000488-3.8099976-12.9000244-3.8099976H39.7142944c-4.5999756,0-9.039978,1.3099976-12.9000244,3.8099976   l-4.6299438-4.9899902c0.6299438-2.1699829,0.0799561-4.5499878-1.4700317-6.2200317   c-2.4400024-2.6299438-6.5599976-2.7799683-9.1799927-0.3499756c-2.6300049,2.4400024-2.7800293,6.5499878-0.3499756,9.1799927   c1.5499878,1.6699829,3.8899536,2.3900146,6.0999756,1.9400024l4.4799805,4.8200073   c-3.8200073,4.3599854-5.9099731,9.8900146-5.9099731,15.6599731v22.6200562   c0,13.1599731,10.7099609,23.8599854,23.8599854,23.8599854h10.5700073c13.1599731,0,23.8599854-10.7000122,23.8599854-23.8599854   V38.4242554c0-5.7699585-2.0899658-11.2999878-5.9099731-15.6599731l4.4799805-4.8200073   c2.210022,0.4500122,4.5499878-0.2700195,6.0999756-1.9400024C81.2443237,13.3742676,81.0942993,9.2642822,78.4642944,6.8242798z    M52.06427,23.0942993c2.3500366,0,4.25,1.9099731,4.25,4.25c0,1.4500122-1.6299438,2.3499756-4.25,2.3499756   c-0.9699707,0-1.8799438-0.1400146-2.5799561-0.3999634c-1.460022-0.5300293-1.6700439-1.4500122-1.6700439-1.9500122   C47.81427,25.0042725,49.7243042,23.0942993,52.06427,23.0942993z M37.9343262,23.0942993c2.3499756,0,4.25,1.9099731,4.25,4.25   c0,1.4500122-1.6300049,2.3499756-4.25,2.3499756c-0.9700317,0-1.8800049-0.1400146-2.5800171-0.3999634   c-1.460022-0.5300293-1.6699829-1.4500122-1.6699829-1.9500122C33.6843262,25.0042725,35.5942993,23.0942993,37.9343262,23.0942993   z M59.6043091,65.7943115c0,8.0499878-6.5499878,14.5999756-14.6000366,14.5999756   c-8.0599976,0-14.6099854-6.5499878-14.6099854-14.5999756V46.9743042c0-8.0500488,6.5499878-14.6000366,14.6099854-14.6000366   c8.0500488,0,14.6000366,6.5499878,14.6000366,14.6000366V65.7943115z"/><path d="M50.2243042,65.2542725l-5.2200317-4.4899902l-5.2199707,4.4899902l-5.0200195-4.3200073l-2.3699951,2.0400391v2.8200073   c0,6.9499512,5.6600342,12.5999756,12.6099854,12.5999756c6.9400024,0,12.6000366-5.6500244,12.6000366-12.5999756v-2.8200073   l-2.3699951-2.0400391L50.2243042,65.2542725z"/><path d="M54.31427,27.2442627c-0.0499878-1.1900024-1.039978-2.1499634-2.25-2.1499634   c-1.2099609,0-2.1999512,0.9599609-2.25,2.1499634c0.2300415,0.1799927,1.0200195,0.4500122,2.25,0.4500122   C53.2943115,27.6942749,54.0942993,27.4242554,54.31427,27.2442627z"/><path d="M40.1843262,27.2442627c-0.0500488-1.1900024-1.0400391-2.1499634-2.25-2.1499634   c-1.210022,0-2.2000122,0.9599609-2.25,2.1499634c0.2299805,0.1799927,1.0199585,0.4500122,2.25,0.4500122   C39.1643066,27.6942749,39.9642944,27.4242554,40.1843262,27.2442627z"/></g><text x="0" y="105" fill="#000000" font-size="5px" font-weight="bold" font-family="'Helvetica Neue', Helvetica, Arial-Unicode, Arial, Sans-serif">Created by iconcheese</text><text x="0" y="110" fill="#000000" font-size="5px" font-weight="bold" font-family="'Helvetica Neue', Helvetica, Arial-Unicode, Arial, Sans-serif">from the Noun Project</text></svg>