<svg xmlns="http://www.w3.org/2000/svg" xmlns:xlink="http://www.w3.org/1999/xlink" version="1.1" x="0px" y="0px" viewBox="0 0 100 125" enable-background="new 0 0 100 100" xml:space="preserve"><path d="M89.897,37.696L73.11,37.354c-5.843-0.119-12.191-4.73-14.112-10.253l-5.511-15.859c-1.918-5.521-5.06-5.52-6.977,0  l-5.513,15.859c-1.917,5.52-8.269,10.132-14.108,10.252l-16.788,0.343c-5.841,0.119-6.813,3.104-2.155,6.635l13.38,10.142  c4.653,3.533,7.081,10.997,5.388,16.589l-4.86,16.07c-1.69,5.596,0.849,7.44,5.644,4.103l13.784-9.591  c4.793-3.339,12.643-3.339,17.438,0l13.781,9.591c4.799,3.336,7.335,1.493,5.646-4.101l-4.862-16.072  c-1.692-5.593,0.732-13.059,5.387-16.587l13.382-10.143C96.71,40.8,95.741,37.814,89.897,37.696z M15.412,43.087  c-0.383,1.182-1.653,1.827-2.834,1.444c-1.183-0.385-1.829-1.653-1.445-2.836c0.384-1.181,1.654-1.828,2.835-1.444  C15.149,40.636,15.797,41.904,15.412,43.087z M26.111,46.563c-0.575,1.772-2.48,2.743-4.252,2.168  c-1.772-0.576-2.742-2.481-2.167-4.253c0.576-1.772,2.48-2.743,4.253-2.168C25.718,42.886,26.688,44.79,26.111,46.563z   M63.402,45.239c2.363-0.768,4.901,0.526,5.67,2.89c0.768,2.363-0.524,4.903-2.889,5.671c-2.364,0.769-4.904-0.526-5.671-2.889  C59.744,48.548,61.038,46.009,63.402,45.239z M50,13.457c1.242,0,2.25,1.007,2.25,2.25c0,1.242-1.008,2.25-2.25,2.25  s-2.25-1.008-2.25-2.25C47.75,14.464,48.758,13.457,50,13.457z M50,22.457c1.863,0,3.375,1.512,3.375,3.375S51.863,29.207,50,29.207  s-3.375-1.512-3.375-3.375S48.137,22.457,50,22.457z M30.926,48.127c0.768-2.363,3.307-3.657,5.671-2.89  c2.363,0.769,3.657,3.307,2.89,5.671c-0.768,2.363-3.307,3.657-5.671,2.89C31.452,53.03,30.158,50.491,30.926,48.127z   M29.122,86.891c-0.73,1.005-2.138,1.228-3.144,0.497c-1.005-0.729-1.228-2.138-0.497-3.142c0.73-1.007,2.137-1.229,3.143-0.498  C29.63,84.478,29.852,85.885,29.122,86.891z M35.982,79.36c-1.094,1.508-3.205,1.842-4.713,0.746  c-1.508-1.095-1.842-3.207-0.748-4.714c1.096-1.508,3.207-1.842,4.714-0.746C36.743,75.741,37.078,77.854,35.982,79.36z   M44.498,69.556c-1.461,2.01-4.275,2.456-6.286,0.995c-2.011-1.46-2.456-4.274-0.995-6.286c1.46-2.01,4.274-2.457,6.286-0.995  C45.513,64.73,45.959,67.545,44.498,69.556z M50,43.269c-2.485,0-4.5-2.015-4.5-4.5c0-2.484,2.015-4.5,4.5-4.5s4.5,2.016,4.5,4.5  C54.5,41.254,52.485,43.269,50,43.269z M61.787,70.552c-2.01,1.459-4.825,1.016-6.286-0.996c-1.461-2.011-1.016-4.825,0.995-6.286  c2.011-1.462,4.825-1.016,6.286,0.996C64.243,66.274,63.799,69.09,61.787,70.552z M68.729,80.106  c-1.508,1.096-3.619,0.762-4.715-0.746c-1.094-1.507-0.76-3.619,0.749-4.714c1.506-1.096,3.618-0.762,4.714,0.746  C70.571,76.9,70.237,79.011,68.729,80.106z M74.517,84.244c0.731,1.007,0.509,2.413-0.497,3.143  c-1.005,0.73-2.412,0.509-3.143-0.496c-0.73-1.007-0.508-2.413,0.498-3.144S73.787,83.241,74.517,84.244z M78.14,48.732  c-1.771,0.576-3.677-0.395-4.252-2.167c-0.577-1.771,0.394-3.678,2.165-4.254c1.771-0.575,3.677,0.396,4.253,2.168  S79.912,48.156,78.14,48.732z M87.421,44.533c-1.182,0.384-2.451-0.263-2.835-1.444c-0.384-1.183,0.262-2.451,1.443-2.835  c1.185-0.383,2.452,0.262,2.835,1.445C89.249,42.879,88.602,44.148,87.421,44.533z"/><text x="0" y="115" fill="#000000" font-size="5px" font-weight="bold" font-family="'Helvetica Neue', Helvetica, Arial-Unicode, Arial, Sans-serif">Created by David</text><text x="0" y="120" fill="#000000" font-size="5px" font-weight="bold" font-family="'Helvetica Neue', Helvetica, Arial-Unicode, Arial, Sans-serif">from the Noun Project</text></svg>