<svg xmlns="http://www.w3.org/2000/svg" xmlns:xlink="http://www.w3.org/1999/xlink" version="1.1" x="0px" y="0px" viewBox="0 0 100 125" enable-background="new 0 0 100 100" xml:space="preserve"><path d="M95,83c0,1.657-1.343,3-3,3c-3.835,0-6.33,1.248-9.217,2.695C79.688,90.244,76.18,92,71,92  c-5.208,0-8.73-1.762-11.839-3.316C56.281,87.244,53.794,86,50,86s-6.281,1.244-9.161,2.684C37.73,90.238,34.208,92,29,92  c-5.18,0-8.688-1.756-11.783-3.305C14.33,87.248,11.835,86,8,86c-1.657,0-3-1.343-3-3s1.343-3,3-3c5.253,0,8.786,1.77,11.903,3.33  C22.766,84.762,25.238,86,29,86c3.791,0,6.277-1.244,9.155-2.682C41.265,81.762,44.79,80,50,80s8.735,1.762,11.845,3.318  C64.723,84.756,67.209,86,71,86c3.762,0,6.234-1.238,9.097-2.67C83.214,81.77,86.747,80,92,80C93.657,80,95,81.343,95,83z"/><path d="M95,68c0,1.657-1.343,3-3,3c-3.835,0-6.33,1.248-9.217,2.695C79.688,75.244,76.18,77,71,77  c-5.208,0-8.73-1.762-11.839-3.316C56.281,72.244,53.794,71,50,71s-6.281,1.244-9.161,2.684C37.73,75.238,34.208,77,29,77  c-5.18,0-8.688-1.756-11.783-3.305C14.33,72.248,11.835,71,8,71c-1.657,0-3-1.343-3-3s1.343-3,3-3c5.253,0,8.786,1.77,11.903,3.33  C22.766,69.762,25.238,71,29,71c3.791,0,6.277-1.244,9.155-2.682C41.265,66.762,44.79,65,50,65s8.735,1.762,11.845,3.318  C64.723,69.756,67.209,71,71,71c3.762,0,6.234-1.238,9.097-2.67C83.214,66.77,86.747,65,92,65C93.657,65,95,66.343,95,68z"/><path d="M92,50c-5.253,0-8.786,1.77-11.903,3.33c-2.669,1.336-5.041,2.461-8.394,2.612  c-6.479-0.137-11.625-3.329-14.145-8.842c-2.506-5.483-1.83-12.119,1.648-16.137c1.497-1.729,4.664-2.483,6.908-1.649  C67.805,29.943,68,31.149,68,32c0,1.657,1.343,3,3,3c3.541,0,9-5.153,9-12c0-8.552-7.739-15-18-15  C41.155,8,33.835,21.731,27.953,32.765C22.82,42.395,18.765,50,8,50c-1.657,0-3,1.343-3,3s1.343,3,3,3  c3.835,0,6.33,1.248,9.217,2.695C20.312,60.244,23.82,62,29,62c5.208,0,8.73-1.762,11.839-3.316C43.719,57.244,46.206,56,50,56  s6.281,1.244,9.161,2.684C62.27,60.238,65.792,62,71,62c5.18,0,8.688-1.756,11.783-3.305C85.67,57.248,88.165,56,92,56  c1.657,0,3-1.343,3-3S93.657,50,92,50z"/><text x="0" y="115" fill="#000000" font-size="5px" font-weight="bold" font-family="'Helvetica Neue', Helvetica, Arial-Unicode, Arial, Sans-serif">Created by Ayub Irawan</text><text x="0" y="120" fill="#000000" font-size="5px" font-weight="bold" font-family="'Helvetica Neue', Helvetica, Arial-Unicode, Arial, Sans-serif">from the Noun Project</text></svg>