<svg xmlns="http://www.w3.org/2000/svg" xmlns:xlink="http://www.w3.org/1999/xlink" version="1.1" x="0px" y="0px" viewBox="0 0 113.387 141.7325" enable-background="new 0 0 113.387 113.386" xml:space="preserve"><path d="M20.626,57.537c-0.001-0.033-0.003-0.065-0.004-0.1c0.001,0,0.003,0,0.004,0C20.626,57.471,20.626,57.503,20.626,57.537z"/><path d="M95.091,56.892c-0.682-0.292-1.389-0.315-2.106-0.181c-0.838,0.156-1.594,0.507-2.281,1  c-0.664,0.477-1.273,1.015-1.772,1.666c-0.041,0.055-0.089,0.084-0.146,0.098c-0.094,0.002-0.188,0.004-0.284,0.008  c-0.066,0.004-0.135,0.021-0.202,0.031c0,0,0,0.001,0,0.002c-0.229,0.027-0.459,0.068-0.686,0.115  c-0.039,0.008-0.078,0.012-0.115,0.017c-0.006-0.024-0.012-0.032-0.01-0.041c0.011-0.045,0.021-0.09,0.036-0.134  c0.698-2.225,1.578-4.372,2.673-6.431c0.182-0.343,0.18-0.344,0.521-0.523c0.691-0.362,1.402-0.669,2.173-0.819  c0.453-0.089,0.909-0.137,1.37-0.043c0.099,0.02,0.195,0.037,0.321,0.06c-0.034-0.028-0.044-0.039-0.056-0.044  c-0.466-0.208-0.957-0.279-1.459-0.213c-0.857,0.114-1.68,0.355-2.472,0.704c-1.62,0.713-2.969,1.779-4.07,3.16  c-0.212,0.265-0.424,0.53-0.638,0.793c-0.419,0.515-0.776,1.068-1.087,1.654c-0.712,1.347-1.161,2.785-1.513,4.261  c-0.016,0.064-0.04,0.118-0.087,0.168c-0.434,0.45-0.813,0.942-1.152,1.467c-0.02,0.03-0.043,0.058-0.063,0.086  c0.885-3.438,2.179-6.695,4.188-9.643c-0.553,0.482-1.065,0.999-1.565,1.531c-0.503,0.537-0.974,1.102-1.414,1.689  c-0.439,0.584-0.846,1.19-1.228,1.814c-0.381,0.623-0.727,1.264-1.065,1.91c0.455-1.997,1.147-3.911,1.961-5.785  c-0.617,0.99-1.18,2.009-1.688,3.059c-0.511,1.053-0.938,2.139-1.346,3.234c-0.014-0.018-0.018-0.031-0.016-0.044  c0.102-0.817,0.239-1.628,0.398-2.437c0.147-0.752,0.331-1.498,0.544-2.233c0.129-0.441,0.271-0.879,0.408-1.319  c0.016-0.05,0.025-0.105,0.09-0.124c-0.042-0.093,0.011-0.173,0.037-0.254c0.449-1.283,0.981-2.531,1.603-3.741  c0.021-0.041,0.04-0.082,0.06-0.123c-0.009-0.003-0.017-0.007-0.025-0.011c-0.847,1.067-1.545,2.226-2.139,3.469  c-0.048-0.053-0.077-0.087-0.107-0.12c-0.161-0.174-0.318-0.353-0.486-0.52c-0.075-0.075-0.099-0.145-0.069-0.247  c0.165-0.61,0.318-1.223,0.487-1.832c0.087-0.31,0.045-0.24,0.311-0.367c1.999-0.958,4.11-1.549,6.287-1.928  c0.236-0.041,0.474-0.079,0.709-0.118c-0.039-0.015-0.076-0.015-0.112-0.014c-0.847,0.009-1.69,0.065-2.531,0.163  c-0.67,0.077-1.336,0.185-1.995,0.327c-0.69,0.149-1.372,0.337-2.04,0.57c-0.04,0.014-0.082,0.021-0.15,0.037  c0.026-0.077,0.039-0.126,0.061-0.171c0.155-0.333,0.304-0.669,0.47-0.996c0.125-0.244,0.242-0.495,0.43-0.7  c0.244-0.268,0.484-0.54,0.747-0.79c0.736-0.698,1.582-1.233,2.514-1.635c0.686-0.296,1.396-0.505,2.137-0.622  c0.717-0.114,1.437-0.176,2.165-0.138c0.526,0.028,1.046,0.089,1.56,0.202c1.136,0.249,2.172,0.707,3.08,1.439  c0.158,0.127,0.31,0.263,0.486,0.416c-0.285-0.379-0.594-0.693-0.93-0.981c-0.516-0.443-1.09-0.793-1.711-1.063  c-0.767-0.333-1.566-0.534-2.398-0.593c-0.439-0.031-0.883-0.029-1.323,0.017c-0.46,0.047-0.913,0.127-1.35,0.274  c-0.809,0.273-1.588,0.612-2.342,1.01c-0.541,0.286-1.03,0.648-1.479,1.064c-0.99,0.918-1.717,2.023-2.294,3.234  c-0.046,0.095-0.103,0.155-0.2,0.195c-0.34,0.14-0.675,0.29-1.012,0.436c-0.041,0.018-0.083,0.034-0.157,0.065  c0.286-1.405,0.649-2.756,1.093-4.087c-0.026,0.038-0.049,0.078-0.065,0.119c-0.188,0.441-0.379,0.879-0.558,1.324  c-0.365,0.911-0.676,1.842-0.946,2.785c-0.022,0.077-0.045,0.143-0.125,0.188c-0.309,0.174-0.611,0.356-0.912,0.54  c-0.06,0.036-0.105,0.04-0.168,0.01c-0.139-0.066-0.279-0.128-0.421-0.185c-0.671-0.265-1.366-0.427-2.089-0.446  c-0.165-0.004-0.26-0.064-0.343-0.205c-0.173-0.292-0.366-0.571-0.554-0.854c-0.06-0.09-0.125-0.176-0.205-0.288  c0.156,0.402,0.302,0.773,0.444,1.146c0.021,0.058,0.033,0.119,0.053,0.194c-0.631,0.038-1.223,0.167-1.791,0.382  c-0.04-0.058-0.069-0.099-0.098-0.14c-0.004,0.003-0.008,0.005-0.011,0.008c0.015,0.048,0.027,0.096,0.047,0.154  c-0.122,0.058-0.239,0.111-0.354,0.169c-0.12,0.062-0.238,0.127-0.354,0.193c-0.111,0.062-0.222,0.129-0.336,0.197  c-0.279-0.55-0.55-1.083-0.821-1.622c0.05-0.028,0.085-0.051,0.122-0.068c0.511-0.224,1.015-0.466,1.535-0.666  c2.232-0.854,4.555-1.257,6.939-1.315c0.036-0.001,0.073-0.006,0.11-0.009c-0.021-0.028-0.043-0.038-0.064-0.045  c-0.946-0.342-1.926-0.529-2.932-0.576c-0.758-0.035-1.514,0.008-2.266,0.13c-1.392,0.225-2.688,0.695-3.882,1.446  c-0.134,0.083-0.155,0.078-0.239-0.062c-0.504-0.843-1.05-1.658-1.634-2.448c-0.102-0.137-0.207-0.271-0.311-0.407  c-0.006,0.034,0.003,0.059,0.015,0.082c0.13,0.269,0.267,0.533,0.389,0.805c0.348,0.781,0.69,1.564,1.034,2.348  c0.06,0.135,0.05,0.151-0.064,0.248c-0.205,0.175-0.415,0.344-0.612,0.528c-0.516,0.48-0.973,1.012-1.385,1.583  c-0.101,0.139-0.137,0.138-0.252,0.004c-0.01-0.01-0.018-0.021-0.027-0.032c-0.588-0.749-1.282-1.382-2.072-1.913  c-0.041-0.027-0.079-0.059-0.133-0.098c0.222-0.455,0.438-0.9,0.652-1.346c-0.17,0.184-0.322,0.38-0.467,0.581  c-0.146,0.202-0.288,0.408-0.436,0.616c-0.05-0.024-0.087-0.042-0.124-0.06c-0.235-0.111-0.467-0.233-0.709-0.329  c-0.51-0.204-1.043-0.304-1.595-0.283c-0.052,0.002-0.104-0.009-0.169-0.015c0.291-1.528,0.676-3.01,1.156-4.469  c-0.031,0.039-0.051,0.08-0.07,0.122c-0.613,1.368-1.121,2.776-1.521,4.22c-0.043,0.153-0.107,0.23-0.267,0.246  c-0.104,0.01-0.209,0.047-0.312,0.076c-0.071,0.02-0.143,0.046-0.213,0.069c0.224,0.01,0.439-0.063,0.679-0.01  c-0.273,1.023-0.494,2.042-0.693,3.069c-0.026-0.048-0.041-0.095-0.049-0.143c-0.136-0.859-0.299-1.712-0.541-2.548  c-0.166-0.576-0.311-1.158-0.479-1.733c-0.242-0.815-0.617-1.575-1.021-2.319c-0.455-0.836-1.034-1.577-1.722-2.234  c-0.077-0.074-0.154-0.149-0.223-0.231c-0.37-0.447-0.839-0.743-1.395-0.905c-0.531-0.155-1.07-0.18-1.615-0.084  c-0.936,0.165-1.674,0.64-2.218,1.418c-0.025,0.036-0.043,0.076-0.065,0.114c0.039-0.004,0.06-0.021,0.079-0.04  c0.42-0.399,0.912-0.67,1.47-0.824c0.545-0.15,1.096-0.186,1.656-0.106c0.781,0.111,1.492,0.391,2.115,0.874  c0.513,0.397,0.978,0.848,1.369,1.366c0.202,0.267,0.408,0.531,0.558,0.833c0.474,0.956,0.805,1.96,1.042,2.997  c0.221,0.956,0.386,1.921,0.509,2.895c0.072,0.585,0.137,1.172,0.165,1.762c0.01,0.204,0.026,0.408,0.03,0.612  c0.005,0.26,0.016,0.521-0.002,0.78c-0.021,0.338-0.062,0.675-0.097,1.013c-0.003,0.028-0.012,0.056-0.019,0.083  c-0.01,0-0.02,0-0.028,0.001c-0.017-0.061-0.033-0.122-0.049-0.183c-0.256-1.091-0.56-2.169-0.894-3.239  c-0.479-1.534-1.062-3.026-1.813-4.45c-0.131-0.246-0.268-0.488-0.401-0.732c-0.014,0.019-0.013,0.031-0.011,0.042  c0.144,0.634,0.296,1.267,0.431,1.903c0.204,0.964,0.377,1.934,0.51,2.91c0.093,0.667,0.171,1.336,0.258,2.004  c0.011,0.08-0.018,0.12-0.092,0.146c-0.18,0.062-0.357,0.13-0.537,0.194c-0.021,0.007-0.045,0.007-0.069,0.011  c-0.014-0.03-0.027-0.054-0.035-0.08c-0.059-0.196-0.114-0.393-0.173-0.588c-0.202-0.668-0.428-1.328-0.686-1.976  c-0.037-0.093-0.025-0.155,0.048-0.219c0.12-0.104,0.233-0.214,0.35-0.322c0.088-0.082,0.176-0.163,0.265-0.244  c-0.286,0.096-0.535,0.26-0.811,0.375c-0.193-0.428-0.375-0.84-0.565-1.248c-0.19-0.41-0.397-0.812-0.628-1.203  c0.005,0.038,0.019,0.072,0.031,0.105c0.303,0.791,0.581,1.589,0.826,2.399c0.037,0.122,0.036,0.123-0.071,0.19  c-0.208,0.131-0.417,0.262-0.626,0.392c-0.026,0.016-0.057,0.024-0.09,0.038c-0.02-0.036-0.036-0.063-0.048-0.093  c-0.295-0.662-0.583-1.328-0.888-1.986c-0.954-2.074-2.106-4.028-3.497-5.841c-0.019-0.025-0.042-0.047-0.063-0.071  c0.006,0.048,0.024,0.086,0.042,0.124c0.384,0.837,0.782,1.667,1.148,2.511c0.593,1.361,1.1,2.755,1.535,4.173  c0.198,0.644,0.384,1.292,0.578,1.937c0.025,0.084,0.02,0.144-0.052,0.208c-0.365,0.331-0.726,0.668-1.087,1.002  c-0.019,0.017-0.043,0.027-0.077,0.046c-0.026-0.066-0.048-0.121-0.068-0.177c-0.413-1.151-0.939-2.247-1.58-3.289  c-0.129-0.21-0.133-0.164,0.05-0.338c0.092-0.088,0.188-0.171,0.282-0.256c-0.091,0.041-0.17,0.097-0.249,0.153  c-0.077,0.056-0.155,0.112-0.25,0.179c-1.482-2.266-3.482-3.923-5.845-5.167c0.027,0.039,0.061,0.07,0.094,0.102  c0.571,0.54,1.148,1.074,1.712,1.621c0.668,0.647,1.308,1.324,1.923,2.022c0.491,0.559,0.961,1.136,1.404,1.734  c0.038,0.051,0.07,0.106,0.108,0.165c-0.328,0.297-0.646,0.586-0.966,0.877c-0.311-0.209-0.613-0.403-0.94-0.562  c0.259,0.241,0.544,0.45,0.787,0.703c-0.098,0.14-0.271,0.311-0.361,0.355c-0.026-0.052-0.055-0.105-0.081-0.158  c-0.22-0.446-0.456-0.883-0.721-1.304c-0.335-0.533-0.72-1.028-1.177-1.464c-0.468-0.447-0.98-0.828-1.58-1.081  c-0.636-0.269-1.287-0.4-1.971-0.204c-0.081,0.023-0.107-0.023-0.14-0.078c-0.346-0.584-0.693-1.167-1.04-1.751  c-0.02-0.034-0.031-0.072-0.051-0.117c0.637-0.324,1.284-0.585,1.943-0.818c-0.741-0.038-1.471,0.034-2.19,0.194  c-0.169,0.038-0.167,0.037-0.271-0.109c-0.153-0.216-0.311-0.431-0.465-0.646c-0.022-0.03-0.048-0.059-0.071-0.088  c0.137,0.311,0.326,0.592,0.452,0.917c-0.056,0.021-0.094,0.039-0.132,0.05c-0.706,0.199-1.379,0.478-2.019,0.838  c-0.626,0.354-1.207,0.77-1.73,1.264c-0.496,0.468-0.935,0.985-1.311,1.554c-0.027,0.041-0.06,0.077-0.096,0.124  c-0.03-0.034-0.051-0.051-0.065-0.074c-0.118-0.179-0.234-0.357-0.35-0.538c-0.453-0.709-0.959-1.373-1.617-1.908  c-0.642-0.522-1.345-0.931-2.151-1.143c-0.607-0.16-1.22-0.19-1.833-0.023c-0.19,0.052-0.38,0.111-0.55,0.22  c0.024,0.005,0.045,0.001,0.067-0.002c0.174-0.024,0.348-0.062,0.522-0.071c0.5-0.027,0.979,0.084,1.447,0.25  c0.462,0.164,0.897,0.384,1.319,0.631c0.638,0.373,1.221,0.819,1.746,1.338c0.476,0.471,0.855,1.015,1.193,1.591  c0.053,0.088,0.029,0.154-0.015,0.231c-0.412,0.734-0.727,1.51-0.903,2.333c-0.119,0.558-0.19,1.126-0.286,1.689  c-0.005,0.033-0.018,0.065-0.031,0.118c-0.047-0.053-0.078-0.086-0.108-0.121c-0.251-0.287-0.5-0.576-0.755-0.859  c-0.07-0.078-0.122-0.16-0.156-0.259c-0.428-1.242-0.943-2.446-1.567-3.603c-0.022-0.041-0.047-0.081-0.068-0.122  c0.055,0.221,0.133,0.429,0.21,0.637c0.288,0.786,0.546,1.582,0.777,2.386c0.013,0.045,0.038,0.09,0.012,0.152  c-0.044-0.04-0.078-0.07-0.113-0.1c-0.411-0.349-0.821-0.7-1.235-1.044c-0.082-0.068-0.143-0.141-0.187-0.236  c-0.246-0.532-0.487-1.065-0.745-1.591c-0.763-1.557-1.651-3.039-2.666-4.446C28.665,45.227,28.49,45,28.318,44.77  c0.043,0.14,0.103,0.27,0.166,0.397c0.444,0.907,0.851,1.83,1.24,2.761c0.614,1.473,1.111,2.988,1.597,4.506  c0.105,0.332,0.198,0.669,0.287,1.006c0.27,1.011,0.498,2.032,0.665,3.064c0.099,0.61,0.182,1.223,0.262,1.835  c0.053,0.4,0.092,0.804,0.128,1.207c0.036,0.406,0.062,0.814,0.089,1.224c0.002,0.03-0.008,0.063-0.012,0.097c-0.01,0-0.02,0-0.03,0  c-0.025-0.089-0.05-0.177-0.078-0.264c-0.277-0.859-0.606-1.698-1.004-2.512c-0.148-0.305-0.31-0.604-0.468-0.903  c-0.045-0.085-0.103-0.161-0.125-0.261c-0.35-1.628-0.89-3.187-1.705-4.643c-0.544-0.972-1.199-1.858-2.002-2.634  c-0.723-0.698-1.537-1.261-2.447-1.686c-0.553-0.258-1.129-0.435-1.737-0.481c-0.76-0.058-1.504,0.021-2.223,0.293  c-0.265,0.1-0.521,0.214-0.777,0.372c0.156-0.015,0.295-0.035,0.434-0.041c0.6-0.026,1.199-0.011,1.794,0.085  c0.906,0.146,1.771,0.421,2.593,0.829c1.237,0.613,2.291,1.453,3.138,2.544c0.272,0.352,0.504,0.736,0.756,1.105  c0.384,0.562,0.731,1.144,1.003,1.769c0.196,0.452,0.374,0.911,0.559,1.368c0.019,0.045,0.027,0.094,0.04,0.142  c-0.012,0.006-0.022,0.013-0.035,0.019c-0.377-0.562-0.782-1.102-1.229-1.609c-0.453-0.514-0.942-0.991-1.474-1.423  c-0.526-0.429-1.083-0.809-1.688-1.122c0.031,0.041,0.068,0.073,0.106,0.104c0.4,0.318,0.784,0.657,1.146,1.02  c1.232,1.234,2.206,2.651,2.946,4.225c0.292,0.622,0.54,1.264,0.806,1.898c0.012,0.028,0.015,0.063,0.021,0.095  c0.044,0.336,0.09,0.672,0.131,1.01c0.023,0.193,0.042,0.387,0.059,0.582c0.004,0.049,0.025,0.107-0.025,0.153  c-0.017-0.013-0.03-0.021-0.037-0.03c-0.02-0.033-0.036-0.065-0.054-0.1c-0.649-1.277-1.458-2.441-2.49-3.443  c-0.055-0.053-0.1-0.125-0.125-0.196c-0.247-0.669-0.53-1.321-0.864-1.95c-0.212-0.399-0.446-0.784-0.745-1.126  c-0.3-0.344-0.648-0.625-1.067-0.814c-0.441-0.201-0.897-0.26-1.374-0.151c-0.331,0.076-0.635,0.213-0.915,0.401  c-0.104,0.07-0.172,0.056-0.271-0.007c-0.403-0.259-0.812-0.509-1.221-0.756c-0.137-0.082-0.282-0.145-0.424-0.217  c0.938,0.615,1.485,1.017,1.599,1.193c-0.022,0.026-0.042,0.056-0.069,0.081c-0.346,0.319-0.62,0.692-0.832,1.111  c-0.038,0.075-0.093,0.109-0.174,0.117c-0.092,0.008-0.185,0.02-0.276,0.036c-1.082,0.192-2.076,0.6-2.994,1.202  c-0.029,0.019-0.056,0.042-0.083,0.062c0.035,0.013,0.062,0.009,0.088,0.003c0.604-0.137,1.216-0.227,1.836-0.231  c0.349-0.003,0.696,0.014,1.045,0.024c0.135,0.004,0.144,0.017,0.131,0.147c-0.014,0.139-0.025,0.277-0.04,0.416  c-0.005,0.049-0.018,0.098-0.029,0.158c-0.472-0.079-0.933-0.156-1.394-0.233c0.082,0.047,0.17,0.071,0.256,0.099  c0.345,0.112,0.689,0.225,1.034,0.336c0.074,0.023,0.127,0.058,0.115,0.147c0,0.005,0.004,0.012,0.005,0.015  c0.013-0.027,0.025-0.056,0.039-0.082c0.367,0.048,2.353,0.971,2.541,1.186c-0.893,0.475-1.548,1.178-2,2.092  c-0.06-0.033-0.107-0.057-0.153-0.085c-0.713-0.44-1.474-0.749-2.315-0.835c-0.657-0.068-1.289,0.019-1.886,0.312  c-0.105,0.053-0.206,0.115-0.309,0.174c0.593-0.215,1.191-0.232,1.803-0.117c0.911,0.174,1.745,0.547,2.549,0.992  c0.109,0.061,0.108,0.064,0.071,0.188c-0.093,0.313-0.153,0.633-0.163,0.959c0,0.032,0.005,0.067,0.01,0.133  c0.186-0.353,0.372-0.657,0.622-0.935c0.599,0.429,1.148,0.886,1.637,1.41c0.441,0.476,0.8,1.011,1.115,1.572  c0.151,0.387,0.282,0.778,0.375,1.182c0.167,0.726,0.331,1.451,0.466,2.182c0.107,0.579,0.18,1.166,0.251,1.751  c0.054,0.425,0.082,0.851,0.118,1.276c0.006,0.07,0.033,0.101,0.104,0.099c0.13-0.002,0.261,0.002,0.391,0  c0.027,0,0.047-0.002,0.065-0.006c0,0.002,0.001,0.004,0.001,0.006c0.023,0.002,0.038,0.006,0.051,0.006  c0.553-0.002,1.106-0.006,1.66-0.004c0.521,0.001,1.041,0.011,1.561,0.015c0.26,0.002,0.521-0.008,0.781-0.008  c0.186,0,0.372,0.01,0.558,0.008c0.507-0.002,1.015-0.011,1.521-0.011c0.403,0,0.808,0.013,1.211,0.013  c0.958,0.002,1.916-0.002,2.874-0.002c0.721-0.002,1.44-0.002,2.162,0c1.284,0,2.566,0.002,3.851,0.004  c1.209,0,2.418,0.002,3.627,0.002c1.074,0,2.148,0,3.224-0.002c0.371,0,0.743-0.008,1.115-0.01c0.643,0,1.284,0.004,1.926,0.004  c1.437,0.002,2.873,0.004,4.311,0.002c0.614,0,1.227-0.013,1.841-0.012c0.847,0.002,1.692,0.014,2.539,0.018  c0.293,0,0.586-0.008,0.879-0.008c0.977,0.002,1.952,0.008,2.929,0.006c0.642,0,1.283-0.012,1.926-0.012  c0.464-0.003,0.929,0.008,1.394,0.01c0.931,0.002,1.861,0.004,2.791,0.004c1.205-0.002,2.409-0.008,3.613-0.008  c1.104,0,2.205,0.006,3.308,0.008c0.409,0,0.818-0.006,1.229-0.006c0.947,0,1.896,0.008,2.844,0.004  c1.186-0.002,2.372-0.012,3.558-0.02c0.005,0,0.01,0,0.016-0.001c0.119-0.003,0.124-0.008,0.127-0.127  c0.02-0.597,0.033-1.188,0.057-1.785c0.012-0.286,0.034-0.573,0.062-0.86c0.047-0.467,0.096-0.935,0.157-1.398  c0.072-0.539,0.151-1.076,0.242-1.611c0.113-0.664,0.267-1.32,0.437-1.973c0.107-0.42,0.219-0.836,0.361-1.245  c0.104-0.3,0.231-0.588,0.421-0.845c0.231-0.315,0.464-0.631,0.693-0.945c0.855,0.412,1.516,1.051,2.002,1.889  c0.373,0.644,0.584,1.344,0.73,2.066c0.028,0.145,0.054,0.289,0.085,0.459c0.052-0.051,0.089-0.078,0.113-0.113  c0.101-0.146,0.216-0.283,0.291-0.441c0.535-1.112,0.298-2.34-0.532-3.211c-0.437-0.457-0.988-0.721-1.586-0.893  c-0.192-0.057-0.388-0.092-0.582-0.115c0.002-0.002,0.002-0.006,0.004-0.008c-0.048-0.012-0.095-0.021-0.165-0.039  c0.044-0.056,0.075-0.1,0.109-0.139c0.33-0.352,0.697-0.656,1.097-0.926c1.04-0.705,2.161-1.218,3.417-1.394  c0.384-0.054,0.77-0.045,1.147,0.05c0.149,0.038,0.294,0.088,0.441,0.133C95.446,57.071,95.273,56.97,95.091,56.892z M56.174,53.334  c0.202-0.206,0.402-0.413,0.604-0.619c0.009-0.009,0.023-0.013,0.057-0.029c0.021,0.058,0.039,0.104,0.051,0.152  c0.203,0.806,0.406,1.612,0.607,2.418c0.033,0.133,0.029,0.134-0.091,0.191c-0.154,0.073-0.31,0.146-0.473,0.225  c-0.021-0.036-0.039-0.061-0.049-0.09c-0.24-0.703-0.479-1.406-0.721-2.109C56.143,53.425,56.13,53.38,56.174,53.334z   M55.805,60.835c-0.014-0.029-0.029-0.059-0.039-0.088c-0.306-0.957-0.671-1.891-1.118-2.791c-0.036-0.07-0.042-0.125,0.021-0.184  c0.225-0.202,0.445-0.408,0.668-0.61c0.022-0.021,0.055-0.03,0.102-0.055C55.634,58.352,55.755,59.585,55.805,60.835z   M54.077,55.915c0.278-0.349,0.537-0.712,0.805-1.069c0.026-0.035,0.06-0.066,0.105-0.117c0.022,0.088,0.042,0.149,0.054,0.211  c0.102,0.52,0.2,1.04,0.302,1.56c0.015,0.071,0.008,0.122-0.055,0.17c-0.287,0.221-0.571,0.446-0.856,0.669  c-0.019,0.014-0.039,0.022-0.075,0.045c-0.061-0.106-0.104-0.205-0.165-0.292c-0.112-0.155-0.167-0.328-0.197-0.513  c-0.006-0.037-0.009-0.076-0.023-0.108C53.873,56.259,53.937,56.09,54.077,55.915z M53.432,59.373c0.28,0.537,0.53,1.082,0.718,1.65  c-0.009,0.008-0.011,0.014-0.016,0.014c-0.004,0.002-0.011,0.002-0.014,0c-0.35-0.351-0.709-0.689-1.111-0.982  C53.081,59.863,53.33,59.462,53.432,59.373z M53.004,58.826c-0.182,0.246-0.362,0.492-0.545,0.738  c-0.021,0.027-0.049,0.051-0.086,0.089c-0.025-0.044-0.052-0.071-0.061-0.104c-0.036-0.133-0.069-0.268-0.099-0.404  c-0.007-0.033-0.002-0.074,0.014-0.104c0.134-0.266,0.271-0.527,0.409-0.791c0.01-0.02,0.026-0.035,0.058-0.076  c0.121,0.182,0.228,0.343,0.336,0.504C53.07,58.736,53.039,58.779,53.004,58.826z M53.666,59.181  c-0.039-0.088-0.039-0.154,0.021-0.229c0.08-0.102,0.146-0.211,0.247-0.314c0.023,0.044,0.042,0.068,0.052,0.099  c0.058,0.155,0.136,0.308,0.165,0.47c0.057,0.317,0.088,0.643,0.125,0.965c0.023,0.207,0.044,0.414,0.059,0.621  c0.008,0.115,0.001,0.229,0.001,0.367c-0.048-0.162-0.091-0.304-0.13-0.445C54.063,60.189,53.887,59.677,53.666,59.181z   M53.301,57.145c0.01,0.012,0.023,0.024,0.03,0.039c0.113,0.25,0.227,0.5,0.338,0.75c0.021,0.045,0.03,0.09-0.007,0.131  c-0.104,0.112-0.208,0.226-0.312,0.336c-0.009,0.011-0.025,0.011-0.05,0.019c-0.053-0.092-0.104-0.185-0.159-0.273  c-0.062-0.104-0.125-0.207-0.189-0.311c-0.026-0.041-0.042-0.08-0.013-0.129c0.11-0.183,0.22-0.365,0.331-0.548  C53.273,57.151,53.286,57.15,53.301,57.145z M51.173,51.683c0.039,0.043,0.068,0.071,0.092,0.103  c0.718,1.015,1.366,2.07,1.847,3.222c0.064,0.156,0.063,0.159-0.088,0.271c-0.761-1.017-1.627-1.918-2.658-2.682  C50.624,52.275,50.883,51.977,51.173,51.683z M49.851,53.251c0.118-0.148,0.23-0.3,0.359-0.467c0.938,0.908,1.718,1.913,2.382,3.02  c-0.206,0.259-0.408,0.512-0.613,0.769c-0.245-0.224-0.481-0.44-0.72-0.658c-0.043,0.017-0.079,0.032-0.127,0.051  c-0.033-0.066-0.065-0.127-0.095-0.189c-0.231-0.493-0.484-0.973-0.801-1.419c-0.059-0.083-0.104-0.176-0.145-0.27  c-0.09-0.209-0.17-0.423-0.261-0.631C49.798,53.38,49.797,53.319,49.851,53.251z M51.636,57.022  c-0.014,0.017-0.021,0.027-0.028,0.036c-0.012-0.01-0.027-0.018-0.035-0.03c-0.003-0.004,0.013-0.029,0.016-0.028  C51.603,57.004,51.617,57.013,51.636,57.022z M50.79,56.346c-0.121-0.443-0.237-0.871-0.354-1.299  c0.011-0.003,0.021-0.006,0.031-0.009c0.055,0.102,0.113,0.201,0.162,0.305c0.105,0.223,0.202,0.45,0.309,0.672  c0.047,0.098,0.044,0.175-0.047,0.242C50.858,56.281,50.83,56.31,50.79,56.346z M50.817,58.109c0.021,0.078,0.014,0.143-0.029,0.211  c-0.113,0.182-0.222,0.365-0.329,0.551c-0.03,0.053-0.062,0.088-0.13,0.078c-0.216-0.029-0.433-0.055-0.648-0.082  c-0.013-0.002-0.024-0.013-0.054-0.027c0.266-0.588,0.565-1.155,0.902-1.734c0.023,0.055,0.04,0.085,0.048,0.118  C50.657,57.518,50.734,57.814,50.817,58.109z M51.179,56.77c0.022,0.01,0.038,0.051,0.048,0.081c0.049,0.16,0.096,0.32,0.141,0.48  c0.008,0.029,0.014,0.07,0,0.094c-0.087,0.135-0.18,0.266-0.298,0.392c-0.068-0.373-0.136-0.747-0.206-1.129  C50.987,56.682,51.083,56.73,51.179,56.77z M49.319,54.022c0.027,0.039,0.05,0.066,0.064,0.096c0.399,0.82,0.737,1.664,1.017,2.532  c0.021,0.069,0.02,0.121-0.03,0.177c-0.391,0.438-0.744,0.903-1.076,1.387c-0.015,0.021-0.036,0.041-0.066,0.076  c-0.035-0.049-0.062-0.08-0.082-0.115c-0.342-0.582-0.734-1.129-1.174-1.641c-0.069-0.081-0.073-0.143-0.024-0.233  c0.396-0.742,0.819-1.468,1.286-2.168C49.256,54.098,49.284,54.067,49.319,54.022z M48.75,58.982  c-0.136,0.031-0.272,0.053-0.409,0.086c-0.197,0.049-0.395,0.104-0.593,0.155c-0.04,0.011-0.081,0.019-0.125,0.028  c-0.021-0.03-0.04-0.057-0.056-0.084c-0.151-0.244-0.305-0.487-0.449-0.736c-0.061-0.105-0.09-0.229-0.038-0.348  c0.138-0.31,0.285-0.615,0.429-0.922c0.016-0.032,0.04-0.059,0.084-0.122c0.036,0.053,0.061,0.094,0.089,0.129  c0.402,0.496,0.764,1.019,1.095,1.562c0.017,0.027,0.034,0.057,0.048,0.086C48.869,58.906,48.845,58.96,48.75,58.982z M48.81,53.842  c-0.489,0.597-0.941,1.222-1.36,1.87c-0.027,0.042-0.058,0.082-0.099,0.14c-0.113-0.081-0.196-0.18-0.292-0.264  c-0.099-0.086-0.194-0.173-0.293-0.258c-0.099-0.084-0.197-0.167-0.304-0.256c0.033-0.059,0.059-0.107,0.087-0.153  c0.275-0.438,0.593-0.844,0.945-1.222c0.038-0.041,0.074-0.083,0.111-0.125c-0.449,0.348-0.824,0.769-1.188,1.214  c-0.024-0.033-0.041-0.045-0.045-0.061c-0.05-0.174-0.098-0.348-0.147-0.522c-0.022-0.079,0.026-0.121,0.079-0.162  c0.22-0.175,0.458-0.318,0.724-0.409c0.162-0.055,0.33-0.094,0.496-0.134c0.043-0.01,0.114-0.024,0.088,0.069  c0.078-0.077,0.171-0.104,0.279-0.101c0.31,0.01,0.607,0.07,0.896,0.182c0.033,0.013,0.063,0.036,0.109,0.062  C48.865,53.761,48.841,53.804,48.81,53.842z M46.726,56.165c0.123,0.057,0.186,0.143,0.252,0.223  c0.009,0.012,0.012,0.039,0.004,0.052c-0.039,0.07-0.082,0.139-0.124,0.208c-0.013-0.004-0.027-0.008-0.04-0.012  C46.774,56.489,46.746,56.339,46.726,56.165z M46.756,59.542c-0.009,0.008-0.018,0.018-0.026,0.025  c-0.062-0.011-0.123-0.021-0.191-0.033c-0.003-0.102,0.036-0.18,0.094-0.283C46.68,59.365,46.718,59.453,46.756,59.542z   M45.279,54.92c0.055,0.034,0.092,0.072,0.063,0.147c-0.085,0.231-0.166,0.464-0.247,0.695c-0.007,0.016-0.02,0.03-0.03,0.049  c-0.265-0.261-0.519-0.511-0.783-0.774c0.09-0.174,0.183-0.354,0.278-0.538c0.041,0.013,0.068,0.016,0.091,0.03  C44.861,54.659,45.07,54.79,45.279,54.92z M44.825,54.035c0.113-0.248,0.252-0.467,0.389-0.696c0.092,0.099,0.384,0.971,0.376,1.123  C45.333,54.318,45.085,54.18,44.825,54.035z M45.234,56.684c0.011,0.017,0.017,0.048,0.009,0.064  c-0.076,0.157-0.155,0.312-0.237,0.476c-0.069-0.124-0.046-0.625,0.042-0.82C45.119,56.509,45.178,56.596,45.234,56.684z   M45.202,55.638c0.056-0.152,0.123-0.3,0.188-0.449c0.018-0.041,0.046-0.076,0.07-0.118c0.123,0.048,0.207,0.13,0.296,0.201  c0.199,0.158,0.229,0.138,0.076,0.388c-0.097,0.158-0.183,0.323-0.272,0.485c-0.022,0.04-0.046,0.078-0.082,0.139  c-0.07-0.073-0.13-0.133-0.188-0.196C45.11,55.893,45.108,55.891,45.202,55.638z M45.744,56.487  c0.086-0.185,0.167-0.372,0.251-0.558c0.007-0.015,0.023-0.026,0.052-0.058c0.023,0.051,0.042,0.083,0.053,0.117  c0.114,0.415,0.229,0.83,0.343,1.246c0.022,0.086,0.02,0.087-0.043,0.161c-0.025-0.026-0.051-0.052-0.073-0.079  c-0.181-0.223-0.36-0.447-0.543-0.669C45.742,56.598,45.711,56.556,45.744,56.487z M44.616,48.961  c0.688,0.141,1.275,0.477,1.795,0.937c0.504,0.446,0.918,0.973,1.324,1.506c0.406,0.533,0.767,1.097,1.099,1.678  c0.021,0.036,0.038,0.073,0.061,0.115c-0.062,0.03-0.106-0.008-0.15-0.024c-0.265-0.099-0.538-0.148-0.82-0.129  c-0.425,0.029-0.818,0.164-1.179,0.389c-0.148,0.093-0.287,0.206-0.429,0.311c-0.052,0.039-0.101,0.082-0.166,0.136  c-0.024-0.049-0.045-0.082-0.058-0.118c-0.121-0.366-0.24-0.733-0.364-1.098c-0.027-0.079-0.02-0.141,0.025-0.208  c0.1-0.146,0.192-0.294,0.271-0.46c-0.128,0.113-0.256,0.227-0.388,0.342c-0.022-0.027-0.039-0.04-0.045-0.056  c-0.422-1.134-0.925-2.231-1.475-3.308c-0.005-0.011,0-0.026,0-0.048C44.29,48.896,44.454,48.928,44.616,48.961z M36.257,53.328  c0.307-0.806,0.686-1.576,1.142-2.309c0.26-0.419,0.545-0.821,0.854-1.205c0.148-0.185,0.31-0.358,0.466-0.536  c0.096-0.107,0.189-0.217,0.292-0.317c0.149-0.146,0.299-0.294,0.46-0.426c0.297-0.245,0.601-0.483,0.906-0.717  c0.145-0.11,0.299-0.205,0.451-0.304c0.033-0.022,0.072-0.036,0.108-0.053c-2.18,1.498-3.68,3.519-4.662,5.949  c-0.008-0.004-0.018-0.008-0.025-0.011C36.251,53.375,36.249,53.35,36.257,53.328z M23.849,53.667  c0.663-0.279,1.32-0.255,1.974,0.033c0.361,0.16,0.673,0.39,0.965,0.653c0.365,0.329,0.642,0.717,0.842,1.166  c0.167,0.374,0.322,0.751,0.449,1.14c0.016,0.046,0.023,0.094,0.035,0.142c-0.008,0.005-0.016,0.011-0.024,0.016  c-0.029-0.018-0.062-0.032-0.089-0.053c-0.28-0.213-0.551-0.445-0.845-0.637c-0.283-0.185-0.585-0.344-0.891-0.488  c-0.265-0.125-0.545-0.212-0.816-0.32c-0.054-0.021-0.108-0.056-0.148-0.098c-0.461-0.487-0.96-0.932-1.487-1.344  c-0.04-0.031-0.075-0.067-0.129-0.116C23.749,53.723,23.797,53.689,23.849,53.667z M22.479,54.871  c0.227-0.369,0.514-0.681,0.872-0.926c0.101-0.07,0.113-0.074,0.203,0.013c0.271,0.266,0.54,0.536,0.807,0.808  c0.087,0.088,0.165,0.186,0.246,0.279c-0.007,0.014-0.015,0.027-0.021,0.041c-0.231-0.03-0.464-0.069-0.696-0.089  c-0.24-0.021-0.481-0.028-0.724-0.034c-0.234-0.005-0.47-0.001-0.716-0.001C22.46,54.927,22.463,54.896,22.479,54.871z   M21.766,55.598c-0.04-0.001-0.08,0-0.121,0c0-0.008,0-0.017-0.001-0.026c0.119-0.01,0.236-0.028,0.355-0.03  c0.308-0.004,0.615-0.019,0.92,0.003c0.379,0.027,0.759,0.072,1.134,0.138c0.75,0.132,1.466,0.375,2.154,0.702  c0.723,0.342,1.383,0.777,2.008,1.273c0.38,0.301,0.741,0.62,1.076,0.971c0.026,0.025,0.053,0.054,0.076,0.08  c0.005,0.006,0.006,0.019,0.02,0.056c-0.112-0.095-0.209-0.168-0.295-0.252c-0.464-0.46-0.982-0.851-1.514-1.228  c-0.476-0.337-0.979-0.625-1.51-0.867c-0.714-0.325-1.459-0.558-2.235-0.681c-0.33-0.052-0.663-0.088-0.996-0.11  C22.481,55.604,22.123,55.606,21.766,55.598z M22.003,56.888c-0.114-0.026-0.13-0.045-0.116-0.163  c0.016-0.147,0.036-0.295,0.062-0.441c0.025-0.14,0.046-0.155,0.188-0.134c0.247,0.036,0.494,0.078,0.741,0.12  c0.635,0.107,1.243,0.309,1.854,0.504c0.3,0.096,0.595,0.211,0.893,0.314c0.057,0.02,0.118,0.017,0.174,0.035  c0.165,0.053,0.345,0.082,0.424,0.275c0.049,0.12,0.119,0.23,0.179,0.348c0.014,0.026,0.018,0.06,0.032,0.107  c-0.052,0.004-0.083,0.009-0.114,0.008c-0.356-0.008-0.705,0.037-1.048,0.129c-0.077,0.021-0.145,0.014-0.214-0.021  C24.082,57.486,23.062,57.131,22.003,56.888z M26.964,68.832c-0.062-0.313-0.127-0.629-0.201-0.938  c-0.12-0.507-0.248-1.013-0.391-1.513c-0.229-0.803-0.542-1.573-0.936-2.311c-0.028-0.054-0.062-0.105-0.094-0.156  c-0.22-0.522-0.482-1.022-0.812-1.488c-0.4-0.564-0.881-1.057-1.406-1.506c-0.037-0.031-0.067-0.068-0.113-0.114  c0.13-0.104,0.242-0.202,0.358-0.293c0.346-0.271,0.717-0.5,1.112-0.691c0.106-0.051,0.108-0.051,0.186,0.042  c0.061,0.071,0.117,0.145,0.173,0.219c1.228,1.614,1.858,3.461,2.104,5.451c0.049,0.401,0.075,0.807,0.094,1.211  C27.074,67.44,27.049,68.137,26.964,68.832z M27.962,64.432c-0.01,0.003-0.021,0.006-0.029,0.008  c-0.018-0.05-0.034-0.101-0.051-0.149c-0.279-0.912-0.671-1.771-1.192-2.572c-0.479-0.732-1.051-1.385-1.724-1.946  c-0.034-0.028-0.066-0.062-0.119-0.108c0.28-0.121,0.546-0.205,0.817-0.266c0.383-0.085,0.272-0.113,0.57,0.133  c0.42,0.348,0.809,0.729,1.174,1.133c0.074,0.082,0.122,0.174,0.146,0.28c0.111,0.509,0.205,1.021,0.27,1.537  c0.077,0.628,0.134,1.257,0.139,1.89C27.962,64.39,27.962,64.41,27.962,64.432z M29.02,61.134c-0.056-0.065-0.105-0.137-0.165-0.196  c-0.175-0.181-0.288-0.394-0.372-0.629c-0.088-0.25-0.198-0.491-0.298-0.735c-0.013-0.029-0.02-0.061-0.029-0.091  c0.008-0.01,0.016-0.021,0.023-0.03c0.161,0.063,0.325,0.127,0.485,0.194c0.171,0.074,0.173,0.077,0.203,0.259  c0.061,0.364,0.117,0.731,0.173,1.1C29.048,61.042,29.043,61.083,29.02,61.134z M30.901,64.557c-0.062-0.048-0.064-0.101-0.08-0.146  c-0.226-0.637-0.502-1.248-0.837-1.836c-0.03-0.053-0.066-0.101-0.097-0.152c-0.021-0.034-0.042-0.071-0.052-0.111  c-0.157-0.706-0.312-1.413-0.468-2.121c-0.008-0.038-0.006-0.078-0.01-0.141c0.051,0.033,0.084,0.051,0.111,0.072  c0.19,0.162,0.389,0.317,0.569,0.49c0.096,0.092,0.176,0.205,0.24,0.32c0.235,0.424,0.359,0.885,0.433,1.359  c0.109,0.703,0.166,1.412,0.188,2.123C30.902,64.457,30.901,64.496,30.901,64.557z M33.329,66.27  c-0.022-0.071-0.045-0.131-0.062-0.19c-0.25-0.941-0.574-1.855-0.967-2.746c-0.346-0.787-0.785-1.52-1.312-2.199  c-0.016-0.02-0.037-0.039-0.064-0.055c0.117,0.291,0.256,0.571,0.323,0.881c-0.021-0.039-0.047-0.076-0.067-0.114  c-0.174-0.313-0.372-0.611-0.597-0.892c-0.068-0.088-0.126-0.185-0.191-0.273c-0.177-0.24-0.357-0.477-0.53-0.719  c-0.306-0.43-0.709-0.76-1.123-1.074c-0.289-0.219-0.587-0.426-0.887-0.629c-0.095-0.063-0.204-0.106-0.312-0.15  c-0.107-0.043-0.12-0.051-0.119-0.186c0.046,0.021,0.088,0.037,0.125,0.061c0.542,0.334,1.062,0.701,1.56,1.102  c0.458,0.367,0.875,0.777,1.277,1.201c0.33,0.348,0.626,0.723,0.902,1.114c0.129,0.183,0.266,0.358,0.389,0.544  c0.074,0.111,0.124,0.239,0.189,0.355c0.384,0.689,0.706,1.404,0.968,2.146c0.193,0.547,0.353,1.105,0.525,1.66  C33.374,66.156,33.399,66.21,33.329,66.27z M35.489,67.689c-0.001,0.047,0.012,0.102-0.065,0.152c0-0.064,0.001-0.108,0-0.152  c-0.016-0.721-0.022-1.441-0.051-2.162c-0.028-0.738-0.065-1.477-0.123-2.214c-0.06-0.769-0.146-1.536-0.265-2.3  c-0.146-0.951-0.31-1.898-0.518-2.838c-0.372-1.683-0.861-3.331-1.486-4.936c-0.028-0.073-0.057-0.146-0.067-0.232  c0.021,0.019,0.044,0.036,0.061,0.058c0.443,0.62,0.889,1.24,1.33,1.862c0.033,0.047,0.053,0.109,0.064,0.167  c0.259,1.157,0.477,2.322,0.635,3.498c0.102,0.75,0.186,1.504,0.26,2.258c0.073,0.74,0.138,1.482,0.185,2.225  c0.07,1.109,0.107,2.221,0.083,3.332C35.522,66.833,35.504,67.262,35.489,67.689z M37.338,63.048  c-0.026,0.17-0.072,0.336-0.111,0.504c-0.007,0.029-0.023,0.059-0.062,0.093c-0.015-0.04-0.033-0.079-0.044-0.119  c-0.125-0.452-0.25-0.905-0.374-1.356c-0.258-0.946-0.517-1.894-0.725-2.853c-0.134-0.616-0.24-1.239-0.317-1.868  c-0.008-0.068-0.011-0.139-0.015-0.207c0-0.008,0.008-0.016,0.025-0.045c0.033,0.059,0.059,0.102,0.081,0.146  c0.507,0.967,0.868,1.982,1.084,3.053c0.156,0.773,0.312,1.549,0.461,2.324C37.363,62.824,37.355,62.941,37.338,63.048z   M37.915,57.738c-0.002,0.26-0.015,0.521-0.023,0.78c-0.001,0.03-0.013,0.06-0.046,0.097c-0.088-0.186-0.173-0.373-0.264-0.557  c-0.09-0.184-0.182-0.367-0.277-0.547c-0.1-0.186-0.201-0.367-0.308-0.548c-0.104-0.181-0.213-0.36-0.324-0.538  c-0.107-0.173-0.22-0.345-0.335-0.514c-0.115-0.172-0.236-0.341-0.368-0.528c-0.026,0.053-0.045,0.079-0.053,0.108  c-0.11,0.384-0.223,0.768-0.283,1.164c-0.048,0.317-0.119,0.631-0.159,0.948c-0.046,0.363-0.078,0.729-0.103,1.096  c-0.02,0.301-0.033,0.604-0.024,0.904c0.01,0.357,0.041,0.715,0.071,1.07c0.032,0.365,0.064,0.732,0.117,1.095  c0.087,0.606,0.19,1.212,0.289,1.817c0.094,0.578,0.192,1.156,0.287,1.733c0.005,0.029,0.001,0.062-0.023,0.097  c-0.011-0.025-0.027-0.051-0.032-0.076c-0.124-0.695-0.25-1.391-0.367-2.086c-0.098-0.582-0.194-1.164-0.271-1.75  c-0.059-0.449-0.099-0.904-0.12-1.358c-0.023-0.501-0.034-1.004-0.02-1.505c0.021-0.686,0.138-1.359,0.281-2.028  c0.131-0.615,0.302-1.219,0.513-1.811c0.119-0.333,0.247-0.662,0.386-0.987c0.118-0.276,0.254-0.544,0.387-0.814  c0.154-0.317,0.313-0.632,0.472-0.948c0.02-0.04,0.048-0.075,0.093-0.143c0.026,0.078,0.048,0.123,0.056,0.169  c0.062,0.333,0.132,0.666,0.179,1.001c0.062,0.456,0.113,0.913,0.16,1.37c0.031,0.319,0.044,0.64,0.066,0.959  C37.924,56.185,37.923,56.961,37.915,57.738z M38.837,58.576c-0.061,0.348-0.111,0.697-0.169,1.047  c-0.008,0.047-0.022,0.094-0.056,0.14c-0.004-0.021-0.011-0.041-0.012-0.062c-0.01-0.215-0.014-0.429-0.026-0.642  c-0.034-0.548-0.066-1.095-0.107-1.642c-0.034-0.463-0.072-0.926-0.121-1.389c-0.063-0.596-0.133-1.191-0.212-1.785  c-0.114-0.858-0.322-1.697-0.55-2.531c-0.022-0.086-0.004-0.152,0.037-0.224c0.305-0.541,0.672-1.038,1.063-1.518  c0.986-1.21,2.202-2.142,3.552-2.91c0.081-0.046,0.161-0.092,0.244-0.134c0.098-0.049,0.107-0.044,0.161,0.056  c0.037,0.07,0.071,0.141,0.104,0.212c0.243,0.523,0.487,1.045,0.729,1.569c0.023,0.052,0.029,0.113,0.044,0.17  c0.003,0.011,0.002,0.03,0.009,0.034c0.095,0.049,0.103,0.152,0.138,0.234c0.493,1.14,0.946,2.295,1.359,3.466  c0.005,0.013,0.008,0.027,0.014,0.04c0.06,0.114,0.035,0.2-0.06,0.293c-0.223,0.218-0.435,0.448-0.645,0.678  c-0.062,0.068-0.118,0.088-0.206,0.056c-0.442-0.161-0.9-0.261-1.37-0.31c-0.021-0.002-0.043-0.014-0.085-0.029  c0.042-0.108,0.078-0.202,0.114-0.296c-0.076,0.06-0.117,0.143-0.163,0.222c-0.034,0.058-0.075,0.086-0.146,0.083  c-0.473-0.015-0.938,0.033-1.392,0.173c-0.017,0.005-0.035,0.003-0.075,0.006c0.014-0.057,0.021-0.104,0.036-0.149  c0.39-1.181,0.854-2.331,1.392-3.451c0.145-0.302,0.295-0.6,0.433-0.909c-0.033,0.04-0.065,0.079-0.098,0.119  c-1.107,1.418-1.962,2.979-2.624,4.649c-0.061,0.15-0.092,0.314-0.205,0.44c-0.008,0.01-0.02,0.027-0.015,0.037  c0.032,0.09-0.021,0.163-0.049,0.239C39.423,55.87,39.078,57.208,38.837,58.576z M39.747,59.389  c-0.006-0.002-0.013-0.005-0.019-0.007c0-0.034-0.005-0.07,0-0.104c0.072-0.481,0.142-0.966,0.221-1.446  c0.213-1.295,0.531-2.565,0.911-3.822c0.038-0.126,0.104-0.182,0.226-0.207c0.398-0.082,0.798-0.128,1.204-0.084  c0.019,0.001,0.035,0.008,0.053,0.012c0.025,0.063-0.021,0.1-0.043,0.142c-0.293,0.54-0.595,1.074-0.879,1.617  c-0.633,1.209-1.155,2.466-1.613,3.751C39.789,59.289,39.767,59.339,39.747,59.389z M40.883,58.71  c0.047-0.184,0.09-0.367,0.14-0.549c0.397-1.458,0.888-2.886,1.458-4.285c0.057-0.139,0.057-0.136,0.206-0.114  c0.375,0.056,0.729,0.183,1.077,0.328c0.029,0.013,0.059,0.028,0.086,0.044c0.011,0.007,0.019,0.021,0.041,0.044  c-0.076,0.09-0.152,0.181-0.236,0.283c-0.131-0.084-0.229-0.197-0.354-0.268c0.097,0.107,0.191,0.215,0.3,0.336  c-1.053,1.301-1.938,2.704-2.688,4.191C40.901,58.718,40.892,58.714,40.883,58.71z M42.01,61.427  c-0.028,0.033-0.061,0.066-0.097,0.105c-0.014-0.171,0.561-2.064,0.966-3.201c0.374-1.045,0.8-2.067,1.303-3.085  c0.046,0.049,0.072,0.074,0.094,0.103c0.211,0.283,0.42,0.568,0.634,0.849c0.064,0.085,0.072,0.171,0.064,0.274  c-0.018,0.231-0.021,0.464-0.022,0.696c0,0.119-0.021,0.227-0.074,0.335c-0.373,0.77-0.709,1.555-1.015,2.354  c-0.029,0.077-0.068,0.135-0.145,0.176C43.06,60.389,42.498,60.862,42.01,61.427z M44.403,62.023  c-0.223,0.738-0.385,1.49-0.544,2.243c-0.006,0.026-0.024,0.05-0.038,0.073c0,0.004-0.001,0.007-0.001,0.01c0,0.002,0,0.004,0,0.005  c0.008,0.042,0.015,0.085,0.021,0.128c-0.012,0-0.023,0.002-0.036,0.002c0.004-0.043,0.009-0.086,0.014-0.13  c0-0.003-0.001-0.005-0.001-0.008c0.001-0.003,0.002-0.005,0.003-0.007c0.121-0.725,0.242-1.447,0.363-2.172  c0.027-0.164,0.055-0.189,0.221-0.195C44.404,61.99,44.408,62.007,44.403,62.023z M45.518,57.14c0.03,0.046,0.057,0.078,0.077,0.113  c0.135,0.233,0.266,0.469,0.403,0.699c0.045,0.076,0.046,0.139,0.006,0.219c-0.21,0.42-0.416,0.841-0.618,1.263  c-0.034,0.069-0.076,0.104-0.156,0.112c-0.15,0.02-0.299,0.05-0.449,0.074C44.768,59.421,45.381,57.354,45.518,57.14z   M46.995,61.953c0.021,0.291-0.035,0.559-0.166,0.828c-0.269,0.557-0.498,1.131-0.743,1.697c-0.014,0.033-0.03,0.064-0.046,0.098  c0.029-0.564,0.747-2.541,0.938-2.729c0.007,0.036,0.013,0.063,0.018,0.094C46.996,61.943,46.995,61.949,46.995,61.953z   M46.939,61.246c-0.178,0.244-0.361,0.484-0.529,0.734c-0.287,0.43-0.553,0.871-0.763,1.344c-0.019,0.041-0.042,0.078-0.064,0.117  c-0.011-0.004-0.021-0.008-0.032-0.014c0.024-0.149,0.042-0.301,0.073-0.449c0.107-0.52,0.219-1.037,0.326-1.555  c0.014-0.066,0.042-0.107,0.109-0.127c0.279-0.086,0.559-0.176,0.838-0.262c0.024-0.008,0.054-0.004,0.082-0.007  C47.035,61.119,46.987,61.181,46.939,61.246z M47.317,61.714c-0.017-0.002-0.031-0.004-0.047-0.006  c-0.002-0.053-0.017-0.108-0.003-0.158c0.033-0.133-0.04-0.274,0.033-0.424c0.078,0.107,0.11,0.22,0.112,0.322  C47.416,61.537,47.352,61.625,47.317,61.714z M47.98,64.994c-0.125,0.5-0.236,1.004-0.354,1.506  c-0.006,0.025-0.02,0.051-0.031,0.076c0,0.004-0.001,0.008-0.003,0.012c-0.001,0.011-0.003,0.019-0.005,0.027  c-0.014,0.135-0.026,0.271-0.041,0.405c-0.01-0.001-0.021-0.003-0.03-0.004c0-0.138,0.046-0.269,0.07-0.401  c0.001-0.01,0.002-0.02,0.003-0.029c0.001-0.004,0.003-0.008,0.006-0.01c0.043-0.254,0.084-0.506,0.131-0.757  c0.065-0.356,0.137-0.712,0.207-1.067c0.01-0.049,0.021-0.098,0.042-0.146C48.002,64.735,48.013,64.859,47.98,64.994z   M49.523,60.675c-0.196,0.455-0.392,0.912-0.586,1.367c-0.021,0.047-0.04,0.094-0.067,0.156c-0.021-0.041-0.038-0.066-0.047-0.095  c-0.05-0.149-0.095-0.302-0.147-0.449c-0.023-0.069-0.025-0.134-0.005-0.204c0.077-0.252,0.154-0.505,0.227-0.76  c0.019-0.066,0.055-0.105,0.123-0.111c0.191-0.017,0.385-0.029,0.578-0.043c0.018-0.002,0.036,0,0.055,0.002  C49.569,60.546,49.549,60.615,49.523,60.675z M49.983,59.755c-0.056,0.002-0.112,0.002-0.167,0c-0.486-0.021-0.964,0.05-1.439,0.139  c-0.72,0.134-1.419,0.341-2.097,0.615c-0.314,0.128-0.62,0.273-0.93,0.412c-0.044,0.021-0.088,0.039-0.134,0.058  c-0.005-0.011-0.01-0.021-0.015-0.03c0.103-0.059,0.201-0.123,0.306-0.175c0.803-0.399,1.63-0.729,2.511-0.907  c0.377-0.076,0.758-0.144,1.141-0.187c0.368-0.042,0.739-0.05,1.112-0.017c0.381,0.035,0.756,0.084,1.127,0.176  c0.124,0.031,0.245,0.07,0.367,0.107c-0.002,0.008-0.006,0.018-0.008,0.025c-0.135-0.027-0.27-0.055-0.404-0.082  C50.9,59.796,50.445,59.738,49.983,59.755z M50.835,62.625c-0.009-0.004-0.019-0.008-0.027-0.012  c0.01-0.023,0.019-0.049,0.028-0.072c0.007,0.002,0.015,0.004,0.021,0.008C50.85,62.574,50.843,62.599,50.835,62.625z M52.44,65.382  c-0.054-0.018-0.043-0.065-0.049-0.102c-0.057-0.349-0.096-0.699-0.169-1.044c-0.083-0.385-0.197-0.763-0.303-1.144  c-0.021-0.078-0.03-0.148-0.006-0.229c0.083-0.275,0.159-0.554,0.239-0.83c0.011-0.037,0.03-0.072,0.051-0.123  C52.315,62.223,52.505,65.062,52.44,65.382z M57.203,69.212c-0.035-0.188-0.065-0.375-0.104-0.561  c-0.161-0.787-0.321-1.576-0.488-2.363c-0.127-0.6-0.278-1.197-0.499-1.77c-0.221-0.576-0.431-1.16-0.783-1.676  c-0.432-0.637-0.99-1.129-1.662-1.498c-0.556-0.307-1.149-0.498-1.766-0.635c-0.137-0.03-0.152-0.022-0.219,0.104  c-0.065,0.123-0.126,0.249-0.19,0.373c-0.018,0.035-0.04,0.068-0.07,0.119c-0.074-0.237-0.016-0.438,0.082-0.633  c-0.094-0.088-0.208-0.062-0.309-0.08c-0.104-0.021-0.212-0.029-0.318-0.035c-0.104-0.006-0.211,0-0.317-0.025  c0.086-0.008,0.173-0.029,0.257-0.021c0.438,0.038,0.877,0.091,1.31,0.185c0.583,0.125,1.131,0.336,1.654,0.616  c0.358,0.19,0.684,0.433,0.979,0.709c0.474,0.442,0.79,0.992,1.062,1.571c0.412,0.883,0.675,1.812,0.865,2.762  c0.169,0.852,0.328,1.706,0.49,2.559c0.019,0.1,0.027,0.198,0.042,0.297C57.214,69.21,57.208,69.21,57.203,69.212z M58.493,65.947  c-0.004-0.057-0.01-0.1-0.012-0.143c-0.029-0.604-0.047-1.209-0.092-1.811c-0.05-0.654-0.119-1.307-0.188-1.957  c-0.094-0.869-0.229-1.732-0.388-2.593c-0.205-1.11-0.462-2.211-0.77-3.299c-0.042-0.152-0.042-0.153,0.095-0.23  c0.101-0.058,0.201-0.114,0.305-0.169c0.039-0.021,0.082-0.034,0.139-0.058c0.034,0.163,0.066,0.307,0.096,0.452  c0.185,0.93,0.34,1.865,0.465,2.806c0.078,0.591,0.147,1.181,0.205,1.772c0.071,0.744,0.133,1.49,0.183,2.236  c0.061,0.91,0.097,1.82,0.095,2.732C58.626,65.791,58.616,65.882,58.493,65.947z M59.013,59.871c-0.206-1.5-0.502-2.982-0.894-4.439  c0.094-0.099,0.505-0.299,0.661-0.319c0.015,0.103,0.034,0.206,0.042,0.31c0.041,0.611,0.081,1.222,0.117,1.833  c0.022,0.39,0.04,0.779,0.057,1.168c0.021,0.427,0.036,0.854,0.053,1.279c0.004,0.055,0.001,0.109,0.001,0.164  C59.038,59.869,59.025,59.871,59.013,59.871z M60.239,58.251c-0.002,0.037-0.004,0.074-0.006,0.111  c-0.008-0.037-0.016-0.072-0.021-0.107C60.221,58.253,60.229,58.253,60.239,58.251z M60.571,62.359c0,0.016-0.015,0.031-0.029,0.062  c-0.021-0.035-0.043-0.055-0.047-0.078c-0.014-0.076-0.029-0.155-0.027-0.233c0.003-0.2,0.015-0.399,0.019-0.599  c0.002-0.041-0.002-0.084-0.015-0.123c-0.047-0.141-0.036-0.283-0.023-0.428c0.005-0.06-0.004-0.119-0.01-0.178  c-0.002-0.023-0.018-0.046-0.018-0.068c-0.002-0.18,0-0.357-0.034-0.535c-0.016-0.075-0.015-0.154-0.02-0.23  c-0.003-0.043-0.005-0.084-0.009-0.125c-0.004-0.06-0.01-0.117-0.017-0.178c-0.003-0.041-0.006-0.082-0.008-0.123  c-0.004-0.061-0.008-0.119-0.013-0.178c-0.001-0.02-0.013-0.036-0.013-0.055c0.004-0.309-0.057-0.611-0.074-0.918  c-0.002,0-0.002-0.002-0.002-0.004s0-0.002,0-0.002c0.001,0.002,0.001,0.004,0.002,0.006c0.012,0.032,0.029,0.063,0.034,0.098  c0.021,0.166,0.038,0.332,0.062,0.496c0.019,0.127,0.047,0.252,0.062,0.379c0.016,0.137,0.02,0.273,0.03,0.41  c0.003,0.041,0.015,0.082,0.019,0.123c0.014,0.184,0.026,0.365,0.041,0.549c0,0.004-0.002,0.01-0.002,0.014  c0.011,0.197,0.008,0.396,0.038,0.59c0.022,0.148,0.028,0.293,0.019,0.442c-0.005,0.067-0.01,0.14,0.006,0.206  C60.597,61.906,60.569,62.132,60.571,62.359z M79.299,52.618c0.009-0.054,0.025-0.097,0.075-0.125  c0.316-0.178,0.631-0.356,0.947-0.534c0.016-0.008,0.035-0.01,0.076-0.02c-0.014,0.056-0.019,0.1-0.031,0.14  c-0.121,0.352-0.244,0.703-0.365,1.054c-0.048,0.136-0.093,0.273-0.141,0.409c-0.015,0.042-0.034,0.082-0.06,0.139  c-0.044-0.041-0.074-0.067-0.104-0.095c-0.137-0.133-0.27-0.27-0.41-0.399c-0.055-0.051-0.071-0.097-0.055-0.17  C79.262,52.885,79.28,52.751,79.299,52.618z M78.56,53.003c0.021-0.013,0.049-0.014,0.098-0.027  c-0.01,0.061-0.014,0.104-0.023,0.147c-0.223,0.941-0.399,1.891-0.547,2.846c-0.02,0.129-0.036,0.258-0.059,0.386  c-0.006,0.034-0.022,0.08-0.049,0.093c-0.203,0.109-0.41,0.212-0.633,0.325c-0.105-0.267-0.168-0.532-0.259-0.789  c-0.09-0.254-0.175-0.51-0.266-0.763c-0.093-0.258-0.191-0.513-0.29-0.779C77.186,53.922,77.861,53.447,78.56,53.003z M77.579,57.25  c0.111-0.081,0.219-0.167,0.328-0.251c0.01,0.006,0.021,0.013,0.031,0.02c-0.049,0.452-0.099,0.903-0.15,1.385  c-0.026-0.047-0.047-0.069-0.053-0.095c-0.074-0.293-0.146-0.586-0.221-0.879C77.495,57.352,77.511,57.296,77.579,57.25z   M77.592,52.477c-0.001,0.012-0.001,0.017-0.002,0.021s-0.001,0.01-0.005,0.012c-0.471,0.354-0.938,0.713-1.379,1.139  c-0.113-0.187-0.183-0.376-0.271-0.557c-0.087-0.18-0.188-0.354-0.273-0.533c-0.089-0.181-0.204-0.349-0.284-0.561  C76.161,52.038,76.89,52.202,77.592,52.477z M75.294,58.208c-0.02-0.055-0.031-0.09-0.043-0.123  c-0.186-0.652-0.371-1.305-0.56-1.958c-0.021-0.071-0.034-0.125,0.036-0.184c0.314-0.261,0.625-0.528,0.938-0.793  c0.021-0.017,0.045-0.027,0.085-0.051c0.018,0.061,0.032,0.107,0.042,0.156c0.121,0.686,0.242,1.372,0.363,2.058  c0,0.005,0.002,0.01,0.002,0.014c0.016,0.225,0.045,0.168-0.125,0.299c-0.207,0.16-0.408,0.324-0.612,0.485  C75.384,58.141,75.348,58.167,75.294,58.208z M74.288,59.182c-0.05-0.187-0.09-0.349-0.137-0.509  c-0.15-0.508-0.301-1.014-0.455-1.521c-0.027-0.087-0.021-0.155,0.026-0.233c0.136-0.222,0.331-0.427,0.524-0.534  c0.013,0.04,0.029,0.077,0.038,0.116c0.15,0.699,0.3,1.397,0.453,2.095c0.02,0.083,0.002,0.139-0.059,0.195  c-0.102,0.097-0.193,0.201-0.291,0.301C74.364,59.119,74.337,59.141,74.288,59.182z M73.221,52.268  c0.499-0.161,1.011-0.243,1.533-0.269c0.14-0.007,0.142-0.004,0.188,0.132c0.23,0.678,0.427,1.366,0.604,2.06  c0.016,0.06,0.02,0.11-0.029,0.166c-0.32,0.363-0.634,0.731-0.949,1.097c-0.019,0.02-0.038,0.036-0.07,0.067  c-0.024-0.064-0.047-0.114-0.064-0.164c-0.28-0.784-0.596-1.555-0.956-2.305c-0.05-0.102-0.054-0.181,0.03-0.261  c0.039-0.039,0.07-0.085,0.099-0.139c-0.07,0.056-0.142,0.113-0.228,0.182c-0.092-0.181-0.174-0.345-0.263-0.52  C73.155,52.295,73.187,52.278,73.221,52.268z M73.002,52.341c0.022,0.039,0.042,0.064,0.054,0.093  c0.056,0.147,0.105,0.296,0.16,0.444c0.021,0.058,0.019,0.104-0.028,0.15c-0.242,0.237-0.48,0.477-0.723,0.715  c-0.013,0.013-0.029,0.02-0.061,0.04c-0.167-0.313-0.302-0.635-0.448-0.962C72.292,52.619,72.644,52.479,73.002,52.341z   M71.021,53.447c0.019,0.042,0.035,0.07,0.045,0.1c0.126,0.399,0.248,0.798,0.376,1.197c0.027,0.083,0.018,0.146-0.04,0.216  c-0.558,0.688-1.041,1.426-1.466,2.203c-0.022,0.04-0.048,0.077-0.082,0.131c-0.021-0.043-0.039-0.069-0.049-0.098  c-0.171-0.492-0.339-0.984-0.511-1.475c-0.026-0.078-0.043-0.145,0.002-0.224c0.439-0.765,0.986-1.441,1.662-2.01  C70.974,53.475,70.991,53.467,71.021,53.447z M70.246,59.796c-0.026,0-0.055,0-0.081,0c-0.002-0.008-0.002-0.016-0.003-0.022  c0.028-0.004,0.056-0.007,0.083-0.01C70.245,59.774,70.246,59.785,70.246,59.796z M69.261,58.292  c0.045,0.063,0.051,0.119,0.018,0.191c-0.131,0.282-0.255,0.566-0.379,0.854c-0.028,0.062-0.058,0.109-0.139,0.111  c-0.298,0.01-0.594,0.025-0.914,0.041c0.186-0.75,0.406-1.484,0.661-2.229c0.041,0.047,0.066,0.072,0.089,0.102  C68.817,57.673,69.038,57.984,69.261,58.292z M68.716,56.716c0.029-0.07,0.076-0.179,0.136-0.318c0.176,0.292,0.311,0.568,0.4,0.859  C69.08,57.083,68.909,56.91,68.716,56.716z M70.293,51.346c0.021,0.043,0.046,0.086,0.062,0.132c0.189,0.539,0.377,1.08,0.569,1.617  c0.036,0.101,0.011,0.158-0.063,0.229c-0.594,0.57-1.179,1.149-1.652,1.829c-0.018,0.026-0.039,0.052-0.06,0.077  c-0.005,0.006-0.018,0.007-0.043,0.018c-0.339-0.773-0.729-1.521-1.21-2.223C68.23,52.654,69.902,51.485,70.293,51.346z   M67.042,53.677c-0.024,0.058-0.061,0.112-0.092,0.168c0.006,0.006,0.014,0.013,0.021,0.02c0.075-0.069,0.149-0.139,0.238-0.221  c0.04,0.048,0.079,0.086,0.106,0.131c0.276,0.436,0.557,0.87,0.824,1.31c0.159,0.262,0.299,0.536,0.452,0.801  c0.052,0.087,0.054,0.159-0.002,0.244c-0.067,0.104-0.125,0.216-0.192,0.338c-0.049-0.04-0.088-0.071-0.125-0.104  c-0.547-0.491-1.121-0.949-1.724-1.372c-0.02-0.013-0.039-0.026-0.058-0.04c-0.146-0.107-0.154-0.13-0.075-0.287  c0.169-0.332,0.34-0.662,0.513-0.992c0.032-0.064,0.076-0.122,0.121-0.191C67.136,53.565,67.067,53.621,67.042,53.677z   M61.792,59.285c-0.143-3.139,0.034-6.256,0.604-9.375c0.879,0.08,1.61,0.452,2.294,0.988  C63.133,53.497,62.269,56.324,61.792,59.285z M63.489,60.902c-0.013,0.04-0.027,0.078-0.045,0.133  c-0.006-0.334,0.527-2.687,0.96-4.062c0.419-1.33,0.923-2.627,1.477-3.907c-0.619,0.999-1.188,2.026-1.702,3.083  c-0.514,1.053-0.942,2.141-1.354,3.236c0.261-2.245,0.762-4.431,1.521-6.558c0.196-0.554,0.402-1.105,0.653-1.661  c0.076,0.062,0.14,0.107,0.197,0.159c0.521,0.46,0.99,0.969,1.424,1.511c0.118,0.149,0.232,0.302,0.35,0.453  c0.039,0.051,0.062,0.097,0.02,0.163c-0.247,0.377-0.481,0.763-0.735,1.135c-0.473,0.691-0.879,1.418-1.235,2.174  c-0.527,1.117-0.937,2.277-1.312,3.451C63.634,60.441,63.562,60.671,63.489,60.902z M65.378,61.033  c-0.254,0.328-0.475,0.678-0.662,1.047c-0.033,0.068-0.075,0.135-0.116,0.207c-0.068-0.056-0.07-0.111-0.062-0.174  c0.052-0.387,0.094-0.775,0.155-1.16c0.103-0.633,0.205-1.266,0.33-1.895c0.257-1.293,0.61-2.557,1.119-3.776  c0.047-0.114,0.101-0.226,0.162-0.362c0.069,0.047,0.12,0.072,0.16,0.108c0.604,0.554,1.168,1.145,1.689,1.777  c0.012,0.014,0.021,0.031,0.035,0.053c-0.016,0.035-0.027,0.074-0.045,0.111c-0.427,0.865-0.774,1.76-1.096,2.667  c-0.02,0.059-0.039,0.105-0.104,0.133C66.298,60.037,65.8,60.488,65.378,61.033z M68.372,60.6c-0.464,1.185-0.84,2.396-1.104,3.64  c-0.123,0.575-0.22,1.158-0.316,1.74c-0.043,0.262-0.062,0.525-0.094,0.789c-0.007,0.055-0.019,0.107-0.031,0.188  c-0.039-0.146,0.088-2.029,0.181-2.683c0.124-0.875,0.258-1.75,0.387-2.625c-0.007-0.004-0.015-0.009-0.021-0.015  c-0.026,0.039-0.057,0.078-0.08,0.119c-0.164,0.281-0.278,0.586-0.389,0.894c-0.184,0.508-0.325,1.026-0.449,1.554  c-0.008,0.034-0.018,0.07-0.029,0.106c-0.002,0.006-0.013,0.012-0.025,0.024c-0.059-0.055-0.038-0.119-0.024-0.178  c0.066-0.267,0.126-0.535,0.205-0.797c0.16-0.525,0.335-1.047,0.601-1.531c0.596-1.095,1.506-1.77,2.729-2.023  c0.037-0.008,0.078-0.008,0.123,0.016c-0.027,0.01-0.055,0.021-0.083,0.025c-0.524,0.098-1.001,0.308-1.444,0.602  C68.442,60.484,68.399,60.529,68.372,60.6z M70.243,62.068c-0.333,0.748-0.676,1.49-0.998,2.242  c-0.145,0.342-0.248,0.699-0.371,1.051c-0.015,0.043-0.026,0.086-0.067,0.125c0.014-0.139,0.022-0.277,0.039-0.416  c0.122-1.035,0.326-2.057,0.574-3.068c0.155-0.631,0.337-1.256,0.507-1.883c0.016-0.053,0.037-0.104,0.056-0.154  c0.014,0.002,0.026,0.002,0.041,0.002c0.024,0.127,0.057,0.252,0.074,0.379c0.059,0.396,0.114,0.789,0.164,1.188  c0.018,0.143,0.01,0.287,0.01,0.432C70.271,62,70.258,62.037,70.243,62.068z M70.425,61.671c-0.002,0.006-0.016,0.009-0.042,0.019  c-0.005-0.053-0.012-0.101-0.013-0.147c-0.003-0.242-0.002-0.482-0.008-0.726c-0.002-0.125-0.015-0.25-0.021-0.375  c-0.003-0.05-0.001-0.101-0.001-0.177c0.034,0.033,0.058,0.047,0.066,0.066c0.1,0.219,0.197,0.439,0.293,0.662  c0.014,0.033,0.021,0.086,0.005,0.117C70.616,61.3,70.521,61.486,70.425,61.671z M70.546,59.736c0.03,0,0.062,0,0.092,0  c0.001,0.004,0.003,0.006,0.004,0.01c-0.015,0.004-0.027,0.008-0.041,0.01c-0.018,0-0.034-0.002-0.053-0.004  C70.547,59.748,70.546,59.742,70.546,59.736z M71.431,63.951c-0.091,0.062-0.166,0.143-0.271,0.192  c0.042-0.353,0.121-0.692,0.198-1.05c0.021,0.029,0.036,0.043,0.039,0.059c0.042,0.189,0.083,0.379,0.12,0.569  C71.538,63.814,71.515,63.891,71.431,63.951z M72.584,60.652c-0.258-0.229-0.525-0.428-0.833-0.574  c-0.309-0.147-0.637-0.226-0.973-0.291c0.058-0.045,0.123-0.022,0.186-0.016c0.066,0.008,0.134,0.02,0.229,0.034  c-0.04-0.069-0.063-0.114-0.091-0.154c-0.21-0.302-0.418-0.604-0.634-0.901c-0.044-0.062-0.062-0.115-0.034-0.19  c0.332-0.942,0.716-1.864,1.174-2.754c0.019-0.036,0.041-0.07,0.062-0.106c0.067,0.018,0.06,0.076,0.068,0.115  c0.117,0.483,0.234,0.966,0.342,1.451c0.07,0.312,0.125,0.629,0.19,0.941c0.021,0.098,0.001,0.176-0.053,0.262  c-0.259,0.414-0.51,0.832-0.763,1.25c-0.023,0.039-0.042,0.08-0.066,0.127c0.252,0.119,0.495,0.236,0.759,0.361  c0.095-0.24,0.191-0.482,0.3-0.756C72.53,59.671,72.626,60.513,72.584,60.652z M72.615,54.03c0.193-0.273,0.381-0.551,0.572-0.825  c0.021-0.033,0.054-0.06,0.103-0.114c0.07,0.209,0.135,0.383,0.188,0.561c0.219,0.74,0.433,1.481,0.65,2.221  c0.025,0.083,0.012,0.146-0.035,0.22c-0.129,0.208-0.305,0.375-0.469,0.551c-0.016,0.016-0.037,0.027-0.067,0.051  c-0.021-0.055-0.044-0.099-0.061-0.146c-0.269-0.778-0.564-1.545-0.896-2.298C72.563,54.169,72.563,54.104,72.615,54.03z   M75.56,70.164c-0.009,0.127-0.025,0.254-0.041,0.381c0.021-2.508-0.101-5.008-0.472-7.512l0.008-0.011l-0.039-0.231  c-0.01-0.055-0.014-0.106-0.021-0.16c-0.002,0-0.003,0.002-0.005,0.002l-0.098-0.575c0.002-0.026-0.001-0.062-0.013-0.115  c-0.021-0.108-0.043-0.219-0.062-0.329l-0.007-0.039h-0.001c-0.052-0.266-0.101-0.529-0.153-0.795  c-0.016-0.072-0.01-0.135,0.03-0.197c0.083-0.129,0.161-0.263,0.238-0.394c0.015-0.022,0.024-0.049,0.056-0.062  c0.088,0.418,0.146,0.836,0.201,1.252l0.157,1.394c0.016,0.129,0.028,0.259,0.041,0.386c0.035,0.371,0.076,0.74,0.1,1.111  c0.052,0.877,0.104,1.754,0.134,2.633C75.647,67.988,75.626,69.076,75.56,70.164z M76.458,63.984  c-0.008,0.475-0.029,0.948-0.047,1.422c0,0.023-0.006,0.045-0.008,0.068c-0.095-0.893-0.192-1.786-0.301-2.682h0.008l-0.036-0.252  c-0.013-0.103-0.021-0.203-0.034-0.304c-0.004,0.001-0.005,0.001-0.009,0.003l-0.069-0.482c-0.001-0.014,0.003-0.018,0-0.037  c-0.011-0.062-0.021-0.125-0.031-0.188l-0.005-0.025h-0.001c-0.106-0.625-0.214-1.25-0.325-1.875c-0.06-0.32-0.066-0.32,0.143-0.57  c0.137-0.164,0.278-0.324,0.419-0.484c0.028-0.033,0.062-0.062,0.12-0.119c0.059,0.388,0.082,0.74,0.104,1.094  c0.021,0.357,0.041,0.716,0.058,1.072c0.008,0.188,0.014,0.381,0.021,0.569l0.003,1.063C76.462,62.833,76.466,63.41,76.458,63.984z   M78.798,58.052c-0.006,0.002-0.012,0.003-0.018,0.004c-0.004-0.042-0.012-0.083-0.01-0.124c0.014-0.325,0.025-0.649,0.043-0.974  c0.009-0.176,0.025-0.352,0.035-0.528c0.004-0.068,0.03-0.113,0.089-0.146c0.075-0.043,0.146-0.088,0.222-0.132  c0.012,0.009,0.023,0.019,0.033,0.028C79.062,56.804,78.93,57.427,78.798,58.052z M79.1,55.999c-0.066,0.015-0.131,0.04-0.225,0.069  c0.074-0.928,0.172-1.821,0.312-2.74c0.195,0.16,0.369,0.299,0.54,0.44c0.058,0.048,0.03,0.11,0.016,0.168  c-0.081,0.31-0.167,0.619-0.244,0.93c-0.075,0.307-0.146,0.614-0.212,0.923C79.265,55.905,79.214,55.973,79.1,55.999z   M79.475,58.274c-0.003,0.007-0.016,0.009-0.022,0.013c-0.057-0.377,0.435-3.778,0.625-4.13c0.144,0.038,0.248,0.13,0.342,0.239  c0.085,0.098,0.17,0.197,0.262,0.29c0.068,0.069,0.072,0.132,0.032,0.222c-0.173,0.391-0.344,0.782-0.501,1.179  c-0.266,0.665-0.487,1.343-0.684,2.033C79.513,58.169,79.493,58.223,79.475,58.274z M84.083,61.259  c0.176-0.869,0.368-1.735,0.646-2.579c0.258-0.779,0.661-1.481,1.123-2.156c0.893-1.299,2.046-2.314,3.371-3.147  c0.252-0.158,0.51-0.307,0.766-0.458c0.035-0.021,0.074-0.037,0.111-0.055c0.008,0.007,0.017,0.015,0.024,0.023  c-0.023,0.037-0.047,0.075-0.072,0.111c-1.594,2.19-2.922,4.529-3.94,7.041c-0.025,0.062-0.059,0.109-0.125,0.139  c-0.662,0.295-1.266,0.685-1.831,1.137c-0.018,0.016-0.037,0.025-0.074,0.053C84.082,61.316,84.077,61.287,84.083,61.259z   M88.642,59.822c-0.031,0.012-0.062,0.045-0.078,0.075c-0.162,0.286-0.332,0.569-0.48,0.864c-0.312,0.615-0.529,1.27-0.77,1.914  c-0.107,0.291-0.188,0.594-0.273,0.893c-0.324,1.127-0.557,2.273-0.801,3.42c-0.193,0.904-0.352,1.814-0.459,2.734  c-0.016,0.131-0.035,0.263-0.053,0.395c-0.013,0-0.021-0.002-0.033-0.002c0-0.068,0-0.137,0-0.205  c0.003-0.969,0.061-1.934,0.174-2.895s0.271-1.914,0.464-2.862c0.237-1.167,0.503-2.325,0.829-3.472  c0.01-0.037,0.014-0.075,0.023-0.137c-0.054,0.033-0.084,0.051-0.113,0.07c-0.591,0.413-1.109,0.903-1.548,1.477  c-0.146,0.189-0.293,0.369-0.364,0.615c-0.286,0.992-0.549,1.989-0.764,3c-0.181,0.851-0.343,1.705-0.461,2.565  c-0.052,0.362-0.095,0.729-0.142,1.093c-0.003,0.028-0.016,0.057-0.028,0.104c-0.01-0.031-0.015-0.041-0.015-0.049  c-0.028-0.697-0.062-1.395-0.087-2.09c-0.013-0.367-0.008-0.736-0.013-1.104c-0.002-0.035,0.021-0.083-0.047-0.115  c-0.064,0.236-0.126,0.466-0.191,0.711c-0.047-0.098-0.048-0.098-0.02-0.213c0.176-0.733,0.412-1.448,0.684-2.151  c0.279-0.726,0.664-1.394,1.101-2.033c0.438-0.646,0.973-1.209,1.594-1.684c0.592-0.455,1.229-0.807,1.926-1.023  c0.041,0.017,0.082,0.035,0.123,0.053C88.76,59.787,88.7,59.802,88.642,59.822z"/><text x="0" y="128.386" fill="#000000" font-size="5px" font-weight="bold" font-family="'Helvetica Neue', Helvetica, Arial-Unicode, Arial, Sans-serif">Created by ngel Santos Freyta</text><text x="0" y="133.386" fill="#000000" font-size="5px" font-weight="bold" font-family="'Helvetica Neue', Helvetica, Arial-Unicode, Arial, Sans-serif">from the Noun Project</text></svg>