<svg xmlns="http://www.w3.org/2000/svg" xmlns:xlink="http://www.w3.org/1999/xlink" version="1.1" x="0px" y="0px" viewBox="0 0 96 120" enable-background="new 0 0 96 96" xml:space="preserve"><path d="M45.957,65.598c-1.456,1.178-8.832,3.818-16.916,6.649c-0.662,0.232-1.283,0.449-1.862,0.653  c5.737,4.788,13.074,7.6,20.826,7.6c3.885,0,7.718-0.697,11.39-2.073c11.245-4.211,18.779-14.03,20.64-25.098  c-3.146,1.232-13.055,5.037-17.487,5.86C57.303,60.163,47.508,64.345,45.957,65.598z M63.558,66.403  c0.983-0.37,2.157,0.166,2.525,1.149c0.38,1.013-0.136,2.146-1.148,2.525c-0.222,0.083-0.453,0.124-0.688,0.124  c-0.813,0-1.553-0.512-1.838-1.273C62.029,67.915,62.544,66.782,63.558,66.403z"/><path d="M55.442,46.148c3.604-2.584,5.413-3.882,10.595-1.765c6.533,2.674,12.364-2.982,13.499-4.179  c-0.299-1.207-0.662-2.409-1.108-3.602c-1.481-3.954-3.698-7.501-6.459-10.508c-2.264,1.328-11.114,6.245-14.626,4.07  c-1.922-1.19-4.497,0.625-7.479,2.73c-1.961,1.384-3.987,2.815-6.191,3.679c-5.195,2.036-25.227,10.358-28.163,11.579  c0.014,3.739,0.676,7.538,2.063,11.24c0.492,1.313,1.069,2.578,1.716,3.797c3.766-1.436,15.134-5.989,27.064-11.599  C50.704,49.546,53.442,47.583,55.442,46.148z M50.002,37.632c0.36-0.134,0.736-0.202,1.118-0.202c1.322,0,2.522,0.831,2.986,2.07  c0.615,1.646-0.223,3.485-1.867,4.103c-0.36,0.134-0.737,0.202-1.118,0.202c-1.321,0-2.521-0.831-2.984-2.069  C47.521,40.09,48.356,38.249,50.002,37.632z"/><path d="M79.843,41.547c-2.03,1.938-7.785,6.561-14.248,3.918c-4.582-1.875-6.014-0.847-9.472,1.633  c-2.037,1.46-4.825,3.46-9.274,5.552c-11.796,5.546-23.054,10.067-26.99,11.573c1.699,2.935,3.837,5.558,6.308,7.797  c0.744-0.263,1.58-0.556,2.489-0.874c5.666-1.985,15.148-5.308,16.567-6.455c1.842-1.489,11.918-5.685,17.111-6.649  c4.623-0.858,15.82-5.227,17.897-6.045C80.662,48.572,80.554,45.048,79.843,41.547z M37.9,62.796c-0.2,0.439-0.56,0.774-1.013,0.943  c-0.203,0.076-0.418,0.115-0.635,0.115c-0.75,0-1.431-0.472-1.691-1.174c-0.171-0.453-0.154-0.944,0.047-1.385  c0.2-0.439,0.56-0.775,1.012-0.944c0.909-0.344,1.989,0.154,2.328,1.059C38.118,61.864,38.102,62.355,37.9,62.796z"/><path d="M51.829,42.509c1.042-0.392,1.574-1.558,1.184-2.6c-0.294-0.785-1.055-1.313-1.893-1.313c-0.242,0-0.479,0.044-0.709,0.129  c-1.041,0.391-1.571,1.558-1.181,2.601C49.609,42.336,50.806,42.89,51.829,42.509z"/><path d="M37.093,28.868c-0.059,0-0.116,0.01-0.172,0.03c-0.252,0.095-0.379,0.377-0.285,0.63c0.091,0.242,0.376,0.38,0.627,0.283  c0.124-0.046,0.222-0.136,0.275-0.254s0.058-0.25,0.013-0.372C37.479,28.995,37.295,28.868,37.093,28.868z"/><path d="M49.189,31.942c3.184-2.245,6.189-4.367,8.768-2.769c2.535,1.57,9.839-2.019,13.184-3.948  C65.139,19.15,56.835,15.5,47.995,15.5c-3.886,0-7.719,0.696-11.392,2.072C23.95,22.311,15.988,34.148,15.531,46.88  c4.156-1.727,22.73-9.439,27.715-11.393C45.318,34.676,47.286,33.287,49.189,31.942z M38.601,30.042  c-0.184,0.402-0.514,0.709-0.929,0.864c-0.186,0.069-0.382,0.105-0.581,0.105c-0.686,0-1.308-0.432-1.549-1.074  c-0.319-0.856,0.115-1.813,0.97-2.132c0.835-0.311,1.821,0.142,2.132,0.97C38.8,29.189,38.784,29.64,38.601,30.042z"/><path d="M64.525,68.984c0.41-0.153,0.618-0.612,0.465-1.023c-0.116-0.309-0.415-0.516-0.745-0.516c-0.095,0-0.188,0.018-0.277,0.051  c-0.411,0.153-0.62,0.613-0.466,1.023C63.65,68.917,64.122,69.135,64.525,68.984z"/><path d="M36.254,61.404c-0.076,0-0.151,0.014-0.225,0.041c-0.16,0.06-0.287,0.179-0.358,0.334c-0.071,0.156-0.076,0.331-0.017,0.491  c0.119,0.321,0.498,0.495,0.824,0.375c0.161-0.061,0.289-0.179,0.359-0.335c0.071-0.155,0.078-0.33,0.018-0.491  C36.762,61.571,36.521,61.404,36.254,61.404z"/><circle cx="28.122" cy="88.492" r="2.242"/><polygon points="8.406,27.813 7.414,29.82 5.199,30.142 6.803,31.705 6.424,33.912 8.406,32.87 10.388,33.912 10.01,31.705   11.613,30.142 9.396,29.82 "/><polygon points="26.816,11.029 28.186,10.311 29.553,11.029 29.292,9.506 30.398,8.428 28.869,8.205 28.186,6.818 27.501,8.205   25.971,8.428 27.078,9.506 "/><polygon points="84.767,68.066 85.873,69.146 85.612,70.67 86.98,69.95 88.349,70.67 88.088,69.146 89.194,68.066 87.664,67.844   86.98,66.459 86.297,67.844 "/><polygon points="86.98,14.135 86.078,16.912 83.158,16.912 85.52,18.629 84.618,21.404 86.98,19.689 89.342,21.404 88.44,18.629   90.802,16.912 87.883,16.912 "/><circle cx="79.024" cy="7.509" r="2.242"/><circle cx="88.517" cy="48.986" r="1.786"/><path d="M14.852,19.516c1.302,0,2.361-1.059,2.361-2.361c0-1.301-1.06-2.36-2.361-2.36s-2.361,1.06-2.361,2.36  C12.49,18.457,13.55,19.516,14.852,19.516z"/><path d="M22.963,88.246c-0.324-0.064-0.646-0.137-0.964-0.217l-0.122,0.484c0.326,0.082,0.655,0.156,0.988,0.223L22.963,88.246z"/><path d="M6.758,71.81c0.097,0.653,0.228,1.31,0.389,1.95l0.484-0.122c-0.156-0.625-0.284-1.265-0.379-1.901L6.758,71.81z"/><path d="M18.348,86.721l-0.214,0.451c0.597,0.283,1.216,0.541,1.839,0.764l0.168-0.471C19.533,87.247,18.931,86.996,18.348,86.721z"/><path d="M6.539,68.852c0,0.328,0.008,0.654,0.024,0.98l0.499-0.025c-0.016-0.316-0.023-0.635-0.023-0.955  c0-0.327,0.009-0.655,0.025-0.984l-0.5-0.025C6.548,68.18,6.539,68.517,6.539,68.852z"/><path d="M13.527,83.488c-0.479-0.436-0.939-0.897-1.369-1.375l-0.371,0.334c0.441,0.49,0.914,0.965,1.403,1.41L13.527,83.488z"/><path d="M8.938,77.285c-0.276-0.584-0.526-1.188-0.742-1.791l-0.471,0.168C7.945,76.281,8.202,76.9,8.486,77.5L8.938,77.285z"/><path d="M9.852,78.996l-0.428,0.258c0.339,0.566,0.711,1.123,1.104,1.654l0.402-0.297C10.546,80.093,10.184,79.55,9.852,78.996z"/><path d="M14.727,85.123c0.531,0.396,1.088,0.77,1.652,1.109l0.258-0.43c-0.551-0.33-1.094-0.694-1.611-1.08L14.727,85.123z"/><path d="M6.764,65.849l0.494,0.073c0.048-0.324,0.105-0.648,0.17-0.973l-0.49-0.098C6.871,65.184,6.813,65.516,6.764,65.849z"/><path d="M89.631,76.012l-0.5-0.01c-0.008,0.329-0.025,0.656-0.055,0.98l0.498,0.046C89.604,76.692,89.623,76.354,89.631,76.012z"/><path d="M86.086,85.063c0.492-0.555,0.943-1.151,1.342-1.772l-0.422-0.27c-0.383,0.599-0.818,1.175-1.295,1.71L86.086,85.063z"/><path d="M84.164,86.217c-0.553,0.453-1.145,0.865-1.76,1.225l0.252,0.432c0.639-0.373,1.252-0.801,1.825-1.27L84.164,86.217z"/><path d="M88.015,81.128l0.459,0.199c0.295-0.679,0.538-1.387,0.722-2.104L88.711,79.1C88.533,79.791,88.299,80.473,88.015,81.128z"/><path d="M78.521,89.475c0.723-0.154,1.439-0.368,2.131-0.637l-0.18-0.465c-0.667,0.258-1.358,0.464-2.055,0.612L78.521,89.475z"/><path d="M75.292,89.78c0.097,0.002,0.192,0.003,0.288,0.003c0.244,0,0.488-0.006,0.73-0.02l-0.025-0.498  c-0.326,0.017-0.652,0.023-0.983,0.015L75.292,89.78z"/><rect x="88.267" y="36.377" width="0.5" height="2"/><rect x="88.267" y="28.377" width="0.5" height="2"/><rect x="88.267" y="40.377" width="0.5" height="2"/><rect x="88.267" y="32.377" width="0.5" height="2"/><text x="0" y="111" fill="#000000" font-size="5px" font-weight="bold" font-family="'Helvetica Neue', Helvetica, Arial-Unicode, Arial, Sans-serif">Created by scribble.glyph</text><text x="0" y="116" fill="#000000" font-size="5px" font-weight="bold" font-family="'Helvetica Neue', Helvetica, Arial-Unicode, Arial, Sans-serif">from the Noun Project</text></svg>