<svg xmlns="http://www.w3.org/2000/svg" xmlns:xlink="http://www.w3.org/1999/xlink" version="1.1" x="0px" y="0px" viewBox="0 0 91 113.75" enable-background="new 0 0 91 91" xml:space="preserve"><g><path d="M90.346,11.427c-0.771-1.08-2.087-1.626-3.535-1.413l-9.93,1.464l-6.995-7.205c-0.997-1.024-2.432-1.41-3.672-1.024   c-1.273,0.392-2.211,1.517-2.444,2.928l-1.676,9.901l-9.014,4.425c-1.304,0.641-2.091,1.828-2.109,3.173   c-0.016,1.343,0.74,2.548,2.013,3.223l8.937,4.809l1.404,9.79c0.201,1.415,1.108,2.558,2.368,2.989   c0.351,0.119,0.716,0.178,1.088,0.178c0.949,0,1.875-0.396,2.603-1.112l7.175-7.018l9.9,1.712c1.451,0.252,2.772-0.269,3.574-1.333   c0.801-1.084,0.896-2.503,0.25-3.799l-4.462-8.992l4.694-8.886C91.186,13.953,91.125,12.533,90.346,11.427z M80.218,26.421   l2.501,5.042l-5.539-0.959c-1.555-0.277-3.425,0.314-4.539,1.408l-4.021,3.933L67.755,30c-0.361-1.11-0.919-2-1.7-2.716   c-0.246-0.281-6.013-3.466-6.013-3.466l5.104-2.508c1.429-0.7,2.568-2.231,2.836-3.806l0.939-5.547l3.921,4.039   c1.092,1.126,2.929,1.751,4.495,1.523l5.567-0.821l-2.631,4.979C79.529,23.09,79.506,24.999,80.218,26.421z"/><path d="M39.2,65.761c0.233-0.378,0.47-0.75,0.712-1.118c0.911-1.388,0.526-3.264-0.866-4.188   c-1.349-0.887-3.296-0.481-4.186,0.866c-0.27,0.41-0.538,0.829-0.804,1.261c-0.873,1.418-0.43,3.283,0.976,4.15   c0.478,0.298,1.03,0.457,1.595,0.457C37.679,67.189,38.639,66.656,39.2,65.761z"/><path d="M35.656,73.925c0.237-0.659,0.491-1.318,0.762-1.969c0.627-1.541-0.112-3.31-1.654-3.946   c-1.507-0.613-3.32,0.148-3.941,1.649c-0.299,0.729-0.587,1.473-0.854,2.215c-0.274,0.758-0.236,1.58,0.109,2.312   c0.344,0.731,0.951,1.286,1.718,1.561c0.331,0.117,0.674,0.177,1.019,0.177C34.086,75.923,35.229,75.119,35.656,73.925z"/><path d="M29.981,84.816c0.166,0.023,0.327,0.04,0.487,0.04c1.477,0,2.73-1.059,2.98-2.521c0.072-0.438,0.15-0.866,0.232-1.286   c0.162-0.789,0.006-1.594-0.439-2.269c-0.448-0.675-1.132-1.134-1.926-1.292c-1.667-0.324-3.244,0.771-3.558,2.368   c-0.098,0.49-0.19,0.982-0.269,1.468c-0.137,0.793,0.044,1.593,0.51,2.251C28.466,84.237,29.162,84.674,29.981,84.816z"/><path d="M44.287,59.059c3.239-3.811,8.51-8.956,15.205-11.84c0.744-0.318,1.317-0.906,1.616-1.656   c0.297-0.752,0.285-1.571-0.035-2.316c-0.642-1.486-2.467-2.22-3.971-1.577c-6.149,2.646-12.172,7.304-17.425,13.476   c-1.074,1.27-0.92,3.179,0.348,4.259c0.546,0.465,1.241,0.721,1.956,0.721C42.875,60.125,43.715,59.733,44.287,59.059z"/><path d="M29.932,52.194c0.32-0.305,0.648-0.607,0.968-0.896c0.604-0.538,0.961-1.282,1.003-2.089   c0.043-0.809-0.232-1.586-0.768-2.178c-1.068-1.198-3.087-1.299-4.27-0.231c-0.364,0.326-0.729,0.661-1.093,1.002   c-1.204,1.146-1.257,3.061-0.115,4.273c0.569,0.6,1.37,0.944,2.197,0.944C28.62,53.02,29.353,52.73,29.932,52.194z"/><path d="M14.665,71.808c0.353,0.141,0.725,0.212,1.107,0.212c1.255,0,2.36-0.758,2.815-1.929c0.31-0.799,0.646-1.599,0.997-2.38   c0.33-0.738,0.353-1.559,0.064-2.313s-0.853-1.351-1.592-1.68c-1.481-0.66-3.331,0.054-3.987,1.521   c-0.39,0.868-0.763,1.761-1.117,2.658C12.356,69.445,13.125,71.201,14.665,71.808z"/><path d="M23.958,59.82c0.478-0.713,0.982-1.421,1.486-2.099c0.486-0.649,0.688-1.446,0.572-2.248   c-0.117-0.799-0.539-1.505-1.184-1.983c-1.288-0.966-3.269-0.673-4.233,0.616c-0.567,0.762-1.126,1.551-1.661,2.347   c-0.45,0.671-0.612,1.479-0.453,2.274c0.157,0.792,0.613,1.473,1.267,1.907c0.501,0.343,1.086,0.522,1.692,0.522   C22.456,61.157,23.394,60.659,23.958,59.82z"/><path d="M13.68,75.192c-1.604-0.334-3.246,0.744-3.578,2.345c-0.1,0.484-0.194,0.965-0.28,1.448   c-0.145,0.797,0.03,1.602,0.493,2.264c0.462,0.663,1.153,1.106,1.885,1.235c0.193,0.044,0.388,0.063,0.598,0.063   c1.461,0,2.711-1.045,2.972-2.479c0.081-0.438,0.165-0.872,0.257-1.313C16.357,77.121,15.301,75.521,13.68,75.192z"/><path d="M55.433,30.93c-0.273,0-0.547,0.037-0.802,0.109c-7.544,2.065-14.596,5.574-21.555,10.733   c-0.646,0.483-1.068,1.187-1.187,1.984c-0.119,0.801,0.083,1.599,0.556,2.234c0.563,0.771,1.472,1.229,2.435,1.229   c0.647,0,1.265-0.202,1.8-0.59c6.331-4.699,12.724-7.889,19.542-9.757C57,36.66,57.648,36.16,58.05,35.458   c0.401-0.702,0.507-1.519,0.293-2.294C57.987,31.85,56.79,30.93,55.433,30.93z"/><path d="M22.793,38.014c0.545,0,1.079-0.145,1.552-0.423c0.376-0.226,0.759-0.449,1.133-0.661c0.707-0.396,1.218-1.041,1.438-1.82   c0.219-0.777,0.12-1.592-0.273-2.289c-0.782-1.404-2.695-1.958-4.115-1.165c-0.432,0.241-0.865,0.492-1.284,0.744   c-0.694,0.414-1.184,1.072-1.382,1.855c-0.198,0.785-0.077,1.598,0.338,2.291C20.749,37.465,21.719,38.014,22.793,38.014z"/><path d="M10.43,52.127c0.394-0.688,0.819-1.371,1.254-2.032c0.917-1.384,0.535-3.26-0.862-4.192c-1.349-0.88-3.3-0.473-4.176,0.858   c-0.505,0.755-0.993,1.551-1.455,2.346c-0.403,0.696-0.511,1.512-0.303,2.291s0.708,1.432,1.39,1.825   c0.457,0.273,0.986,0.417,1.527,0.417C8.876,53.64,9.879,53.064,10.43,52.127z"/><path d="M17.001,43.616c0.562-0.56,1.152-1.116,1.749-1.646c0.604-0.536,0.963-1.278,1.009-2.084   c0.046-0.805-0.223-1.581-0.752-2.174c-1.06-1.203-3.065-1.328-4.274-0.255c-0.679,0.605-1.354,1.237-1.996,1.877   c-0.573,0.57-0.89,1.326-0.892,2.133c-0.003,0.807,0.31,1.568,0.887,2.15c0.574,0.57,1.333,0.884,2.138,0.884   C15.667,44.5,16.422,44.188,17.001,43.616z"/><path d="M5.088,55.969c-1.554-0.517-3.309,0.384-3.817,1.95c-0.152,0.475-0.299,0.956-0.43,1.425   c-0.226,0.775-0.134,1.592,0.258,2.301c0.393,0.707,1.038,1.221,1.78,1.428c0.274,0.087,0.565,0.129,0.864,0.129   c1.345,0,2.54-0.902,2.902-2.179c0.124-0.425,0.25-0.844,0.381-1.252c0.25-0.766,0.184-1.584-0.183-2.303   C6.473,56.746,5.845,56.212,5.088,55.969z"/><path d="M45.664,23.776l-0.309,0.016c-6.323,0.643-12.293,2.969-16.789,4.923c-1.525,0.665-2.228,2.447-1.567,3.98   c0.48,1.102,1.569,1.813,2.772,1.813c0.422,0,0.829-0.084,1.202-0.249c4.096-1.778,9.501-3.895,14.997-4.455   c1.656-0.172,2.869-1.656,2.701-3.31C48.514,24.946,47.221,23.776,45.664,23.776z"/></g><text x="0" y="106" fill="#000000" font-size="5px" font-weight="bold" font-family="'Helvetica Neue', Helvetica, Arial-Unicode, Arial, Sans-serif">Created by IconsGhost </text><text x="0" y="111" fill="#000000" font-size="5px" font-weight="bold" font-family="'Helvetica Neue', Helvetica, Arial-Unicode, Arial, Sans-serif">from the Noun Project</text></svg>