<svg xmlns:dc="http://purl.org/dc/elements/1.1/" xmlns:cc="http://creativecommons.org/ns#" xmlns:rdf="http://www.w3.org/1999/02/22-rdf-syntax-ns#" xmlns:svg="http://www.w3.org/2000/svg" xmlns="http://www.w3.org/2000/svg" xmlns:sodipodi="http://sodipodi.sourceforge.net/DTD/sodipodi-0.dtd" xmlns:inkscape="http://www.inkscape.org/namespaces/inkscape" version="1.1" x="0px" y="0px" viewBox="0 0 465.53586 581.9995875" enable-background="new 0 0 595 842" xml:space="preserve"><path style="" d="m 65.936998,399.53597 c -4.755,-4.1844 -4.439,-13.3775 0.697,-23.9655 L 0,332.07757 c 7.101,-7.1009 14.201998,-11.7292 25.993998,-13.2508 l 77.412002,-10.271 c 5.833,-0.7608 11.539,-1.268 16.865,-2.219 8.496,-12.9337 34.807,-45.7754 47.994,-63.1472 l 34.998,-46.2192 -169.280002,-50.9743 c -17.626,-5.3256 15.66,-44.8243 31.7,-40.5131 l 223.108002,5.8963 56.236,-56.236497 c 44,-43.9368 103.09,-64.4787001 116.467,-51.1011001 C 474.872,17.482673 454.33,76.572173 410.393,120.50897 l -56.236,56.2999 5.833,223.1075 c 4.374,16.0404 -35.124,49.2625 -40.45,31.637 l -50.974,-169.2168 -46.283,34.9973 c -17.372,13.124 -50.213,39.4353 -63.147,47.9944 -1.078,5.3257 -1.458,11.0318 -2.283,16.8646 l -10.207,77.4124 c -1.585,11.856 -6.15,18.8935 -13.251,25.9944 l -43.429002,-66.6977 c -10.652,5.0721 -19.845,5.3891 -24.029,0.634 z" clip-rule="evenodd" fill="#000000" fill-rule="evenodd"/><text x="0" y="480.59967" fill="#000000" font-size="5px" font-weight="bold" font-family="'Helvetica Neue', Helvetica, Arial-Unicode, Arial, Sans-serif">Created by jeff</text><text x="0" y="485.59967" fill="#000000" font-size="5px" font-weight="bold" font-family="'Helvetica Neue', Helvetica, Arial-Unicode, Arial, Sans-serif">from the Noun Project</text></svg>