<svg xmlns="http://www.w3.org/2000/svg" xmlns:xlink="http://www.w3.org/1999/xlink" version="1.0" x="0px" y="0px" viewBox="0 0 100 125" enable-background="new 0 0 100 100" xml:space="preserve"><path fill="#000000" d="M40.525,66.818l3.563,15.018h-3.813l-8.21-22.93h2.712h3.871h1.878V66.818L40.525,66.818z M71.971,59.84  v7.152L60.125,81.836h-5.219l10.318-14.844l-3.133-8.086h8.768L71.971,59.84L71.971,59.84z M34.789,27.193l0.067,0.143  c1.03,2.066,2.965,3.428,5.232,3.586h28.68h2.942c1.885,0,3.672,0.42,5.271,1.172h1.846h3.168h0.47  C88.602,32.352,93.5,37.404,93.5,43.6v12.74h-5.804V44.537c0-5.32-3.611-9.797-8.517-11.113c2.994,2.264,4.928,5.854,4.928,9.896  v10.4l4.831,13.154v14.961h-4.431V67.58L71.146,56.34H56.372H48.09H36.104c-1.186,0-2.332-0.166-3.417-0.477l-13.282,4.418  l-0.317,14.715l-3.255,0.588l-2.315-20.17l11.253-6.443c-0.683-1.537-1.063-3.238-1.063-5.029V34.68v-0.643  c0-1.934-1.424-3.533-3.28-3.809l-2.879,8.072c-0.161,0.807-0.559,1.381-1.557,1.381h-5.817c-0.463-0.707-0.732-1.553-0.732-2.461  v-7.035v-9.672v-0.234L5.5,16.336h12.412C25.47,16.336,31.9,20.797,34.789,27.193L34.789,27.193z"/><text x="0" y="115" fill="#000000" font-size="5px" font-weight="bold" font-family="'Helvetica Neue', Helvetica, Arial-Unicode, Arial, Sans-serif">Created by Sascha Elmers</text><text x="0" y="120" fill="#000000" font-size="5px" font-weight="bold" font-family="'Helvetica Neue', Helvetica, Arial-Unicode, Arial, Sans-serif">from the Noun Project</text></svg>