<svg xmlns="http://www.w3.org/2000/svg" xmlns:xlink="http://www.w3.org/1999/xlink" version="1.1" x="0px" y="0px" viewBox="0 0 64 80" style="enable-background:new 0 0 64 64;" xml:space="preserve"><g><polygon points="51.719,51 12.281,51 12.781,53 51.219,53  "/><circle cx="39" cy="56" r="1"/><path d="M10.673,33.594c0.489,0.869,0.289,2.102,0.078,3.408c-0.092,0.573-0.237,1.467-0.198,1.92   c0.382-0.2,1.012-0.731,1.418-1.073c1.025-0.863,1.993-1.679,3.029-1.679s2.004,0.816,3.029,1.68   c0.405,0.342,1.035,0.872,1.417,1.072c0.039-0.453-0.105-1.348-0.198-1.92c-0.211-1.306-0.411-2.539,0.078-3.408   c0.479-0.852,1.603-1.279,2.791-1.732c0.549-0.209,1.528-0.582,1.83-0.862c-0.246-0.228-0.936-0.515-1.477-0.726   C20.925,30.75,19.3,31,17.636,31H14c-1.843,0-3.579,0.461-5.106,1.266C9.672,32.602,10.334,32.991,10.673,33.594z"/><circle cx="11" cy="56" r="1"/><path d="M13.816,55C13.928,55.314,14,55.648,14,56c0,1.654-1.346,3-3,3s-3-1.346-3-3c0-1.56,1.202-2.832,2.726-2.972l-0.488-1.951   C7.844,51.447,6,53.504,6,56c0,2.757,2.243,5,5,5s5-2.243,5-5c0-0.339-0.044-0.672-0.111-1H13.816z"/><path d="M31,15h12v-2H31c-0.551,0-1,0.449-1,1S30.449,15,31,15z"/><path d="M46,9h6V6c0-1.654-1.346-3-3-3H37c-1.654,0-3,1.346-3,3v5h9.184C43.598,9.839,44.698,9,46,9z"/><path d="M31,23h12v-2H31c-0.551,0-1,0.449-1,1S30.449,23,31,23z"/><path d="M43,19v-2h-9.177c-0.099,0.675-0.242,1.343-0.424,2H43z"/><path d="M37.026,29c2.602,0,4.814-1.674,5.632-4H31.395C32.235,27.394,34.482,29,37.026,29z"/><circle cx="53" cy="56" r="1"/><path d="M12.142,47c-2.938,0-5.7-1.144-7.778-3.222l-1.342-1.342C3.249,46.093,6.287,49,10,49h46c2.58,0,4.686-1.972,4.948-4.484   C59.003,46.097,56.545,47,54,47H12.142z"/><circle cx="25" cy="56" r="1"/><path d="M57.498,19c-1.71,0-2.527-1.451-3.123-2.51c-0.57-1.013-0.892-1.49-1.379-1.49c-0.487,0-0.809,0.477-1.378,1.49   C51.021,17.549,50.205,19,48.496,19c-1.709,0-2.524-1.451-3.12-2.51c-0.138-0.246-0.261-0.458-0.376-0.641v7.178   C45,27.423,41.423,31,37.026,31c-3.334,0-6.295-2.062-7.461-5.162c-0.118,0.125-0.237,0.248-0.358,0.369   c-1.262,1.262-2.701,2.279-4.252,3.057C25.57,29.686,26,30.229,26,31c0,1.523-1.685,2.165-3.17,2.73   c-0.594,0.227-1.588,0.605-1.765,0.852c-0.136,0.284,0.048,1.421,0.158,2.1c0.266,1.642,0.54,3.339-0.71,4.083   c-0.287,0.171-0.577,0.245-0.867,0.245c-0.969,0-1.95-0.826-2.905-1.631c-0.494-0.416-1.414-1.191-1.743-1.209   c-0.325,0.018-1.245,0.793-1.738,1.209c-1.242,1.046-2.526,2.128-3.773,1.386c-1.25-0.744-0.975-2.441-0.709-4.083   c0.11-0.68,0.294-1.817,0.152-2.11c-0.17-0.236-1.164-0.615-1.757-0.841c-0.095-0.036-0.186-0.074-0.281-0.11   c-1.844,1.567-3.17,3.727-3.67,6.186l2.558,2.558c1.7,1.7,3.96,2.636,6.364,2.636H54c2.714,0,5.302-1.258,7-3.364V15.844   c-0.116,0.185-0.24,0.399-0.38,0.647C60.024,17.55,59.208,19,57.498,19z M57.671,36.743L51,43.414l-6.671-6.671   C43.472,35.886,43,34.747,43,33.536C43,31.035,45.035,29,47.536,29c1.211,0,2.351,0.472,3.207,1.329L51,30.586l0.257-0.257   C52.114,29.472,53.253,29,54.464,29C56.965,29,59,31.035,59,33.536C59,34.747,58.528,35.886,57.671,36.743z"/><path d="M60,11H46c-0.551,0-1,0.449-1,1v1.201c1.051,0.429,1.655,1.483,2.119,2.309C47.688,16.523,48.01,17,48.496,17   c0.486,0,0.808-0.477,1.378-1.49c0.596-1.059,1.412-2.51,3.122-2.51s2.526,1.45,3.123,2.509C56.688,16.522,57.01,17,57.498,17   c0.487,0,0.81-0.477,1.379-1.49c0.465-0.826,1.07-1.881,2.123-2.309V12C61,11.449,60.551,11,60,11z"/><path d="M54.464,31c-0.677,0-1.314,0.264-1.793,0.743L51,33.414l-1.671-1.671C48.85,31.264,48.213,31,47.536,31   C46.138,31,45,32.138,45,33.536c0,0.677,0.264,1.314,0.743,1.793L51,40.586l5.257-5.257C56.736,34.85,57,34.213,57,33.536   C57,32.138,55.862,31,54.464,31z"/><path d="M53.762,51.077l-0.488,1.951C54.798,53.168,56,54.44,56,56c0,1.654-1.346,3-3,3s-3-1.346-3-3c0-0.352,0.072-0.686,0.184-1   h-2.073C48.044,55.328,48,55.661,48,56c0,2.757,2.243,5,5,5s5-2.243,5-5C58,53.504,56.156,51.447,53.762,51.077z"/><path d="M41.816,55C41.928,55.314,42,55.648,42,56c0,1.654-1.346,3-3,3s-3-1.346-3-3c0-0.352,0.072-0.686,0.184-1h-2.073   C34.044,55.328,34,55.661,34,56c0,2.757,2.243,5,5,5s5-2.243,5-5c0-0.339-0.044-0.672-0.111-1H41.816z"/><path d="M27.816,55C27.928,55.314,28,55.648,28,56c0,1.654-1.346,3-3,3s-3-1.346-3-3c0-0.352,0.072-0.686,0.184-1h-2.073   C20.044,55.328,20,55.661,20,56c0,2.757,2.243,5,5,5s5-2.243,5-5c0-0.339-0.044-0.672-0.111-1H27.816z"/></g><text x="0" y="79" fill="#000000" font-size="5px" font-weight="bold" font-family="'Helvetica Neue', Helvetica, Arial-Unicode, Arial, Sans-serif">Created by Eucalyp</text><text x="0" y="84" fill="#000000" font-size="5px" font-weight="bold" font-family="'Helvetica Neue', Helvetica, Arial-Unicode, Arial, Sans-serif">from the Noun Project</text></svg>