<svg xmlns="http://www.w3.org/2000/svg" xmlns:xlink="http://www.w3.org/1999/xlink" xml:space="preserve" version="1.1" style="shape-rendering:geometricPrecision;text-rendering:geometricPrecision;image-rendering:optimizeQuality;" viewBox="0 0 7.412 7.4" x="0px" y="0px" fill-rule="evenodd" clip-rule="evenodd"><defs><style type="text/css">
   
    .fil0 {fill:black}
   
  </style></defs><g><path class="fil0" d="M0.252 0.872l-0.252 0.1 0.337 1.576 0.262 -0.054 -0.347 -1.622zm6.907 0l0.253 0.1 -0.337 1.576 -0.262 -0.054 0.346 -1.622zm-3.453 5.048l2.123 0 0 -0.265 -2.123 0 -2.123 0 0 0.265 2.123 0zm0 -4.941c0.31,0 0.592,-0.125 0.797,-0.328 0.172,-0.172 0.29,-0.399 0.322,-0.651 -0.372,0.058 -0.745,0.086 -1.119,0.086 -0.374,0 -0.747,-0.028 -1.119,-0.086 0.032,0.252 0.149,0.479 0.322,0.651 0.204,0.203 0.486,0.328 0.797,0.328zm0 4.443l2.123 0 0 -3.134 0.753 0.157 0.358 -1.66 -1.884 -0.757c-0.038,0.305 -0.18,0.58 -0.39,0.788 -0.246,0.245 -0.586,0.397 -0.96,0.397 -0.374,0 -0.714,-0.152 -0.961,-0.397 -0.209,-0.208 -0.351,-0.483 -0.39,-0.788l-1.883 0.757 0.357 1.66 0.754 -0.157 0 3.134 2.123 0z"/></g><text x="0" y="20.92" fill="#000000" font-size="5px" font-weight="bold" font-family="'Helvetica Neue', Helvetica, Arial-Unicode, Arial, Sans-serif">Created by Deemak Daksina</text><text x="0" y="25.92" fill="#000000" font-size="5px" font-weight="bold" font-family="'Helvetica Neue', Helvetica, Arial-Unicode, Arial, Sans-serif">from the Noun Project</text></svg>