<svg height='100px' width='100px'  fill="#000000" version="1.1" xmlns:rdf="http://www.w3.org/1999/02/22-rdf-syntax-ns#" xmlns:dc="http://purl.org/dc/elements/1.1/" xmlns:cc="http://creativecommons.org/ns#" xmlns:svg="http://www.w3.org/2000/svg" xmlns="http://www.w3.org/2000/svg" xmlns:xlink="http://www.w3.org/1999/xlink" x="0px" y="0px" viewBox="-0.001 0 97.331 100" enable-background="new -0.001 0 97.331 100" xml:space="preserve"><path d="M97.269,55.907c-0.509-2.957-1.255-5.225-2.218-6.745c-0.827-8.908-3.683-10.534-10.113-11.504
	c2.081-4.148,4.14-8.509,5.367-13.916c1.908-8.411,1.688-16.831-0.511-19.584c-0.553-0.693-1.217-1.045-1.972-1.045
	c-2.177,0-4.848,2.973-7.953,8.834C79.087,5.37,77.213,0,74.123,0c-1.948,0-3.988,2.239-6.062,6.655
	c-3.314,7.059-2.79,14.538,1.471,20.56c3.981,4.251,5.42,7.005,3.359,11.985c-5.591,3.034-9.576,6.172-12.882,10.146
	c-2.265-0.201-4.448-0.451-6.562-0.693c-4.134-0.474-8.037-0.92-11.837-0.92c-9.039,0-15.925,2.664-23.029,8.906
	c-4.206,3.696-9.006,8.992-11.07,15.188c-1.221-0.765-2.433-0.905-3.561-0.394c-4.969,2.258-4.283,8.896-3.095,12.464
	c1.322,3.973,6.182,9.863,10.186,9.863c0.734,0,1.654-0.219,2.501-1.004c0.537,0.522,1.096,1.04,1.694,1.552
	c-0.77,1.191-0.979,2.312-0.568,3.109c0.248,0.481,0.835,1.055,2.229,1.055c0.425,0,0.906-0.054,1.372-0.153l27.442-1.123
	c1.012-0.086,2.016,0.061,2.981,0.203c0.717,0.106,1.396,0.207,2.042,0.207c1.719,0,2.774-0.765,3.423-2.48
	c0.346-0.91,0.316-1.775-0.083-2.571c-0.662-1.312-2.336-2.395-4.895-3.201c0.738-0.608,1.558-1.564,2.243-2.778
	c0.557,0.157,1.117,0.338,1.663,0.517c1.536,0.504,3.126,1.025,4.792,1.025c1.809,0,3.489-0.636,5.125-1.927
	c0.339,0.977,0.634,1.963,0.923,2.937c0.758,2.557,1.542,5.201,3.1,7.479c0.381,0.83,4.337,1.833,6.534,1.836
	c0.004,0,0.008,0,0.013,0c0.294,0,0.553-0.022,0.798-0.054c0.004,0,0.007,0.001,0.01,0.001c0.021,0,0.039-0.005,0.059-0.006
	c0.019-0.002,0.042-0.003,0.061-0.006c0.374-0.015,0.727-0.088,1.066-0.168l0.137-0.03c1.238,1.191,2.431,1.82,3.459,1.82
	c0.903,0,1.612-0.501,1.997-1.412c1.532-3.634-0.976-4.736-2.808-5.541c-0.349-0.153-0.687-0.301-0.936-0.428
	c-3.507-2.646-3.801-7.014-3.007-11.12c3.873-4.007,7.301-10.682,10.45-20.229c2.186-0.07,4.441-0.156,6.657-1.611
	c1.089,0.31,2.078,0.1,3.26-0.364c0.221,0.067,0.435,0.102,0.637,0.102c0.499,0,0.938-0.206,1.266-0.597
	C97.302,58.058,97.424,56.812,97.269,55.907z"></path></svg>