<svg xmlns="http://www.w3.org/2000/svg" data-name="Layer 1" viewBox="0 0 48 60" x="0px" y="0px"><title>science solid icons</title><path d="M11.58,29.88c1.29-.35,2.67-.75,4.15-1.21,1.25-.39,2.89-.9,4.54-1.47,1.27-.43,2.56-.88,3.84-1.34l.68-.25.42-.15c1.26-.46,2.58-1,4.05-1.55s3-1.21,4.43-1.81,2.47-1.07,3.56-1.58c-.1-.41-.23-.81-.37-1.21a13.73,13.73,0,1,0-25.8,9.38C11.23,29.1,11.4,29.49,11.58,29.88Z"/><path d="M31.3,28.9c-1.4.58-2.91,1.17-4.64,1.81h0c-1.58.58-3.16,1.12-4.7,1.62-1.91.6-3.39,1-4.79,1.41l-2.23.57a13.71,13.71,0,0,0,22.61-8.22l-1.67.8C34.27,27.65,32.67,28.33,31.3,28.9Z"/><path d="M47.94,15.51a1.89,1.89,0,0,0-.59-.93,2.42,2.42,0,0,0-.76-.42,4.59,4.59,0,0,0-1.35-.26,13,13,0,0,0-2.43.11,22.35,22.35,0,0,0-2.31.42q-1.14.25-2.25.57c-.75.22-1.48.44-2.21.7.77-.08,1.53-.16,2.29-.22s1.53-.13,2.28-.16,1.52-.06,2.26,0a12.36,12.36,0,0,1,2.15.2,3.34,3.34,0,0,1,.86.28.64.64,0,0,1,.22.16c0,.05,0,0,0,0s0,0,0,.07a2.3,2.3,0,0,1-.16.27,4.76,4.76,0,0,1-.63.66,13.93,13.93,0,0,1-1.68,1.27c-.6.41-1.24.78-1.88,1.15a86.52,86.52,0,0,1-8.1,3.93c-1.38.59-2.78,1.17-4.19,1.72s-2.81,1.1-4.24,1.61-2.84,1-4.28,1.51-2.87.94-4.31,1.38a87.92,87.92,0,0,1-8.72,2.25,24.38,24.38,0,0,1-4.32.53,7.65,7.65,0,0,1-1,0,2.12,2.12,0,0,1-.66-.19s0,0,0,0,0,0,0-.07a1.77,1.77,0,0,1,.33-.7,9.29,9.29,0,0,1,1.42-1.56c.55-.51,1.13-1,1.73-1.45s1.21-.92,1.83-1.36S8.37,26,9,25.6c-.72.27-1.43.58-2.14.9s-1.39.66-2.08,1-1.36.77-2,1.21A10.91,10.91,0,0,0,.85,30.3a3.48,3.48,0,0,0-.77,1.29,1.92,1.92,0,0,0,0,1,1.83,1.83,0,0,0,.59.9,3.41,3.41,0,0,0,1.43.69,8.76,8.76,0,0,0,1.29.23,18.35,18.35,0,0,0,2.45,0c.8,0,1.59-.09,2.38-.19,1.56-.17,3.11-.43,4.64-.74s3-.68,4.55-1.07,3-.84,4.47-1.3,2.94-1,4.4-1.5,2.9-1.1,4.34-1.7,2.85-1.22,4.25-1.89S37.66,24.74,39,24s2.72-1.56,4-2.45q1-.66,1.92-1.41a14.36,14.36,0,0,0,1.82-1.69,6.14,6.14,0,0,0,.82-1.11,3.54,3.54,0,0,0,.31-.76A2.05,2.05,0,0,0,47.94,15.51Z"/><text x="0" y="63" fill="#000000" font-size="5px" font-weight="bold" font-family="'Helvetica Neue', Helvetica, Arial-Unicode, Arial, Sans-serif">Created by tulpahn</text><text x="0" y="68" fill="#000000" font-size="5px" font-weight="bold" font-family="'Helvetica Neue', Helvetica, Arial-Unicode, Arial, Sans-serif">from the Noun Project</text></svg>