<svg xmlns="http://www.w3.org/2000/svg" xmlns:xlink="http://www.w3.org/1999/xlink" version="1.1" x="0px" y="0px" viewBox="0 0 100 125" enable-background="new 0 0 100 100" xml:space="preserve"><g><path d="M32.609,61.2c-0.113,0.647-0.313,1.263-0.588,1.837h34.215c-0.275-0.574-0.475-1.189-0.588-1.837H32.609z"/><path d="M13.917,61.2c0,1.016,0.822,1.837,1.838,1.837h3.395c-0.275-0.574-0.476-1.189-0.588-1.837H13.917z"/><path d="M79.107,63.037h5.137c1.016,0,1.838-0.821,1.838-1.837h-6.387C79.582,61.848,79.383,62.463,79.107,63.037z"/><path d="M72.717,53.487c-3.578,0-6.48,2.901-6.48,6.48c0,3.578,2.902,6.479,6.48,6.479c3.58,0,6.48-2.901,6.48-6.479   C79.197,56.389,76.297,53.487,72.717,53.487z M72.717,62.558c-1.432,0-2.59-1.16-2.59-2.591c0-1.432,1.158-2.591,2.59-2.591   s2.592,1.159,2.592,2.591C75.309,61.397,74.148,62.558,72.717,62.558z"/><path d="M25.629,53.487c-3.578,0-6.479,2.901-6.479,6.48c0,3.578,2.901,6.479,6.479,6.479c3.579,0,6.481-2.901,6.481-6.479   C32.111,56.389,29.208,53.487,25.629,53.487z M25.629,62.558c-1.431,0-2.591-1.16-2.591-2.591c0-1.432,1.16-2.591,2.591-2.591   s2.591,1.159,2.591,2.591C28.22,61.397,27.06,62.558,25.629,62.558z"/><path d="M85.014,56.466v-1.541c0-2.907-2.568-4.522-5.266-5.265l-11.17-3.207c-2.648-7.414-12.139-12.9-23.445-12.9   c-11.243,0-17.429,5.426-19.105,12.777l-5.212,1.495c-2.984,0.822-5.83,2.609-5.83,5.829v2.812   c-0.629,0.292-1.068,0.925-1.068,1.663v1.838h1.838h2.658c0.002-3.942,3.195-7.137,7.137-7.137c3.943,0,7.138,3.194,7.139,7.137   h32.813c0-3.942,3.195-7.137,7.137-7.137c3.943,0,7.137,3.194,7.137,7.137h4.469h1.838v-1.838   C86.082,57.391,85.643,56.758,85.014,56.466z M31.318,46.76c0.653-2.592,2.452-4.885,4.986-6.612v6.612H31.318z M38.278,46.76   v-7.77c2.656-1.324,5.862-2.102,9.323-2.102c8.116,0,14.864,4.256,16.282,9.871H38.278z"/></g><text x="0" y="115" fill="#000000" font-size="5px" font-weight="bold" font-family="'Helvetica Neue', Helvetica, Arial-Unicode, Arial, Sans-serif">Created by asianson.design</text><text x="0" y="120" fill="#000000" font-size="5px" font-weight="bold" font-family="'Helvetica Neue', Helvetica, Arial-Unicode, Arial, Sans-serif">from the Noun Project</text></svg>