<svg xmlns="http://www.w3.org/2000/svg" viewBox="0 0 64 80" x="0px" y="0px"><title>Artboard 16</title><g data-name="Layer 1"><path d="M32,14.5c-16,0-29,12-29.94,27.35A4.68,4.68,0,0,0,5.67,49.5H20.33A4.69,4.69,0,0,0,25,44.79a4.75,4.75,0,0,0-1.39-3.35,8.75,8.75,0,0,1,16.79,0,4.7,4.7,0,0,0,3.27,8H58.33a4.7,4.7,0,0,0,3.61-7.67C61.05,26.48,48,14.5,32,14.5Zm0,2c13.76,0,25.23,9.51,27.56,22.21l-.13-.12-.33-.32-.22-.15a2.4,2.4,0,0,0-.38-.23l-.23-.12-.45-.16-.23-.06a1.6,1.6,0,0,0-.23,0C54.53,26.3,44,18.23,32,18.23c-12.43,0-23.23,8.69-25.61,20.38l-.14,0h0a3.29,3.29,0,0,0-.63.07l-.07,0a3.24,3.24,0,0,0-.55.19l-.07,0a4,4,0,0,0-.52.32l0,0C6.46,26.27,18.05,16.5,32,16.5ZM45.2,37.69a14.69,14.69,0,0,0-26.31-.22,4,4,0,0,0-1.9.42,2.81,2.81,0,0,0-.17-.35,16.65,16.65,0,0,1,29.55-1.63A4.84,4.84,0,0,0,45.2,37.69Zm2.87-2.85A18.38,18.38,0,0,0,32,25.7,18.57,18.57,0,0,0,15.44,35.76a5.34,5.34,0,0,0-1.59-.91A20.29,20.29,0,0,1,32,24,20.25,20.25,0,0,1,50,34.52,5.25,5.25,0,0,0,48.07,34.84Zm4.44.33A22.15,22.15,0,0,0,32,22,22.27,22.27,0,0,0,11.79,34.51a5.23,5.23,0,0,0-2.25.56,24.37,24.37,0,0,1,45.82,2.69,3.88,3.88,0,0,0-.36.15A5.16,5.16,0,0,0,52.51,35.17ZM20.33,47.5H5.67A2.7,2.7,0,0,1,3,44.79a2.62,2.62,0,0,1,.78-1.88,2.38,2.38,0,0,1,.83-.61,1,1,0,0,0,.6-.8,1.12,1.12,0,0,1,.1-.31s0-.07.06-.11A.94.94,0,0,1,5.46,41a1.21,1.21,0,0,1,.24-.21l.06,0,.18-.08.17,0a1,1,0,0,1,.58.1,1.18,1.18,0,0,1,.37.34,1,1,0,0,0,1.81-.59v-.87a3,3,0,0,1,3-3.09l.4,0a3.43,3.43,0,0,1,2.57,1.57,2.73,2.73,0,0,1,.43,1.5V40.7a1,1,0,0,0,2,0c0-1.17,1.31-1.23,1.57-1.23a1.81,1.81,0,0,1,.38.05,1.6,1.6,0,0,1,1.18,1.55v.17a1,1,0,0,0,.68.95,2.67,2.67,0,0,1,.79.4h0a2.72,2.72,0,0,1-1.57,4.91ZM32,33.17a10.68,10.68,0,0,0-9.88,6.43s0,0,0,0a3.37,3.37,0,0,0-.36-.61,1.13,1.13,0,0,0-.1-.13,4,4,0,0,0-.44-.48l-.05,0-.34-.25a12.71,12.71,0,0,1,22.65.63,2.87,2.87,0,0,0-1.19.61l-.13.12-.15.15-.09.09A10.68,10.68,0,0,0,32,33.17ZM58.33,47.5H43.67A2.7,2.7,0,0,1,41,44.79a2.74,2.74,0,0,1,1.14-2.21,2.78,2.78,0,0,1,.48-.29,1,1,0,0,0,.59-.79,1,1,0,0,1,.16-.42h0a1.09,1.09,0,0,1,.66-.45h.07a.85.85,0,0,1,.39,0l.1,0a.91.91,0,0,1,.45.35,1,1,0,0,0,.22.23,1,1,0,0,0,1.6-.8v-.87A3,3,0,0,1,48.2,37a3.35,3.35,0,0,1,3.15-.18,3,3,0,0,1,1.95,2.78V40.7a1,1,0,0,0,2,0c0-1,1-1.18,1.36-1.21l.21,0a1.58,1.58,0,0,1,1.56,1.6v.17a1,1,0,0,0,.69.95,2.61,2.61,0,0,1,1.12.7,2.75,2.75,0,0,1,.76,1.9A2.7,2.7,0,0,1,58.33,47.5Z"/></g><text x="0" y="79" fill="#000000" font-size="5px" font-weight="bold" font-family="'Helvetica Neue', Helvetica, Arial-Unicode, Arial, Sans-serif">Created by endang firmansyah</text><text x="0" y="84" fill="#000000" font-size="5px" font-weight="bold" font-family="'Helvetica Neue', Helvetica, Arial-Unicode, Arial, Sans-serif">from the Noun Project</text></svg>