<svg xmlns="http://www.w3.org/2000/svg" xmlns:xlink="http://www.w3.org/1999/xlink" version="1.1" x="0px" y="0px" viewBox="0 0 100 125" enable-background="new 0 0 100 100" xml:space="preserve"><path d="M14.37,90"/><g><path fill="#000000" d="M53.748,80.492l-0.085-0.901l-1.531,1.148C53.094,80.559,53.72,80.495,53.748,80.492z"/><path fill="#000000" d="M39.785,90h0.905c0-0.241,0.013-0.476,0.035-0.705L39.785,90z"/></g><circle cx="123" cy="76" r="8"/><ellipse cx="-83.257" cy="71.001" rx="27.729" ry="27.001"/><polygon points="-92.084,44.798 -138.974,65.768 -125.722,98 -82.257,98 "/><ellipse transform="matrix(0.8951 -0.4459 0.4459 0.8951 -29.2878 -41.8683)" stroke="#FFFFFF" stroke-width="1.8098" stroke-miterlimit="10" cx="-103.619" cy="41.306" rx="31.473" ry="10.876" fill="#000000"/><ellipse transform="matrix(0.8833 -0.4689 0.4689 0.8833 -44.76 -55.0063)" cx="-132.848" cy="62.388" rx="23.19" ry="17.393"/><circle fill="#000000" cx="-139.473" cy="58.245" r="3.313"/><path d="M-140.63,98"/><path d="M-124.066,98l1.656-23.189c0,0-9.938-8.283-9.938,1.656"/><path d="M-137.19,98c0,0,0.058-21.533,15.337-24.845c15.279-3.314,24.448,0,24.448,0L-106.574,98"/><path stroke="#FFFFFF" stroke-width="1.8098" stroke-miterlimit="10" d="M-115.215,98c0-9.107,13.878-10.409,13.878-10.409" fill="#000000"/><circle cx="-58" cy="84" r="8"/><path d="M99.473,63.001C99.473,48.088,87.06,36,71.743,36c-0.843,0-1.675,0.045-2.499,0.118c-3.66,2.689-7.953,5.261-12.611,7.581  c-4.21,2.098-8.465,3.78-12.486,5.002c-0.056-0.652-0.155-1.297-0.301-1.931c3.852-1.164,7.931-2.765,11.98-4.782  c3.213-1.601,6.23-3.327,8.991-5.122c3.63-2.361,6.804-4.845,9.267-7.355c4.054-4.131,5.752-7.699,4.658-9.895  c-0.818-1.643-3.29-2.487-6.96-2.487c-6.444,0-15.732,2.71-24.846,7.251c-7.341,3.657-13.132,7.654-17.101,11.341  c-4.944-0.538-10.552,0.497-15.839,3.303C2.684,45.031-2.835,56.776,1.669,65.261c3.438,6.477,11.724,9.165,20.484,7.41l0.192,0.467  C17.842,80.49,17.81,90,17.81,90h11.468h9.603c0-9.818,14.098-11.254,14.698-11.311l0.085,0.901l0.085,0.901  c-0.028,0.003-0.654,0.066-1.616,0.247c-3.363,0.631-10.848,2.688-11.407,8.556C40.703,89.524,40.69,89.759,40.69,90h7.736h24.317  l-0.005-0.024C87.593,89.464,99.473,77.588,99.473,63.001z M12.214,50.245c0-1.828,1.483-3.313,3.313-3.313  c1.829,0,3.313,1.485,3.313,3.313c0,1.83-1.483,3.314-3.313,3.314C13.697,53.56,12.214,52.075,12.214,50.245z"/><text x="0" y="115" fill="#000000" font-size="5px" font-weight="bold" font-family="'Helvetica Neue', Helvetica, Arial-Unicode, Arial, Sans-serif">Created by Theresa Stoodley</text><text x="0" y="120" fill="#000000" font-size="5px" font-weight="bold" font-family="'Helvetica Neue', Helvetica, Arial-Unicode, Arial, Sans-serif">from the Noun Project</text></svg>