<svg xmlns="http://www.w3.org/2000/svg" xmlns:xlink="http://www.w3.org/1999/xlink" version="1.1" x="0px" y="0px" viewBox="0 0 100 125" style="enable-background:new 0 0 100 100;" xml:space="preserve"><path d="M65.42,84.6c-1.6-2.78-1.16-7.97-2.34-13.8c-4.28-21.15-10.16-31.45-10.16-31.45s-0.86,2.65-1.43,4.08  c0,0-5.65-30.2-16.46-37.28c0,0-7.34,11.72-8.28,21.42c-0.01,0.13,0,0.26,0.04,0.38c0.35,1.18,2,7.27,4.1,10.22  c0,0-2.09-2.47-4.87-5.98c0,0-1.14,8.37,6.73,17.6c0,0-4.44-2.72-5.3-4.15c0,0,0.19,6.51,5.69,15.49  c5.94,9.7,12.88,18.03,30.88,24.37c0,0,4.19,6.14,8.37,8.23c0.43,0.21,1.14,0.2,1.67-0.47C74.05,93.26,69.09,90.98,65.42,84.6z   M60.88,81.75c-0.97-1.17-11.81-14.79-18.96-34.18c-7.33-19.89-7.35-35.62-7.35-37.56c0-0.99,0.67-1.96,0.67-1.96  s0.89,1.06,0.89,2.75c0,2.07,0.13,16.74,7.3,36.22c7.09,19.24,17.87,32.68,18.7,33.73c0.58,0.72,1.58,3.08,1.58,3.08  S61.4,82.37,60.88,81.75z"/><text x="0" y="115" fill="#000000" font-size="5px" font-weight="bold" font-family="'Helvetica Neue', Helvetica, Arial-Unicode, Arial, Sans-serif">Created by Melissa Schmitt</text><text x="0" y="120" fill="#000000" font-size="5px" font-weight="bold" font-family="'Helvetica Neue', Helvetica, Arial-Unicode, Arial, Sans-serif">from the Noun Project</text></svg>