<svg xmlns="http://www.w3.org/2000/svg" data-name="Layer 1" viewBox="0 0 62.9 51.4875" x="0px" y="0px"><title>124</title><g data-name="Layer1 0 FILL"><path d="M81.65,41.6a11.8,11.8,0,0,0,2.1-3.3q-.3-.85-3,.75l-2.6,1.75q.7-.9,2.15-2.9.4-.5-2.3.8l-2.6,1.4L76.6,38a4.9,4.9,0,0,0-4.2,1.2Q71,36.4,70.1,36a.36.36,0,0,0-.4,0v2.5L68.15,36q-1.7-2.5-1.6-1.85.25,2.5.4,3.6l-1.4-2.8q-1.55-2.75-2.2-2.15a11.79,11.79,0,0,0,.2,3.9,11.27,11.27,0,0,0,2.5,5.55,1,1,0,0,1,.3.35,10.13,10.13,0,0,0,1,1,12.38,12.38,0,0,0,1.7,1.25,12.38,12.38,0,0,1-1.7-1.25,7.12,7.12,0,0,1-4,6,10.08,10.08,0,0,1-3.6,1.15q-9.2.4-13.1-3.2A6.69,6.69,0,0,1,44.85,45l-.3-1.15q-.1-9-4.85-11.7a7.35,7.35,0,0,0-3.25-.95A9.89,9.89,0,0,0,29.6,33.4,23.46,23.46,0,0,0,27,35.9a6.21,6.21,0,0,1-2.85,1.9,1,1,0,0,1-.35.8l-.15.15A7.08,7.08,0,0,0,26,42l.2-.1a3.64,3.64,0,0,0,.95-.7q.7-.65.85-.75a.66.66,0,0,1,.35,0,.28.28,0,0,1-.05.35L28,41l-.65.65a2.48,2.48,0,0,1-.65.45l-.35.2.1.1a1.61,1.61,0,0,1,.2.2h0q1.93-.2,2-1.85-.12,1.65-2,1.85h0a24,24,0,0,0,3.1,2.15q.7,1.15-.25,5.65-.45,2.25-1,4.3a9.37,9.37,0,0,0,.75,5.05,8,8,0,0,0,2.35,2.95,11.11,11.11,0,0,0,1.5,1,5.89,5.89,0,0,0,1.7.7,17,17,0,0,1,.35-5.35l.75-2.15-.75,2.15a17,17,0,0,0-.35,5.35q.45,4.65,7.15,6.2a24.08,24.08,0,0,0,6.7.65q.15-.55-1.1-1.2l-1.15-.45a3.74,3.74,0,0,0,1.95.15q.15-.8-.85-1.4l-1-.4q1.2,0,1.2-1-3.92-.93-4.05-4.7v0q.13,3.77,4.05,4.7,7.6-.1,11.45-1.85a19.69,19.69,0,0,0,5.7-3.5,16,16,0,0,0,2.6-3A14.17,14.17,0,0,0,69.05,56q.75-1.47,1.95-4.1a23.47,23.47,0,0,0,1.4-4.15q.22-.88.4-1.85a13.48,13.48,0,0,0,3.45-.65l.4-.1a11.4,11.4,0,0,0,5-3.55M34,36.85A1.2,1.2,0,0,1,32.85,38a1.16,1.16,0,0,1-.85-.35,1.08,1.08,0,0,1-.3-.8,1,1,0,0,1,1.15-1.15,1.08,1.08,0,0,1,.8.3,1.16,1.16,0,0,1,.35.85m-12.15,1a1.08,1.08,0,0,0,.3.8A1.16,1.16,0,0,0,23,39a1.05,1.05,0,0,0,.65-.2l.15-.15a1,1,0,0,0,.35-.8A1.16,1.16,0,0,0,23.8,37a1.08,1.08,0,0,0-.8-.3,1,1,0,0,0-1.15,1.15m7.4,22a10.45,10.45,0,0,0-1,4.15q-3.06-.63-3.35-.2t1.25,1.2q-2-.6-2.2-.1t1.1,1q-1.75,0-2,.2a.94.94,0,0,0,0,.3,21.12,21.12,0,0,0,4.9,1.35q4.45.22,4.8-1.85l.4-2.1a11.11,11.11,0,0,1-1.5-1A8,8,0,0,1,29.25,59.8Z" transform="translate(-21.35 -30.63)"/></g><path d="M47.6,71.82a24.8,24.8,0,0,1-5.77-.69c-4.51-1-7-3.16-7.49-6.29a6.54,6.54,0,0,1-.88-.33l-.27,1.42c-.28,1.65-2.06,2.42-5.32,2.25a21.24,21.24,0,0,1-5.11-1.41.5.5,0,0,1-.26-.44,1.45,1.45,0,0,1,.08-.46.49.49,0,0,1,.08-.16,1.16,1.16,0,0,1,.84-.35.88.88,0,0,1-.06-.64.76.76,0,0,1,.38-.47,1.15,1.15,0,0,1,.51-.14.77.77,0,0,1,.1-.63c.28-.44.94-.61,3.34-.15a10.67,10.67,0,0,1,.92-3.56A10.16,10.16,0,0,1,28,54.7c.41-1.44.76-2.87,1.06-4.35.73-3.46.57-4.73.36-5.19a23.47,23.47,0,0,1-3-2.12l-.23-.2a.55.55,0,0,1-.23-.33.5.5,0,0,1-.28-.13,8.62,8.62,0,0,1-2.32-3A1.73,1.73,0,0,1,21.8,39a1.57,1.57,0,0,1-.45-1.15,1.75,1.75,0,0,1,.42-1.18,1.74,1.74,0,0,1,2.38,0,1.68,1.68,0,0,1,.38.56,7.54,7.54,0,0,0,2.12-1.61A24,24,0,0,1,29.28,33a10.42,10.42,0,0,1,7.2-2.37,7.89,7.89,0,0,1,3.47,1c3.31,1.92,5,6,5.1,12.07l.29,1.09a6.24,6.24,0,0,0,1.6,2.26c2.49,2.3,6.77,3.32,12.74,3.07a9.62,9.62,0,0,0,3.39-1.09,6.62,6.62,0,0,0,3.78-5.32,11.12,11.12,0,0,1-.87-.85.49.49,0,0,1-.08-.12.49.49,0,0,0-.15-.17l-.08-.08a11.83,11.83,0,0,1-2.61-5.79,12.14,12.14,0,0,1-.2-4.07.5.5,0,0,1,.15-.27.88.88,0,0,1,.74-.23c.45.07,1.06.42,2.23,2.5l.15.3q0-.38-.08-.8a.56.56,0,0,1,.34-.65c.44-.18.71,0,2.17,2.17l.64,1V36a.5.5,0,0,1,.28-.45.84.84,0,0,1,.87.06c.68.32,1.39,1.23,2.22,2.86a5.44,5.44,0,0,1,4.1-.92.5.5,0,0,1,.36.74l-.33.58,1.06-.57c2.35-1.13,2.68-1.16,3-.79a.57.57,0,0,1,0,.74l-.39.54.17-.12c2.06-1.22,2.79-1.21,3.2-1.06a.91.91,0,0,1,.55.56.5.5,0,0,1,0,.33A12.13,12.13,0,0,1,82,41.92a12,12,0,0,1-5.22,3.7l-.42.13a14.6,14.6,0,0,1-3.18.62q-.15.78-.33,1.52a24.19,24.19,0,0,1-1.43,4.21q-1.21,2.64-1.93,4.11A15.71,15.71,0,0,1,67.79,59a16.68,16.68,0,0,1-2.65,3,21,21,0,0,1-5.84,3.59c-2.54,1.14-6.31,1.76-11.22,1.86a1.34,1.34,0,0,1-.28.52c1,.66,1.13,1.38,1,1.88a.5.5,0,0,1-.21.32,1.2,1.2,0,0,1,.5,1.22.5.5,0,0,1-.46.37ZM35.3,64.4c.28,2.89,2.49,4.77,6.77,5.76a23.58,23.58,0,0,0,5.73.66,4.71,4.71,0,0,0-.47-.28l-1.08-.43a.5.5,0,0,1,.36-.93,3,3,0,0,0,1.22.18,1.41,1.41,0,0,0-.57-.53l-1-.36a.5.5,0,0,1,.18-1,.86.86,0,0,0,.59-.15,5,5,0,0,1-3.94-5v-2a.5.5,0,1,1,1,0v2c.08,2.24,1.26,3.62,3.61,4.2,4.95-.07,8.71-.67,11.19-1.78a20.08,20.08,0,0,0,5.56-3.41A16.13,16.13,0,0,0,67,58.44a15.06,15.06,0,0,0,1.65-2.66q.72-1.47,1.92-4.09a23.26,23.26,0,0,0,1.37-4q.22-.89.39-1.84a.5.5,0,0,1,.46-.41,13.8,13.8,0,0,0,3.33-.6l.41-.13a11,11,0,0,0,4.76-3.39,13.21,13.21,0,0,0,1.87-2.79,7.4,7.4,0,0,0-2.13,1l-2.58,1.73a.5.5,0,0,1-.67-.72q.47-.61,1.3-1.74l-.84.4-2.58,1.39a.5.5,0,0,1-.67-.69l.81-1.42a4.24,4.24,0,0,0-3,1.14.5.5,0,0,1-.79-.15,9.13,9.13,0,0,0-1.75-2.76v1.79a.5.5,0,0,1-.36.48.51.51,0,0,1-.56-.22l-1.55-2.5-.54-.77c.1,1,.19,1.68.25,2.19a.5.5,0,0,1-.94.29l-1.4-2.8a7.15,7.15,0,0,0-1.32-1.86,13.58,13.58,0,0,0,.26,3.3,10.84,10.84,0,0,0,2.36,5.27,1.48,1.48,0,0,1,.36.42,10.48,10.48,0,0,0,.94.88h0a11.85,11.85,0,0,0,1.61,1.17.5.5,0,0,1-.52.85c-.36-.22-.71-.46-1-.71a7.65,7.65,0,0,1-4.21,5.47,10.62,10.62,0,0,1-3.78,1.2c-6.28.27-10.81-.85-13.5-3.33a7.21,7.21,0,0,1-1.88-2.68l-.32-1.21a.51.51,0,0,1,0-.12c-.06-5.75-1.61-9.54-4.6-11.27a6.89,6.89,0,0,0-3-.88,9.45,9.45,0,0,0-6.51,2.14,23.09,23.09,0,0,0-2.53,2.44,7.57,7.57,0,0,1-2.77,2,1.47,1.47,0,0,1-.39.7,7.38,7.38,0,0,0,2.12,2.73.5.5,0,0,1,.15.26.47.47,0,0,1,.19.07l.15.11.07.06c1.17-.17,1.37-.82,1.41-1.36a.49.49,0,0,1,.53-.46.5.5,0,0,1,.46.53,2.26,2.26,0,0,1-1.45,2.07A21.19,21.19,0,0,0,30,44.37a.5.5,0,0,1,.18.17c.34.57.7,1.81-.19,6-.3,1.5-.66,3-1.06,4.34a9,9,0,0,0,.72,4.72h0a7.57,7.57,0,0,0,2.21,2.74,13,13,0,0,0,1.44,1,7.08,7.08,0,0,0,.9.42A17.58,17.58,0,0,1,34.66,59l.77-2.2a.5.5,0,0,1,.94.33l-.75,2.15A16.59,16.59,0,0,0,35.3,64.4Zm-11,1.94c.86.27,2.08.56,3.65.87,2.6.13,4-.36,4.21-1.44L32.54,64a14.63,14.63,0,0,1-1.25-.88,8.81,8.81,0,0,1-2-2.21A15.14,15.14,0,0,0,28.7,64a.5.5,0,0,1-.2.35.49.49,0,0,1-.4.08,14.61,14.61,0,0,0-2.55-.36,5.54,5.54,0,0,0,.76.42.5.5,0,0,1-.35.93,7.18,7.18,0,0,0-1.33-.29,3.74,3.74,0,0,0,.54.24.5.5,0,0,1,.32.56.48.48,0,0,1-.5.41ZM23,37.15a.76.76,0,0,0-.52.18.8.8,0,0,0-.13.47.58.58,0,0,0,.15.45.69.69,0,0,0,.83.11l.08-.08a.57.57,0,0,0,.23-.48.66.66,0,0,0-.2-.5A.57.57,0,0,0,23,37.15Zm56.89.46h0ZM67,34h0Z" transform="translate(-21.35 -30.63)"/><text x="0" y="56.19" fill="#000000" font-size="5px" font-weight="bold" font-family="'Helvetica Neue', Helvetica, Arial-Unicode, Arial, Sans-serif">Created by cinnamon stick</text><text x="0" y="61.19" fill="#000000" font-size="5px" font-weight="bold" font-family="'Helvetica Neue', Helvetica, Arial-Unicode, Arial, Sans-serif">from the Noun Project</text></svg>