<svg xmlns="http://www.w3.org/2000/svg" xmlns:xlink="http://www.w3.org/1999/xlink" version="1.1" x="0px" y="0px" viewBox="0 0 60 75" style="enable-background:new 0 0 60 60;" xml:space="preserve"><path d="M44.9199829,24.8950195h-0.2199707c-0.9299927-5.6500244-5.9000244-9.9400024-11.710022-9.9400024  c-4.5499878,0-8.6199951,2.539978-10.6199951,6.5499878c-0.8200073-0.2399902-1.6699829-0.3699951-2.5299683-0.3699951  c-4.8500366,0-8.7900391,3.9400024-8.7900391,8.789978c0,0.1799927,0.0100098,0.3800049,0.0200195,0.5700073  C7.6300049,31.0950317,5,34.1350098,5,37.7050171c0,4.0499878,3.2900391,7.3399658,7.3300171,7.3399658h32.5899658  C50.4800415,45.0449829,55,40.5250244,55,34.9650269C55,29.414978,50.4800415,24.8950195,44.9199829,24.8950195z"/><text x="0" y="75" fill="#000000" font-size="5px" font-weight="bold" font-family="'Helvetica Neue', Helvetica, Arial-Unicode, Arial, Sans-serif">Created by Vectorstall</text><text x="0" y="80" fill="#000000" font-size="5px" font-weight="bold" font-family="'Helvetica Neue', Helvetica, Arial-Unicode, Arial, Sans-serif">from the Noun Project</text></svg>