<svg xmlns="http://www.w3.org/2000/svg" xmlns:xlink="http://www.w3.org/1999/xlink" version="1.1" x="0px" y="0px" viewBox="0 0 100 125" style="enable-background:new 0 0 100 100;" xml:space="preserve"><g><path d="M47.2,44.4v1.8c0,0.5-0.4,0.9-0.9,0.9h-1.8c-0.8,0-1.5,0.7-1.5,1.5v2.5c0,0.8,0.7,1.5,1.5,1.5h1.8c0.5,0,0.9,0.4,0.9,0.9   v1.8c0,0.8,0.7,1.5,1.5,1.5h2.5c0.8,0,1.5-0.7,1.5-1.5v-1.8c0-0.5,0.4-0.9,0.9-0.9h1.8c0.8,0,1.5-0.7,1.5-1.5v-2.5   c0-0.8-0.7-1.5-1.5-1.5h-1.8c-0.5,0-0.9-0.4-0.9-0.9v-1.8c0-0.8-0.7-1.5-1.5-1.5h-2.5C47.9,42.9,47.2,43.6,47.2,44.4z"/><path d="M84.8,15.2c-6.5-6.5-17-6.5-23.5,0L15.2,61.3c-6.5,6.5-6.5,17,0,23.5s17,6.5,23.5,0l46.1-46.1   C91.3,32.2,91.3,21.7,84.8,15.2z M50,65.4L34.6,50L50,34.6L65.4,50L50,65.4z"/></g><text x="0" y="115" fill="#000000" font-size="5px" font-weight="bold" font-family="'Helvetica Neue', Helvetica, Arial-Unicode, Arial, Sans-serif">Created by Nuttapon Pohnprompratahn</text><text x="0" y="120" fill="#000000" font-size="5px" font-weight="bold" font-family="'Helvetica Neue', Helvetica, Arial-Unicode, Arial, Sans-serif">from the Noun Project</text></svg>