<svg xmlns="http://www.w3.org/2000/svg" xmlns:xlink="http://www.w3.org/1999/xlink" version="1.1" x="0px" y="0px" viewBox="0 0 1000 1250" enable-background="new 0 0 1000 1000" xml:space="preserve"><path d="M511.1,461c-1.9,1.8-2.2,5.3-3.4,7.9c-1.8,3.8-3.7,7.5-5.8,11.8c0.9-0.2,1.6-0.2,2.1-0.5c29.7-22,63.6-34.3,99.2-42.5  c39.8-9.2,79.7-11.7,119.7-6.8c3.6,0.4,7.3,0.9,10.7,1.6C757,438,787,449,795,472c6,16-17,26-31,32.8c-3.7,0.7-7.4,1.5-11.1,2.4  c-33,7.8-63.7,22.4-79.6,54.7c-1.7,2.7-3.3,5.5-4.8,8.4c-1.5,2.9-2.8,5.9-4.1,9.1C657,603,630,626,604,615c-13-5-22-18-31.6-28.3  c-4-4.1-7.9-8.2-12-12.2c-13.3-13-26.9-25.7-40.4-38.5c-0.3,0.3-0.7,0.7-1,1c4,4,8,7.9,11.9,11.9c12.2,12.5,24.3,25.1,36.5,37.6  c4.1,4.2,8.1,8.3,12.2,12.3c16.5,14.2,37.5,28.2,36,52.9c-0.4,6.7-2.4,13.3-6.2,19.1c-6.8,10.3-16.5,14.6-28.8,13.3  c-2.8-0.3-5.6-0.9-8.4-1.4c-0.6,6.6-0.7,13-1.7,19.2c-2.9,16.4-13.9,28.3-27.9,30.1c-10.7,1.4-20.4-2.2-28.6-8.6  c-8-6.2-15.2-13.5-23.3-20.7c-0.8,0.4-2.4,1.4-4,2.3c-9,5.2-18.3,6.4-27.5,1c-9.5-5.6-15.2-14.3-13.9-25.4c1.4-11.4,3.5-22.9,7-33.8  c9.4-29.7,20.2-59,29.4-88.8c4.1-13.3,5.8-27.3,8.6-41c-0.9-0.2-1.7-0.5-2.6-0.7c-13.5,33.4-27,66.9-40.5,100.3  c-0.8-0.3-1.7-0.6-2.5-0.9c9.5-34.6,25.4-67.2,34.6-103.5c-2,2.3-3.2,3.6-4.2,4.9c-1,1.4-2,2.9-2.9,4.3  c-14.7,22.6-24.9,47.3-34.9,72.2c-8.1,20.2-17,40-25.9,59.9c-1.8,4-4.6,7.6-7.3,11.1c-6.9,8.9-16.2,12.4-27.1,10.6  c-10.9-1.8-17.5-9-20.8-19.4c-0.5-1.5-0.9-2.9-1.4-4.7c-7.1,0.5-14.1,1.3-21.1,1.5c-9.7,0.2-19.2-1.1-27.9-5.9  c-14.2-7.9-20.5-22.6-14.6-37.8c3.5-9.1,9.4-17.4,14.4-26.5c0.1,0.1-0.9-0.7-2-1.3c-18.1-10.5-22.8-28.6-11.4-46.3  c8.9-13.9,21.6-20.1,38.5-19.8c16.8,0.2,33.7-1.9,50.6-2.9c20.4-1.2,40.7-2.3,61.1-3.5c1.9-0.1,3.8-0.4,5.7-1.5  c-2.9,0.1-5.9,0.2-8.8,0.4c-27.5,1.7-54.9,3.5-82.4,5.2c-6.9,0.4-13.8,0.7-20.8,0.5c-2.6-0.1-5.1-0.4-7.4-0.9  c-2.3-0.5-4.5-1.2-6.5-2.1C309,504,306,489,309,476c4-22,4-43-0.6-63.6c-0.2-3-0.4-6-0.7-8.9c-1.3-17.9-4.5-35.9-7-53  c-1.3-3.2-2.9-6.3-4.6-9.4c-5.2-9.2-11.7-17.8-19.2-26.1c-3-5-6-10-6.6-16.4c-0.5-2.7-0.8-5.5-0.9-8.4c0-2.8,0.2-5.7,0.8-8.6  c2.3-11.3,9.6-17.4,21.1-17.4c14.2,0,26.8,5.4,38.8,12.1c69.9,39.2,121.2,95.3,152.2,169.5c4.2,10,6.8,20.7,10.2,31.4  c1.2-4.6,2-9.2,3.7-13.5"/><path d="M342.6,297.3c-6.1-4-13.6-6.2-20.8-8c-2.5-0.6-7,1.7-8.5,4c-1.3,2-0.4,6.6,1.1,8.8c2.7,3.8,6.5,7,10.2,10  c11.7,9.4,24.1,18,35.2,28c8.6,7.9,15.7,17.5,23.4,26.4c-0.5,0.5-1.1,1-1.6,1.4c-5.1-4.8-9.7-10.3-15.4-14.4  c-7.3-5.2-15-10.1-23.2-13.4c-6.6-2.7-11.2,1.7-9.8,8.9c3.9,20.7,9.7,40.5,28.4,53.7c5.5,3.9,10.1,8.8,15.2,13.3  c-6.5-2.7-12.1-6.3-18.1-9.3c-11.1-5.6-17-1.5-16.1,11c0.1,1.9,0.7,3.8,1.1,5.7c1.8,9,7.9,14.5,15.6,18.8c-1.9-0.2-3.5-0.8-5.2-1.4  c-8.8-3.1-12-1.3-13.9,7.8c-3.5,16.8,4.1,33.9,19.3,40.5c6.7,2.9,14.5,3.5,21.9,4.3c9.7,1.1,19.6,1.1,29.4,2.1"/><path d="M482.7,476.1"/><path d="M335.2,526.8c-7.5,1.6-11.6,6-12.4,12.7c-0.8,7.5,3,14.7,9.2,17.8c9.1,4.5,18.6,4.3,28.3,2.8c4.5-0.7,8.9-1.5,13.3-2.3  c0.1,0.5,0.2,0.9,0.4,1.4c-3.7,1.3-7.4,2.6-11,4c-9.5,3.8-19.3,6.8-28.2,11.6c-10,5.5-11.4,16.7-4.5,25.8  c12.3,16.2,32.9,18.4,47.9,5c1.9-1.7,3.6-3.5,5.3-5.3c3.3-3.4,6.5-6.9,9.7-10.4c0.3,0.2,0.6,0.5,0.9,0.7c-2.5,3.7-5.1,7.4-7.5,11.2  c-3.8,5.8-7.9,11.4-11.1,17.5c-3.7,7.1-1.8,12.9,4.6,17.7c7.6,5.8,15,5.2,21.5-1.9c12.5-13.6,21.3-29.6,29.1-46.3  c9.6-20.8,18.5-41.9,32.5-60.4c3.2-4.2,5.5-9.1,8.2-13.7c-0.8-0.5-1.5-1-2.3-1.4"/><path d="M420.7,520.6c-0.1-0.3-0.1-0.6-0.2-0.9"/><path fill="#000000" d="M481.3,497.2c1-14-0.6-28-4.6-41.4c-2.3-7.5-4.7-14.8-8.1-21.7c-23.4-48.5-58.3-86.7-100.1-118.5  c-2.8-2.1-5.6-4.2-8.4-6.2c-13-8.3-32-27.3-40-16.3c-15,19,39,36,51.9,60c1.9,2.2,3.7,4.5,5.6,6.8s3.8,4.5,5.7,6.7  c-1,0.9-0.6,0.5-1.5,1.5c-2.6-2.4-5-5-7.5-7.5C365,354,358,340,346,347c-14,8-12,29-4,42c7,10,18,13,27.1,20.3  c2.7,2.2,5.1,4.5,7.7,6.8c-3.2-1.3-6.3-2.9-9.5-4.4C359,407,348,401,342,409c-1.3,2-1.8,4.2-1.9,6.4C340,427,350,436,359,442  c-5,1-10-6-13-1c-10,15-4,40,13.6,48c3.3,1.5,7,2.3,10.7,2.9c3.7,0.6,7.5,1,11.2,1.4c9.7,1.1,19.6,1.1,29.4,2.1L481.3,497.2  L481.3,497.2z"/><path fill="#000000" d="M335.2,526.8c-7.5,1.6-11.6,6-12.4,12.7c-0.8,7.5,3,14.7,9.2,17.8c9.1,4.5,18.6,4.3,28.3,2.8  c4.5-0.7,8.9-1.5,13.3-2.3c0.1,0.5,0.2,0.9,0.4,1.4c-3.7,1.3-7.4,2.6-11,4c-9.5,3.8-19.3,6.8-28.2,11.6c-10,5.5-11.4,16.7-4.5,25.8  c12.3,16.2,32.9,18.4,47.9,5c1.9-1.7,3.6-3.5,5.3-5.3c3.3-3.4,6.5-6.9,9.7-10.4c0.3,0.2,0.6,0.5,0.9,0.7c-2.5,3.7-5.1,7.4-7.5,11.2  c-3.8,5.8-7.9,11.4-11.1,17.5c-3.7,7.1-1.8,12.9,4.6,17.7c7.6,5.8,15,5.2,21.5-1.9c12.5-13.6,21.3-29.6,29.1-46.3  c9.6-20.8,18.5-41.9,32.5-60.4c3.2-4.2,5.5-9.1,8.2-13.7L335.2,526.8z"/><path d="M550.9,548.2c8,5.7,15.4,12.2,23.5,17.8c3.1,2.1,6.1,4.4,9.3,6.3C592,579,603,580,613,577c11-4,25-13,24.3-26.8  c-0.8-2.3-3.3-4-7.6-5.8c-1.6-0.6-3.2-1.2-4.8-2.3c8.6,1.8,16.8,1.7,24.1-3.8c1.5-1.2,3.2-2.2,4.5-3.6c8.9-8.8,7.2-15.7-4.9-18.8  c-6.5-1.7-13.1-2.7-19.8-4.9c6.7,0,13.5-0.7,20.2,0c7.6,0.8,14.5,0.1,21.1-1.7c3.3-0.9,6.5-2,9.5-3.4c9.3-4.9,17.3-11.9,26.1-16.6  c2.9-2.2,4.2-4.9,4-7.4c-0.2-2.4-2.1-4.6-5.4-5.8c-8.4-2.9-17.4-4.4-26.3-5.3c-6.9-0.7-14,0.4-21.1,0.7c-0.1-0.7-0.2-1.4-0.3-2.1  c11.7-1.5,23.3-4.2,35-4.4c7.5-0.1,15,0.2,22.5,0.7c2.5,0.2,5,0.3,7.5,0.5C732,466,746,473,751,464s-9-18-18.8-19.6"/><path d="M495.5,523.3c-0.9-0.1-1.8-0.3-2.7-0.4c-1,5.2-2.5,10.4-2.9,15.7c-1.7,23.1-9,44.8-15.4,66.8c-5.2,17.6-9.1,35.4-8.6,54  c0.2,9.7,5.4,15,14.9,15.6c7.9,0.6,13.2-2.6,15.1-10.3c1.6-6.7,2.2-13.6,3.2-20.5c0.6-4.4,1.1-8.9,1.7-13.4c0.4,0,0.8,0,1.2,0.1  c0.1,4.7,0.3,9.5,0.4,14.2c0.1,2.5,0.2,5,0.5,7.5c2.5,20,19.4,31.9,39.3,27.8c11.2-2.3,17.6-11.6,13.6-22.4  c-3.4-9.5-8.9-18.3-13.5-27.3c-1.8-3.5-3.7-6.9-5.6-10.3c0.4-0.3,0.8-0.5,1.2-0.8c2.8,3.5,5.6,7.1,8.5,10.5  c6.3,7.5,13.3,13.9,23.1,16.5c3.3,0.9,6.9,0.6,10.2-0.7c3.3-1.3,6.3-3.6,8.4-6.7c4.9-5.2,1.9-13.2-1-17.7"/><path fill="#000000" d="M496.8,503c8.5-11.1,18.9-20.7,30.8-28.1c6.6-4.1,13.3-8,20.4-11c52.9-22.5,107.9-27.5,163.9-22.2  c3.5,0.3,7,0.7,10.5,1.1C735,443,756,451,750,464c-4,8-18,2-28.4,2.2c-2.5-0.2-5-0.3-7.5-0.5c-7.5-0.5-15-0.9-22.5-0.7  c-11.7,0.2-23.3,2.8-35,4.4c0.1,1.4,0.1,0.8,0.2,2.1c7.1-0.3,14.2-1.4,21.1-0.7c8.9,0.9,17.9,2.3,26.3,5.3c3.4,1.2,5.2,3.4,5.4,5.8  c0.2,2.4-1.1,5.1-4,7.4C697,494,689,501,679.7,505.9c-3.1,1.4-6.3,2.5-9.5,3.4c-6.6,1.8-13.5,2.5-21.1,1.7c-6.7-0.7-13.5,0-20.2,0  c6.6,2.2,13.3,3.2,19.8,4.9c12,3.1,13.7,10.1,4.9,18.8c-1.4,1.3-3,2.4-4.5,3.6c-7.3,5.6-15.5,5.7-24.1,3.8c1.6,1.1,3.2,1.7,4.8,2.3  c4.3,1.7,6.8,3.5,7.6,5.8C635,574,602,586,583.7,572.3c-3.2-2-6.3-4.2-9.3-6.3c-8-5.6-15.5-12.1-23.5-17.8L496.8,503L496.8,503z"/><path fill="#000000" d="M587,621.5c3,4.5,6,12.5,1,17.8c-2.1,3.1-5.1,5.4-8.4,6.7c-3.3,1.3-6.9,1.6-10.2,0.7  c-9.8-2.6-16.8-9-23.1-16.5c-2.9-3.5-5.7-7-8.5-10.5c-0.4,0.3-0.8,0.5-1.2,0.8c1.9,3.4,3.8,6.8,5.6,10.3  c4.6,9.1,10.1,17.8,13.5,27.3c3.9,10.8-2.5,20.1-13.6,22.4c-19.9,4.1-36.8-7.9-39.3-27.8c-0.3-2.5-0.4-5-0.5-7.5  c-0.2-4.7-0.3-9.5-0.4-14.2c-0.4,0-0.8,0-1.2-0.1c-0.6,4.5-1.1,8.9-1.7,13.4c-1,6.8-1.5,13.8-3.2,20.5c-1.9,7.7-7.2,10.9-15.1,10.3  c-9.5-0.7-14.7-6-14.9-15.6c-0.5-18.5,3.5-36.4,8.6-54c6.4-22,13.7-43.7,15.4-66.8c0.4-5.3,1.9-10.4,2.9-15.7  c0,0,41.9,43.9,69.9,73.1c7,7.3,13.1,13.7,17.4,18.2C584.4,618.8,587,621.5,587,621.5z"/><path fill="#000000" d="M420.5,519.7c0.1,0.3,0.1,0.6,0.2,0.9"/><ellipse transform="matrix(0.9359 0.3521 -0.3521 0.9359 195.097 -147.7702)" cx="503.7" cy="462.4" rx="7.6" ry="16.7"/><path d="M497.9,460.2c0,0,8.6-164.1-19.2-154.7s9.3,21,9.3,21S501,446.3,497.9,460.2z"/><path d="M511.2,465.2c0,0,101.7-129.1,116.4-103.7c14.7,25.4-20.8,9.7-20.8,9.7S518.1,452.7,511.2,465.2z"/><text x="0" y="1015" fill="#000000" font-size="5px" font-weight="bold" font-family="'Helvetica Neue', Helvetica, Arial-Unicode, Arial, Sans-serif">Created by leo-graph.com</text><text x="0" y="1020" fill="#000000" font-size="5px" font-weight="bold" font-family="'Helvetica Neue', Helvetica, Arial-Unicode, Arial, Sans-serif">from the Noun Project</text></svg>