<svg xmlns="http://www.w3.org/2000/svg" xmlns:xlink="http://www.w3.org/1999/xlink" xml:space="preserve" version="1.0" style="shape-rendering:geometricPrecision;text-rendering:geometricPrecision;image-rendering:optimizeQuality;" viewBox="0 0 10000 12500" x="0px" y="0px" fill-rule="evenodd" clip-rule="evenodd"><defs><style type="text/css">
   
    .fil0 {fill:black;fill-rule:nonzero}
   
  </style></defs><g><path class="fil0" d="M6992 4628c527,83 1063,540 1063,1101 0,190 -50,377 -143,543 495,158 874,596 874,1128 0,696 -628,1194 -1296,1194l-4980 0c-668,0 -1296,-498 -1296,-1194 0,-532 380,-970 874,-1128 -93,-166 -143,-353 -143,-543 0,-544 387,-981 917,-1073 -161,-325 -141,-796 65,-1306 323,-796 993,-1471 1712,-1928 70,-45 160,12 153,92 -5,639 37,1051 176,1291 264,453 1059,80 1670,636 335,305 491,747 354,1187z"/></g><text x="0" y="10015" fill="#000000" font-size="5px" font-weight="bold" font-family="'Helvetica Neue', Helvetica, Arial-Unicode, Arial, Sans-serif">Created by Ragal Kartidev</text><text x="0" y="10020" fill="#000000" font-size="5px" font-weight="bold" font-family="'Helvetica Neue', Helvetica, Arial-Unicode, Arial, Sans-serif">from the Noun Project</text></svg>