<svg xmlns="http://www.w3.org/2000/svg" xmlns:xlink="http://www.w3.org/1999/xlink" version="1.1" x="0px" y="0px" viewBox="0 0 100 125" style="enable-background:new 0 0 100 100;" xml:space="preserve"><g><path d="M20.8,89.1l2,4.2l1.1-6.5l1.4,1.2l0.9-6C26.3,82,22.4,84.6,20.8,89.1z"/><path d="M73.5,83.3l-1.4,0.1c0,0-1.7-4.9-1.7-7c0-2.1,0-14.4,0.7-17.2s2.3-5.7,2.4-7.3c0,0-2.3,2-4,3.4c-0.7,0.5-1.1,1.3-1.2,2.2   c-0.3,2.1-0.8,6.5-1.3,12.3v6.3l0.6,5.8c0,0,3.6,0.9,3.4,4.7h4C75,86.7,76.3,84.4,73.5,83.3z"/><path d="M85.3,13.4c1.4-1.4,0-4.5,0-4.5S82,11.7,81.5,11c-0.5-0.8,1.7-3.1,1-6.4C81.8,1.2,78.9,1,78.9,1l-4.2,5.5   C74,7.4,73.1,8,72,8.2c-3.5,0.7-5.6,5.2-6.1,6.5c0,0,0,0,0,0S63,17,59.6,19.1c-0.3,0.2,1.2,1.6,4,1.6c0,0,0,0,0,0l0,0   c0,0,2.8-0.3,3.9-0.9c-1.5,1.6-3.4,2.1-4.9,2.3c-1,1.3-2.3,2.7-3.9,4.2c-0.2,0.1-0.4,0.3-0.6,0.5v0c0,0-4.2,2.5-6.8,3.6   c0,0,1,0.2,2.8,0.1c-1.1,0.9-2.1,1.8-3,2.3c-7.5,4.3-17.1,8-26.9,14.2c-9.9,6.2-9,27.2-9,27.2s1.6-1,4.3-6.8   c-0.6-2.3-1.2-5.8-0.7-9.3c0,0,1.1,6.7,2.9,8.8C21.3,70.7,14.8,79,14.8,79c-1.5,8.9-0.6,16.5-0.2,19.1c0.1,0.5,0.5,0.9,1.1,0.9h6.7   c0.7,0,1.3-0.6,1.2-1.2c0-0.3-0.1-0.7-0.3-1.1c-0.6-1.4-3.9-1.9-3.9-1.9v-3.3C19,83,29.5,77.8,33.3,74.2   c3.8-3.6,10.7-16.5,10.7-16.5l-3,8.1c0,0,3.9-3.2,8.9-5.3c5-2.1,7.9-3.7,7.9-3.7c0.5,2.4,1.4,11.3,1.8,16.1c0.2,1.7,0,3.3-0.2,5   c-0.4,2.2,0.5,3.7,0.5,3.7c1.2,7.4,4.5,5,6.5,5.5c1.9,0.5,3.3-0.7,3.1-1.7c-0.2-1-1.2-1.9-3.1-2.4c-1.9-0.5-1.9-3.3-1.2-6.4   s0.3-20.4,2.7-22.4c5.4-4.5,4.3-3,8.3-9.8c1.5-2.5,2.8-5.2,3.7-8.6l0.5,1.3c1.2-2.3,0.7-6.7,0.5-7.6c0.1-1.2,0.2-2.4,0.2-3.8   C81.3,21.2,83.9,14.8,85.3,13.4z M72.1,11.8l0.3-2.1l1.1-0.7C73.5,12,72.1,11.8,72.1,11.8z"/></g><text x="0" y="115" fill="#000000" font-size="5px" font-weight="bold" font-family="'Helvetica Neue', Helvetica, Arial-Unicode, Arial, Sans-serif">Created by parkjisun</text><text x="0" y="120" fill="#000000" font-size="5px" font-weight="bold" font-family="'Helvetica Neue', Helvetica, Arial-Unicode, Arial, Sans-serif">from the Noun Project</text></svg>