<svg xmlns="http://www.w3.org/2000/svg" xmlns:xlink="http://www.w3.org/1999/xlink" version="1.1" x="0px" y="0px" viewBox="0 0 100 125" enable-background="new 0 0 100 100" xml:space="preserve"><g display="none"><rect x="-413" y="-161" display="inline" fill="#000000" stroke="#000000" stroke-width="4" stroke-miterlimit="10" width="1274" height="331"/></g><g><path d="M35.33,42.615c-1.547,0-2.806,1.259-2.806,2.806c0,1.546,1.259,2.805,2.806,2.805s2.806-1.259,2.806-2.805   C38.136,43.873,36.877,42.615,35.33,42.615z"/><path d="M64.67,42.615c-1.547,0-2.806,1.259-2.806,2.806c0,1.546,1.259,2.805,2.806,2.805c1.547,0,2.806-1.259,2.806-2.805   C67.476,43.873,66.217,42.615,64.67,42.615z"/><path d="M50,19.251c-20.884,0-37.874,16.99-37.874,37.874S29.116,95,50,95s37.875-16.991,37.875-37.875S70.884,19.251,50,19.251z    M29.346,45.421c0-3.299,2.685-5.984,5.984-5.984s5.984,2.685,5.984,5.984s-2.685,5.983-5.984,5.983S29.346,48.72,29.346,45.421z    M55.966,81.406c-2.466,0-4.607-1.171-5.962-2.953c-1.343,1.782-3.457,2.953-5.855,2.953c-4.17,0-7.469-3.299-7.469-7.354h3.178   c0,2.302,1.872,4.175,4.175,4.175c2.418,0,4.291-1.873,4.291-4.175V69.82v-1.591c-4.142-0.491-7.285-2.761-7.285-5.483   c0-3.08,4.019-5.585,8.961-5.585s8.961,2.506,8.961,5.585c0,2.722-3.143,4.992-7.285,5.483v1.591v4.232   c0,2.302,1.872,4.175,4.175,4.175c2.418,0,4.291-1.873,4.291-4.175h3.178C63.32,78.108,60.021,81.406,55.966,81.406z M64.67,51.404   c-3.299,0-5.984-2.684-5.984-5.983s2.685-5.984,5.984-5.984c3.299,0,5.984,2.685,5.984,5.984S67.969,51.404,64.67,51.404z"/><path d="M32.883,18.082L5.125,5l3.49,41.862C11.818,33.95,20.919,23.348,32.883,18.082z"/><path d="M67.117,18.082c11.964,5.266,21.064,15.867,24.268,28.778L94.875,5L67.117,18.082z"/></g><text x="0" y="115" fill="#000000" font-size="5px" font-weight="bold" font-family="'Helvetica Neue', Helvetica, Arial-Unicode, Arial, Sans-serif">Created by Anastasia Latysheva</text><text x="0" y="120" fill="#000000" font-size="5px" font-weight="bold" font-family="'Helvetica Neue', Helvetica, Arial-Unicode, Arial, Sans-serif">from the Noun Project</text></svg>