<svg xmlns="http://www.w3.org/2000/svg" xmlns:xlink="http://www.w3.org/1999/xlink" version="1.1" x="0px" y="0px" viewBox="0 0 100 125" enable-background="new 0 0 100 100" xml:space="preserve"><path d="M91.345,8.655c0,0-30.962-0.072-55.1,24.065c-1.091,1.103-2.083,2.3-2.965,3.576C29,35.955,22.441,36.079,19.097,39.431  C11.269,47.259,8.659,60.307,8.659,60.307L26.914,57.7v5.041l10.345,10.345H42.3l-2.61,18.259c0,0,13.049-2.61,20.876-10.438  c3.349-3.348,3.473-9.902,3.135-14.182c1.276-0.882,2.474-1.874,3.575-2.966C91.414,39.621,91.345,8.655,91.345,8.655L91.345,8.655z   M56.932,36.172c-0.087-3.808,2.931-6.964,6.738-7.051c3.809-0.086,6.965,2.931,7.051,6.739c0.002,0.103,0.002,0.206,0,0.308  c-0.084,3.808-3.239,6.827-7.047,6.743C59.985,42.83,57.015,39.86,56.932,36.172z M29.51,76.572c-3.169,3.169-7.186,1.09-7.186,1.09  s-1.958-4.139,1.089-7.186c0.262-0.263,0.583-0.411,0.89-0.59l-2.121-2.121c-1.107,0.379-2.151,0.979-3.034,1.861  c-3.097,3.098-2.917,14.129-2.917,14.129s11.035,0.176,14.127-2.918c0.883-0.883,1.483-1.928,1.862-3.034l-2.117-2.118  C29.921,75.99,29.772,76.311,29.51,76.572z"/><text x="0" y="115" fill="#000000" font-size="5px" font-weight="bold" font-family="'Helvetica Neue', Helvetica, Arial-Unicode, Arial, Sans-serif">Created by Graphik Designz</text><text x="0" y="120" fill="#000000" font-size="5px" font-weight="bold" font-family="'Helvetica Neue', Helvetica, Arial-Unicode, Arial, Sans-serif">from the Noun Project</text></svg>