<svg xmlns="http://www.w3.org/2000/svg" xmlns:xlink="http://www.w3.org/1999/xlink" xml:space="preserve" version="1.1" style="shape-rendering:geometricPrecision;text-rendering:geometricPrecision;image-rendering:optimizeQuality;" viewBox="0 0 333 416.25" x="0px" y="0px" fill-rule="evenodd" clip-rule="evenodd"><defs><style type="text/css">
   
    .fil0 {fill:black}
   
  </style></defs><g><path class="fil0" d="M167 5c89,0 162,72 162,162 0,89 -73,162 -162,162 -90,0 -162,-73 -162,-162 0,-90 72,-162 162,-162zm0 27c3,0 6,3 6,6 0,4 -3,7 -6,7 -4,0 -7,-3 -7,-7 0,-3 3,-6 7,-6zm-86 49c-3,2 -7,2 -10,0 -2,-3 -2,-7 0,-10 3,-2 7,-2 10,0 2,3 2,7 0,10zm181 181c-3,3 -7,3 -9,0 -3,-3 -3,-7 0,-9 2,-3 6,-3 9,0 3,2 3,6 0,9zm-181 -9c2,2 2,6 0,9 -3,3 -7,3 -10,0 -2,-3 -2,-7 0,-9 3,-3 7,-3 10,0zm181 -182c3,3 3,7 0,10 -3,2 -7,2 -9,0 -3,-3 -3,-7 0,-10 2,-2 6,-2 9,0zm-217 96c0,3 -3,6 -7,6 -3,0 -6,-3 -6,-6 0,-4 3,-7 6,-7 4,0 7,3 7,7zm256 0c0,3 -2,6 -6,6 -4,0 -7,-3 -7,-6 0,-4 3,-7 7,-7 4,0 6,3 6,7zm-134 121c3,0 6,3 6,7 0,4 -3,6 -6,6 -4,0 -7,-2 -7,-6 0,-4 3,-7 7,-7zm-7 -52l0 -51c-5,-2 -10,-6 -12,-12l-75 0c-8,0 -8,-13 0,-13l75 0c3,-8 10,-13 19,-13 11,0 19,9 19,20 0,8 -5,16 -13,18l0 51c0,8 -13,8 -13,0zm-3 -69c0,5 4,9 10,9 5,0 9,-4 9,-9 0,-6 -4,-10 -9,-10 -6,0 -10,4 -10,10z"/></g><text x="0" y="348" fill="#000000" font-size="5px" font-weight="bold" font-family="'Helvetica Neue', Helvetica, Arial-Unicode, Arial, Sans-serif">Created by NOVITA ASTRI</text><text x="0" y="353" fill="#000000" font-size="5px" font-weight="bold" font-family="'Helvetica Neue', Helvetica, Arial-Unicode, Arial, Sans-serif">from the Noun Project</text></svg>