<svg xmlns="http://www.w3.org/2000/svg" xmlns:xlink="http://www.w3.org/1999/xlink" xml:space="preserve" version="1.1" style="shape-rendering:geometricPrecision;text-rendering:geometricPrecision;image-rendering:optimizeQuality;" viewBox="0 0 333 416.25" x="0px" y="0px" fill-rule="evenodd" clip-rule="evenodd"><defs><style type="text/css">
   
    .fil0 {fill:black}
   
  </style></defs><g><path class="fil0" d="M101 162l16 -32 39 -50 24 22 11 -1 39 41 11 5 31 56 24 9 21 41 -300 0 44 -50 40 -41zm123 -13l-56 49 -41 21 -20 21 43 -11 -3 -8 38 -1 -23 -10 39 -25 0 14c0,0 24,-49 23,-50zm-164 67l7 -8 40 -41 16 -33 33 -41 2 14 13 14 7 39 -10 -10 -5 16 -11 1 -16 31 2 -26 -35 40 16 -37 14 -21 -20 15 -18 24 9 -1 -16 19 -23 20 13 -19 -18 4zm119 -107l9 -1 7 18 -17 -11 1 -6z"/></g><text x="0" y="348" fill="#000000" font-size="5px" font-weight="bold" font-family="'Helvetica Neue', Helvetica, Arial-Unicode, Arial, Sans-serif">Created by Diane</text><text x="0" y="353" fill="#000000" font-size="5px" font-weight="bold" font-family="'Helvetica Neue', Helvetica, Arial-Unicode, Arial, Sans-serif">from the Noun Project</text></svg>