<svg xmlns="http://www.w3.org/2000/svg" xmlns:xlink="http://www.w3.org/1999/xlink" version="1.1" x="0px" y="0px" viewBox="0 0 90 112.5" style="enable-background:new 0 0 90 90;" xml:space="preserve"><g><path d="M45,28.38623c2.13,0,3.85999-1.72998,3.85999-3.85999S47.13,20.66626,45,20.66626s-3.85999,1.72998-3.85999,3.85999   c0,0.66998,0.16998,1.28998,0.45996,1.84003C42.26001,27.56622,43.53998,28.38623,45,28.38623z"/><path d="M74.45001,53.82623c-1.35999-4.83997-3.44-9.53998-6.27002-13.92999c-0.02997-0.04999-0.07001-0.08997-0.10999-0.13   c0.02997-0.71997,0.02997-1.38,0.02002-1.96997c0,0,2.14996,1.70001,2.60999-0.45001   c0.45996-2.09003-2.88-27.32001-24.52002-28.90002h-2.35999c-21.64001,1.58002-24.97998,26.81-24.52002,28.90002   c0.47003,2.15002,2.60999,0.45001,2.60999,0.45001c-0.00995,0.65997-0.00995,1.40997,0.03003,2.23999   c-0.03998,0.04999-0.08002,0.08997-0.12,0.15002c-2.83002,4.37994-4.91003,9.08997-6.27002,13.92999   c-1.32001,4.84998-1.82001,9.83997-1.45996,14.65997c0.16998,2.25,0.66998,2.22003,1.09998,0.06   c0.92999-4.60999,2.65997-8.91998,4.96002-12.78998c1.26996-2.08002,2.70996-4.03003,4.26996-5.85004   c0.14001,0.28003,0.30005,0.56,0.46002,0.84003c0,0-0.15997,0.69,1,1.52997c-1.40002,5.10004-3.07001,12.75-3.58002,21.48004   c-3.39996,0.63-5.89996,2.73999-5.89996,5.25c0,3.01001,15.98999,3.01001,15.98999,0c0-1.79004-1.28003-3.38-3.23999-4.37   c0.37-4.27002,1.31-10.99005,3.63-17.01001c0.89996,0.39001,1.85999,0.72998,2.90997,1c0.95001,0.25,1.96997,0.44,3.06,0.58997   c1.54999,0.21002,3.22998,0.30005,5.07001,0.27002h2.35999c1.84003,0.03003,3.52002-0.06,5.07001-0.27002   c1.09003-0.14996,2.10999-0.33997,3.06-0.58997c1.04999-0.27002,2.01001-0.60999,2.91003-1   c2.31995,6.01996,3.25995,12.73999,3.62994,17.01001c-1.95996,0.98999-3.23999,2.57996-3.23999,4.37   c0,3.01001,15.98999,3.01001,15.98999,0c0-2.51001-2.5-4.62-5.89996-5.25c-0.51001-8.73004-2.17999-16.38-3.58002-21.48004   c1.16003-0.83997,1-1.52997,1-1.52997c0.20001-0.34003,0.38-0.67999,0.54999-1.02002c1.53003,1.78003,2.92999,3.70001,4.17999,5.75   c2.31,3.85999,4.03003,8.17999,4.96002,12.79004c0.42999,2.14996,0.92999,2.19,1.09998-0.07001   C76.27002,63.67627,75.77002,58.68622,74.45001,53.82623z M45,15.24628c6.53003,0,11.81,5.28998,11.81,11.81995   c0,1.53003-0.29999,2.98004-0.82001,4.33002c-3.25-0.46997-7-0.73999-10.98999-0.73999c-2.39001,0-4.70001,0.09998-6.85999,0.28003   c-1.44,0.12-2.82001,0.26996-4.12,0.45996C33.48999,30.04626,33.19,28.59625,33.19,27.06622   C33.19,20.53625,38.47998,15.24628,45,15.24628z M45,34.29626c-6.53998,0-12.65997,0.39996-17.90997,1.10999   C30.12,33.62622,37,32.38623,45,32.38623s14.88,1.23999,17.90997,3.02002C57.65997,34.69623,51.53998,34.29626,45,34.29626z"/><path d="M38,29.17627c0.90997,0,1.65002-0.73999,1.65002-1.65002c0-0.33997-0.10004-0.65997-0.28003-0.91998   c-0.29999-0.44-0.79999-0.73004-1.37-0.73004c-0.90997,0-1.65002,0.74005-1.65002,1.65002   C36.34998,28.43628,37.09003,29.17627,38,29.17627z"/><path d="M38,24.25623c0.52002,0,0.94-0.41998,0.94-0.92999c0-0.51996-0.41998-0.94-0.94-0.94s-0.94,0.42004-0.94,0.94   C37.06,23.83624,37.47998,24.25623,38,24.25623z"/></g><text x="0" y="105" fill="#000000" font-size="5px" font-weight="bold" font-family="'Helvetica Neue', Helvetica, Arial-Unicode, Arial, Sans-serif">Created by iconcheese</text><text x="0" y="110" fill="#000000" font-size="5px" font-weight="bold" font-family="'Helvetica Neue', Helvetica, Arial-Unicode, Arial, Sans-serif">from the Noun Project</text></svg>