<svg xmlns="http://www.w3.org/2000/svg" xmlns:xlink="http://www.w3.org/1999/xlink" xml:space="preserve" version="1.1" style="shape-rendering:geometricPrecision;text-rendering:geometricPrecision;image-rendering:optimizeQuality;" viewBox="0 0 496 1108.75" x="0px" y="0px" fill-rule="evenodd" clip-rule="evenodd"><defs><style type="text/css">
   
    .fil0 {fill:black}
   
  </style></defs><g><path class="fil0" d="M97 0l302 0c53,0 97,43 97,97l0 693c0,54 -44,97 -97,97l-302 0c-54,0 -97,-43 -97,-97l0 -693c0,-54 43,-97 97,-97zm3 33l296 0c36,0 66,30 66,66l0 689c0,36 -30,66 -66,66l-296 0c-36,0 -66,-30 -66,-66l0 -689c0,-36 30,-66 66,-66z"/><rect class="fil0" x="197" y="55" width="101.892" height="12.7106" rx="3" ry="6"/><path class="fil0" d="M248 750c56,0 56,81 0,81 -56,0 -56,-81 0,-81z"/></g><g><rect class="fil0" x="59" y="101" width="378" height="610" rx="59" ry="59"/></g><text x="0" y="902" fill="#000000" font-size="5px" font-weight="bold" font-family="'Helvetica Neue', Helvetica, Arial-Unicode, Arial, Sans-serif">Created by REVA</text><text x="0" y="907" fill="#000000" font-size="5px" font-weight="bold" font-family="'Helvetica Neue', Helvetica, Arial-Unicode, Arial, Sans-serif">from the Noun Project</text></svg>