<svg xmlns="http://www.w3.org/2000/svg" xmlns:xlink="http://www.w3.org/1999/xlink" version="1.1" x="0px" y="0px" viewBox="0 0 100 125" enable-background="new 0 0 100 100" xml:space="preserve"><path fill-rule="evenodd" clip-rule="evenodd" d="M71.599,63.535c7.32-9.805,13.273-21.265,13.273-32.59  c0-15.693-9.946-28.417-34.781-28.417c-0.016,0-0.031,0.001-0.048,0.001c-0.005,0-0.01-0.001-0.015-0.001  c-0.009,0-0.019,0.001-0.027,0.001C25.233,2.56,15.127,15.208,15.127,30.882c0,13.62,8.01,26.424,17.512,36.713L45.94,86.656h-2.364  v3h1.401v5.867c0,1.074,0.874,1.949,1.949,1.949h8.678c1.075,0,1.949-0.875,1.949-1.949v-5.867h1.4v-3h-2.659L71.599,63.535z   M52.852,77.691c1.927,0,3.853,0,5.778,0l-5.932,8.963h-3.102l-6.254-8.963c1.523,0,3.048,0,4.571,0  C49.56,77.691,51.206,77.691,52.852,77.691z M73.491,30.794c0,16.372-9.512,33.049-17.255,43.875c-0.829,0-1.657,0-2.485,0  c3.336-11.484,6.99-27.735,6.99-43.725c0-12.072-1.816-22.381-6.135-26.498C68.015,6.445,73.491,17.479,73.491,30.794z   M45.418,4.462c-4.316,4.115-6.159,14.369-6.159,26.42c0,16.959,3.824,32.645,7.599,43.788c-0.474,0-0.946,0-1.42,0  c-8.927-10.531-18.929-26.526-18.929-43.934C26.509,17.453,32.061,6.489,45.418,4.462z"/><text x="0" y="115" fill="#000000" font-size="5px" font-weight="bold" font-family="'Helvetica Neue', Helvetica, Arial-Unicode, Arial, Sans-serif">Created by Nikita Kozin</text><text x="0" y="120" fill="#000000" font-size="5px" font-weight="bold" font-family="'Helvetica Neue', Helvetica, Arial-Unicode, Arial, Sans-serif">from the Noun Project</text></svg>