<svg xmlns="http://www.w3.org/2000/svg" xmlns:xlink="http://www.w3.org/1999/xlink" version="1.1" x="0px" y="0px" viewBox="0 0 50 62.5" enable-background="new 0 0 50 50" xml:space="preserve"><g><path d="M37.2,9.2c-2.1,2.1-5.3,3.7-6.8,5.4c-3.8-1.9-7.9-2.7-11.6-2.5c2-2.6,4.9-4.2,7.9-4.1C30,8,34.1,8.7,37.2,9.2z"/><path d="M27.4,42c-4.7-1.6-9.3-3.5-11.9-6.2c3.7,0.6,7.7,0.3,11.6-1c0.2,1.7,1,3.5,1.9,5.3C29.5,41.2,28.5,42.4,27.4,42z"/><path d="M10.9,20.3c0,0.6-0.5,1-1,1c-0.6,0-1-0.5-1-1c0-0.1,0-0.1,0-0.2c0.1,0.2,0.3,0.3,0.5,0.3c0.4,0,0.7-0.3,0.7-0.7   c0-0.2-0.1-0.3-0.2-0.4C10.5,19.3,10.9,19.8,10.9,20.3z"/><path d="M12.4,15.4c-4,1.5-7.7,4.2-10.9,8.1c0.2,0.1,2.2,2.8,5.5,2.4c0.3,0,0.5,0.1,0.6,0.4c0,0.3-0.1,0.5-0.4,0.6   c-2.3,0.3-4.5-0.7-6-2.4c0.1,0.6,4.6,6.2,11.5,8.4C18.6,25.9,13.8,17.6,12.4,15.4z M9.9,22.3c-1.1,0-1.9-0.9-1.9-1.9   s0.9-1.9,1.9-1.9c1.1,0,1.9,0.9,1.9,1.9S11,22.3,9.9,22.3z"/><path d="M10.9,20.3c0,0.6-0.5,1-1,1c-0.6,0-1-0.5-1-1c0-0.1,0-0.1,0-0.2c0.1,0.2,0.3,0.3,0.5,0.3c0.4,0,0.7-0.3,0.7-0.7   c0-0.2-0.1-0.3-0.2-0.4C10.5,19.3,10.9,19.8,10.9,20.3z"/><path d="M12.4,15.4c-4,1.5-7.7,4.2-10.9,8.1c0.2,0.1,2.2,2.8,5.5,2.4c0.3,0,0.5,0.1,0.6,0.4c0,0.3-0.1,0.5-0.4,0.6   c-2.3,0.3-4.5-0.7-6-2.4c0.1,0.6,4.6,6.2,11.5,8.4C18.6,25.9,13.8,17.6,12.4,15.4z M9.9,22.3c-1.1,0-1.9-0.9-1.9-1.9   s0.9-1.9,1.9-1.9c1.1,0,1.9,0.9,1.9,1.9S11,22.3,9.9,22.3z"/><path d="M40.9,24.8c3.6-0.9,6.7-4.7,8.1-8.4c-4.4-1.6-9.1,0.8-12.1,4c-0.5,0.5-1.2,0.5-1.7,0c-6.2-5.8-14.1-7.5-20.9-5.6   c3.7,6,4.6,13.2,0.2,18.8c6.5,1.5,13.6-0.1,19.7-4.9c0.7-0.5,1.7-0.4,2.2,0.3c4.1,4.8,6.9,6.9,11.6,5.7   C47.2,30.8,44.4,26,40.9,24.8z"/><path d="M10.9,20.3c0,0.6-0.5,1-1,1c-0.6,0-1-0.5-1-1c0-0.1,0-0.1,0-0.2c0.1,0.2,0.3,0.3,0.5,0.3c0.4,0,0.7-0.3,0.7-0.7   c0-0.2-0.1-0.3-0.2-0.4C10.5,19.3,10.9,19.8,10.9,20.3z"/><path d="M10.9,20.3c0,0.6-0.5,1-1,1c-0.6,0-1-0.5-1-1c0-0.1,0-0.1,0-0.2c0.1,0.2,0.3,0.3,0.5,0.3c0.4,0,0.7-0.3,0.7-0.7   c0-0.2-0.1-0.3-0.2-0.4C10.5,19.3,10.9,19.8,10.9,20.3z"/></g><text x="0" y="65" fill="#000000" font-size="5px" font-weight="bold" font-family="'Helvetica Neue', Helvetica, Arial-Unicode, Arial, Sans-serif">Created by Vectors Market</text><text x="0" y="70" fill="#000000" font-size="5px" font-weight="bold" font-family="'Helvetica Neue', Helvetica, Arial-Unicode, Arial, Sans-serif">from the Noun Project</text></svg>