<svg xmlns="http://www.w3.org/2000/svg" xmlns:xlink="http://www.w3.org/1999/xlink" version="1.1" x="0px" y="0px" viewBox="0 0 100 125" style="enable-background:new 0 0 100 100;" xml:space="preserve"><path d="M49.9999695,7.9485779c-8.4796143,0-35.4202881,35.6734619-35.4202881,74.890625v9.2122192  c0,0,0.5900879-0.0105591,0.914978-0.0105591c5.237793,0,7.2675171-2.977478,8.0539551-5.2850952  c0.2147827-0.6300659,0.8161011-0.6407471,1.0391846-0.0167847c0.8259277,2.3099365,2.9089966,5.3018799,8.1595459,5.3018799  c5.2377319,0,7.2674561-2.9775391,8.0540161-5.2850952c0.2147217-0.6300659,0.81604-0.6407471,1.0391235-0.0168457  c0.8258667,2.3099976,2.9090576,5.3019409,8.1594849,5.3019409c5.237793,0,7.2675171-2.977478,8.0540161-5.2850952  c0.2147827-0.6300049,0.8161011-0.6407471,1.0391846-0.0167847c0.8259277,2.3099365,2.9089966,5.3018799,8.1594849,5.3018799  c5.2377319,0,7.2675171-2.977478,8.0540161-5.2850952c0.2147827-0.6300049,0.8161011-0.6407471,1.0391846-0.0167847  c0.8258667,2.3099365,2.9090576,5.3018799,8.1594849,5.3018799l0.914978-0.00177v-9.1998901  C85.4203186,43.6220398,58.4796448,7.9485779,49.9999695,7.9485779z M26.8705139,73.9941711  c-0.7576904,0.822937-1.3751831,1.5509644-1.8369751,2.1201172c-0.3253784,0.4009399-0.9832153,0.1585083-0.9625244-0.3575439  c0.1915894-4.7851562,1.210144-9.2766113,2.7994995-13.3265991V73.9941711z M29.0018005,71.8207092V60.7972107  c0-0.3640747,0.4943237-0.4742432,0.6489868-0.1446533l3.5643311,7.5953979  C31.6270447,69.429718,30.2145081,70.6595154,29.0018005,71.8207092z M34.8808289,65.2963562  c-0.0388184,0.3411255-0.5008545,0.4169922-0.6467896,0.1061401L29.934906,56.240509  c2.0006104-3.2991333,4.3798218-6.1376343,6.934021-8.3955078L34.8808289,65.2963562z M36.9709167,65.7831726l1.8198242-15.973877  c0.0413208-0.362854,0.5473022-0.4151001,0.6618652-0.0682983l4.3477783,13.1630859  C41.3444519,63.5740051,39.0561218,64.5899353,36.9709167,65.7831726z M44.9320984,59.5345154l-4.7103271-14.2597656  c2.6868896-1.7527466,5.4570923-2.8530884,8.1016235-3.1885376l-2.7313843,17.3942871  C45.5365906,59.8335266,45.04422,59.8738708,44.9320984,59.5345154z M49.9999695,62.049408  c-0.9100952,0-1.8025513,0.0614014-2.6800537,0.1656494l2.3436279-14.9248047c0.0601807-0.383667,0.6126709-0.383667,0.6729126,0  l2.3435669,14.9248047C51.8025818,62.1108093,50.9101257,62.049408,49.9999695,62.049408z M55.0678406,59.5345154  c-0.1121216,0.3393555-0.6044922,0.2990112-0.6599121-0.0540161l-2.7313232-17.3942871  c2.6445312,0.3354492,5.4147339,1.435791,8.1016235,3.1885376L55.0678406,59.5345154z M56.1996155,62.9040833l4.3477783-13.1630859  c0.114563-0.3468018,0.6204834-0.2945557,0.6618652,0.0682983l1.8198242,15.973877  C60.9438171,64.5899353,58.6555481,63.5740051,56.1996155,62.9040833z M65.1191101,65.2963562l-1.9880371-17.451416  c2.5541382,2.2578735,4.9333496,5.0963745,6.93396,8.3955688l-4.2991333,9.1619873  C65.6200256,65.7133484,65.1579895,65.6374817,65.1191101,65.2963562z M70.9981384,71.8207092  c-1.2127075-1.1611938-2.6251831-2.3909912-4.2132568-3.5727539l3.56427-7.5953979  c0.1546631-0.3295898,0.6489868-0.2194214,0.6489868,0.1446533V71.8207092z M74.9664612,76.1142883  c-0.461853-0.5691528-1.0793457-1.2971802-1.8370361-2.1201172V62.4301453  c1.5894165,4.0499878,2.6079712,8.5414429,2.7995605,13.3265991C75.9496765,76.2727966,75.2918396,76.5152283,74.9664612,76.1142883  z"/><text x="0" y="115" fill="#000000" font-size="5px" font-weight="bold" font-family="'Helvetica Neue', Helvetica, Arial-Unicode, Arial, Sans-serif">Created by Dmitry Vasiliev</text><text x="0" y="120" fill="#000000" font-size="5px" font-weight="bold" font-family="'Helvetica Neue', Helvetica, Arial-Unicode, Arial, Sans-serif">from the Noun Project</text></svg>