<svg xmlns:dc="http://purl.org/dc/elements/1.1/" xmlns:cc="http://creativecommons.org/ns#" xmlns:rdf="http://www.w3.org/1999/02/22-rdf-syntax-ns#" xmlns:svg="http://www.w3.org/2000/svg" xmlns="http://www.w3.org/2000/svg" xmlns:sodipodi="http://sodipodi.sourceforge.net/DTD/sodipodi-0.dtd" xmlns:inkscape="http://www.inkscape.org/namespaces/inkscape" viewBox="0 0 100 125" version="1.1" x="0px" y="0px"><g transform="translate(0,-952.36216)"><path style="color:#000000;clip-rule:nonzero;display:inline;overflow:visible;visibility:visible;opacity:1;isolation:auto;mix-blend-mode:normal;color-interpolation:sRGB;color-interpolation-filters:linearRGB;solid-color:#000000;solid-opacity:1;fill:#000000;fill-opacity:1;fill-rule:nonzero;stroke:none;stroke-width:40;stroke-linecap:butt;stroke-linejoin:round;stroke-miterlimit:4;stroke-dasharray:none;stroke-dashoffset:0;stroke-opacity:1;marker:none;color-rendering:auto;image-rendering:auto;shape-rendering:auto;text-rendering:auto;enable-background:accumulate" d="m 19.344272,970.78151 c -7.946833,0 -14.3442559,6.3975 -14.3442559,14.3443 l 0,3.2391 20.5155919,0 0,-17.5834 -6.171336,0 z m 9.410406,0 0,17.5834 13.955826,0 c 0.749457,-3.3325 3.7386,-5.8398 7.289788,-5.8398 3.551187,0 6.539877,2.5073 7.289204,5.8398 l 13.956441,0 0,-17.5834 -42.491259,0 z m 45.73033,0 0,17.5834 20.514976,0 0,-3.2391 c 0,-7.9468 -6.398071,-14.3443 -14.344904,-14.3443 l -6.170072,0 z m -24.484716,14.9827 c -2.3733,0 -4.233563,1.8597 -4.233563,4.2329 l 0,4.8459 4.232947,0 4.233562,0 0,-4.8459 c 0,-2.3732 -1.859647,-4.2329 -4.232946,-4.2329 z m -45.0002759,5.8398 0,42.33889 20.5155919,0 3.23907,0 42.490644,0 0,0 3.238455,0 0,-42.33889 -3.238455,0 0,0 -13.773013,0 0,3.239 3.286522,0 0,8.90749 c 0,0.3121 -0.01652,0.6197 -0.0424,0.9249 0.02591,0.3052 0.0424,0.6134 0.0424,0.9255 l 0,8.9075 -10.759155,0 -10.757892,0 0,-8.9075 c 0,-0.3121 0.01587,-0.6203 0.04175,-0.9255 -0.02591,-0.3052 -0.04175,-0.6128 -0.04175,-0.9249 l 0,-8.90749 3.285875,0 0,-3.239 -13.772981,0 -3.23907,0 -20.5155919,0 z m 69.4849919,0 0,42.33889 20.514976,0 0,-42.33889 -20.514976,0 z m -24.484716,5.8993 c -2.124312,0 -3.846397,1.722 -3.846397,3.84639 0.0032,1.4954 0.870436,2.8542 2.226861,3.4838 l -1.295628,5.857 5.830327,0 -1.295628,-5.8576 c 1.356231,-0.6296 2.224723,-1.988 2.226861,-3.4832 0,-2.12439 -1.722085,-3.84639 -3.846396,-3.84639 z M 8.2390871,1021.2965 a 9.4072318,9.4072318 0 0 1 9.4071989,9.4073 l -9.4071989,0 0,-9.4073 z m 83.5218259,0 0,9.4073 -9.407232,0 a 9.4072318,9.4072318 0 0 1 9.407232,-9.4073 z"/></g><text x="0" y="115" fill="#000000" font-size="5px" font-weight="bold" font-family="'Helvetica Neue', Helvetica, Arial-Unicode, Arial, Sans-serif">Created by Andrew Doane</text><text x="0" y="120" fill="#000000" font-size="5px" font-weight="bold" font-family="'Helvetica Neue', Helvetica, Arial-Unicode, Arial, Sans-serif">from the Noun Project</text></svg>