<svg xmlns="http://www.w3.org/2000/svg" xmlns:xlink="http://www.w3.org/1999/xlink" version="1.1" x="0px" y="0px" viewBox="0 0 56 70" style="enable-background:new 0 0 56 56;" xml:space="preserve"><g><path d="M28,11.789978L9.3200073,28.3900146c-0.4500122,0.3999634-0.960022,0.6999512-1.5200195,0.8799438V51.5   c0,0.5499878,0.4500122,1,1,1H21V37.0999756c0-0.5499878,0.4500122-1,1-1h12c0.5499878,0,1,0.4500122,1,1V52.5h12.2000122   c0.5499878,0,1-0.4500122,1-1V29.2699585c-0.5599976-0.1799927-1.0800171-0.4799805-1.5200195-0.8799438L28,11.789978z"/><path d="M29.5949097,4.1064453c-0.9093628-0.8085938-2.2804565-0.8085938-3.1898193,0L14.5999756,14.5998535V7.0999756   c0-0.3099976-0.1399536-0.5999756-0.3899536-0.789978c-0.2400513-0.1900024-0.5599976-0.2600098-0.8500366-0.1799927   L8.5599976,7.3299561C8.1099854,7.4400024,7.7999878,7.8399658,7.7999878,8.2999878v12.3442993l-2.9949341,2.6621704   c-0.9902344,0.8806152-1.0792847,2.3970337-0.1992188,3.3878784c0.8812866,0.9902344,2.3953247,1.079895,3.3890991,0.1992188   L28,9.1109009l20.0050659,17.7826538C48.4632568,27.3001709,49.0316162,27.5,49.5988159,27.5   c0.6621094,0,1.3207397-0.2719116,1.7953491-0.8056641c0.8800659-0.9908447,0.7910156-2.5072632-0.1992188-3.3878784   L29.5949097,4.1064453z"/></g><text x="0" y="71" fill="#000000" font-size="5px" font-weight="bold" font-family="'Helvetica Neue', Helvetica, Arial-Unicode, Arial, Sans-serif">Created by Vectorstall</text><text x="0" y="76" fill="#000000" font-size="5px" font-weight="bold" font-family="'Helvetica Neue', Helvetica, Arial-Unicode, Arial, Sans-serif">from the Noun Project</text></svg>