<svg xmlns="http://www.w3.org/2000/svg" xmlns:xlink="http://www.w3.org/1999/xlink" version="1.1" x="0px" y="0px" viewBox="0 0 512 640" enable-background="new 0 0 512 512" xml:space="preserve"><g><g><path d="M302.18,218.52c-5.501-6.478-7.642-15.5-6.026-25.437l3.433-20.896c1.368-8.366-2.43-22.465-7.816-28.994l-6.103-7.408    c-152.6,63.397-235.663,185.297-235.663,185.297c-7.306,10.752-3.014,16.812,9.533,13.475l20.648-5.49    c12.552-3.338,17.227,2.984,10.397,14.027l-28.16,45.486c-6.836,11.041-1.972,18.213,10.824,15.906l21.471-3.861    c12.805-2.31,22.412,6.412,21.401,19.363l-3.079,38.564c-1.015,12.953,3.862,14.584,10.846,3.633    c0,0,93.111-145.917,185.097-238.215C306.461,222.525,304.104,220.789,302.18,218.52z"/></g><path d="M460.079,125.401c9.247-9.146,6.507-19.281-6.066-22.535l-20.51-5.311c-12.583-3.25-27.656-15.41-33.501-27.016   l-9.532-18.92c-3.034-6.023-7.328-9.061-11.712-9.061c-4.077,0-8.26,2.604-11.612,7.885l-11.37,17.857   c-6.988,10.959-23.2,21.534-36.04,23.504l-20.965,3.207c-12.842,1.971-16.58,11.784-8.322,21.812l13.476,16.347   c8.258,10.029,13.304,28.723,11.215,41.553l-3.433,20.914c-1.631,9.998,2.971,16.213,10.813,16.213   c2.218,0,4.693-0.502,7.349-1.547l19.743-7.773c5.149-2.033,11.624-3.019,18.261-3.019c8.92,0,18.09,1.78,24.711,5.193   l18.828,9.714c3.097,1.6,6.001,2.354,8.573,2.354c7.012,0,11.565-5.613,10.978-15.106l-1.291-21.151   c-0.796-12.966,6.108-31.055,15.354-40.201L460.079,125.401z"/></g><text x="0" y="527" fill="#000000" font-size="5px" font-weight="bold" font-family="'Helvetica Neue', Helvetica, Arial-Unicode, Arial, Sans-serif">Created by Guilherme Simoes</text><text x="0" y="532" fill="#000000" font-size="5px" font-weight="bold" font-family="'Helvetica Neue', Helvetica, Arial-Unicode, Arial, Sans-serif">from the Noun Project</text></svg>