<svg xmlns="http://www.w3.org/2000/svg" xmlns:xlink="http://www.w3.org/1999/xlink" version="1.1" x="0px" y="0px" viewBox="0 0 100 125" enable-background="new 0 0 100 100" xml:space="preserve"><g><path fill="none" d="M65.622,47.438c-0.161,0.255-0.334,0.528-0.552,0.872c0.815,1.315,3.354,3.823,4.715,4.703   c1.136-0.802,1.266-1.217,0.619-2.245c-0.532-0.845-1.171-1.593-2.09-2.064c-0.785-0.401-1.547-0.846-2.325-1.261   C65.908,47.401,65.784,47.438,65.622,47.438z"/><path fill="none" d="M44.228,56.808c-0.508-0.541-1.121-0.766-1.976-0.569c0.757,1.578,0.964,3.124,0.575,4.76   c1.216,0.482,2.167,1.417,3.729,1.4c-0.233-1.011-0.392-1.82-0.609-2.613C45.634,58.649,45.031,57.664,44.228,56.808z"/><path fill="none" d="M73.712,31.323c-0.496-0.008-0.996,0.043-1.491,0.097c-0.44,0.047-0.875,0.187-1.314,0.196   c-1.367,0.03-2.446,0.64-3.341,1.612c-1.365,1.483-2.479,3.131-3.203,5.024c-0.233,0.608-0.424,1.233-0.646,1.883   c0.615,0.083,1.106,0.182,1.601,0.209c1.45,0.08,2.738-0.379,3.821-1.331c0.41-0.361,0.743-0.828,1.044-1.29   c0.318-0.49,0.843-0.853,0.98-1.456c-1.581-1.012-2.238-1.702-2.886-3.045c0.679,0.131,1.151,0.555,1.54,0.973   c1.095,1.177,2.501,1.526,3.996,1.823c1.259,0.25,2.165-0.079,2.972-1.248c-0.359-0.689-0.826-1.291-0.992-1.966   C75.507,31.638,74.73,31.34,73.712,31.323z"/><path fill="none" d="M40.206,54.841c-0.463-0.81-1.023-1.595-1.677-2.257c-0.733-0.74-1.596-1.361-2.449-1.967   c-0.423-0.301-0.936-0.34-1.367,0.236c0.351,0.48,0.705,0.97,1.065,1.455c0.91,1.223,1.612,2.518,1.521,4.115   c-0.015,0.264,0.046,0.533,0.05,0.568c0.792,0.771,1.435,1.376,2.052,2.006c0.584,0.596,1.167,1.18,2.202,1.37   c0.399-0.924,0.339-1.732,0.007-2.515C41.176,56.833,40.754,55.799,40.206,54.841z"/><path fill="none" d="M63.405,41.09c-0.6,1.938-0.271,4.242,0.848,5.806c0.737-0.927,1.561-1.772,2.149-2.758   c0.559-0.936,0.957-2.017,0.134-3.109C65.454,41.037,64.413,40.906,63.405,41.09z"/><path fill="none" d="M8.997,50.197c-2.127,0.129-3.057,1.626-3.048,3.276c0.007,1.27,0.198,2.542,0.351,3.808   c0.068,0.561,0.319,1.048,0.903,1.237c0.128-0.091,0.251-0.133,0.295-0.216c0.536-1.027,1.042-2.07,1.594-3.089   c0.5-0.922,1.011-1.831,1.822-2.551c0.695-0.617,1.297-1.339,1.97-2.046c-0.167-0.137-0.282-0.313-0.405-0.319   C11.318,50.241,10.151,50.127,8.997,50.197z"/><path fill="none" d="M83.773,33.467c-2.308-0.545-4.62-1.069-6.936-1.578c-0.169-0.037-0.376,0.104-0.747,0.217   c0.35,0.532,0.614,0.83,0.761,1.177c0.438,1.032,1.247,1.673,2.197,2.162c0.636,0.328,1.316,0.57,1.962,0.879   c0.676,0.323,1.385,0.318,2.108,0.309c0.57-0.007,0.951-0.252,1.158-0.763c0.245-0.607,0.467-1.223,0.733-1.929   C84.575,33.771,84.187,33.564,83.773,33.467z"/><path fill="none" d="M19.647,47.901c-0.901-0.424-1.804-0.849-2.732-1.206c-1.153-0.444-2.362-0.613-3.589-0.395   c-1.423,0.253-2.616,0.841-3.161,2.544c1.49,0.28,3.058-0.355,4.021,0.907c1.948-0.363,3.789-0.707,5.647-1.053   C20.054,48.385,20.019,48.076,19.647,47.901z"/><path fill="none" d="M35.259,53.554c-1.327-1.854-2.864-3.523-4.699-4.898c-0.454-0.341-0.926-0.598-1.555-0.387   c-0.287,0.627-0.58,1.27-0.916,2.008c1.454,0.973,2.854,1.854,4.191,2.82c1.371,0.99,2.523,2.243,3.917,3.566   c0-0.555,0.086-0.898-0.017-1.168C35.925,54.826,35.67,54.128,35.259,53.554z"/><path fill="none" d="M26.451,47.324c-2.253-1.753-4.808-2.418-7.633-2.028c-0.297,0.041-0.63,0.12-0.703,0.564   c0.587,0.441,1.237,0.73,1.953,0.841c0.632,0.099,0.983,0.449,1.131,1.049c0.038,0.153,0.105,0.299,0.137,0.388   c1.288,0.314,2.515,0.621,3.747,0.91c0.591,0.138,1.186,0.281,1.787,0.34c0.208,0.02,0.441-0.209,0.661-0.324   C27.341,48.294,26.983,47.737,26.451,47.324z"/><path fill="none" d="M75.168,53.474c0.564-0.258,1.038-0.633,1.348-1.173c0.095-0.166,0.071-0.402,0.1-0.607   c-0.864-0.441-1.691-0.123-2.493-0.093c-1.404,0.051-2.581,0.522-3.043,2.302C72.551,54.156,73.881,54.062,75.168,53.474z"/><path fill="none" d="M85.785,57.663c0.991,0.788,1.961,1.559,2.948,2.343c1.805-1.859,3.187-3.868,3.991-6.377   C89.598,52.632,86.545,54.496,85.785,57.663z"/><path fill="none" d="M90.939,47.121c-1.331,0.548-1.838,1.694-2.241,2.916c-0.172,0.519-0.156,1.096-0.291,1.631   c-0.143,0.568-0.365,1.118-0.61,1.85c0.958-0.396,1.729-0.838,2.558-1.024c0.897-0.202,1.847-0.165,2.865-0.239   c0.087-0.538,0.188-1.019,0.237-1.505c0.071-0.715,0.197-1.442,0.132-2.149C93.457,47.16,92.281,46.569,90.939,47.121z"/><path fill="none" d="M85.79,59.144c-0.454-0.332-0.954-0.553-1.547-0.333c-1.204,0.448-2.325,1.03-3.207,1.99   c-0.08,0.086-0.052,0.271-0.075,0.42c0.431,0.116,0.802,0.219,1.175,0.317c1.07,0.28,1.793,0.846,1.752,2.072   c-0.005,0.135,0.093,0.274,0.161,0.462c1.565-0.682,2.647-1.813,3.726-3.098C87.13,60.268,86.498,59.662,85.79,59.144z"/><path fill="none" d="M86.468,35.014c-0.184,0.2-0.334,0.463-0.56,0.591c-0.727,0.411-0.879,1.085-0.953,1.823   c-0.079,0.783,0.219,1.406,0.791,1.913c0.547,0.485,0.978,1.041,1.21,1.75c0.06,0.184,0.253,0.326,0.412,0.52   c0.936-0.784,1.814-1.518,2.762-2.31C89.215,37.809,87.363,35.654,86.468,35.014z"/><path fill="none" d="M81.84,62.505c-1.359-0.554-2.782-0.692-4.235-0.529c-0.214,0.025-0.455,0.069-0.625,0.188   c-0.667,0.467-1.31,0.968-2.031,1.509c0.625,0.554,1.254,0.95,1.653,1.509c0.435,0.609,0.657,1.369,0.989,2.097   c0.927-0.352,1.867-0.673,2.778-1.064c0.878-0.378,1.618-0.939,2.072-1.827C82.89,63.508,82.722,62.866,81.84,62.505z"/><path fill="none" d="M67.949,65.887c-1.426-1.58-3.115-2.225-5.2-1.851c-0.26,0.047-0.556,0.072-0.593,0.545   c1.048,1.05,1.928,2.293,2.177,3.875c0.302,0.057,0.511,0.117,0.725,0.133c1.489,0.106,2.979,0.205,4.469,0.302   c0.331,0.021,0.665,0.052,0.992,0.021c0.183-0.017,0.353-0.154,0.669-0.302c-0.356-0.306-0.591-0.515-0.834-0.716   C69.548,67.23,68.641,66.655,67.949,65.887z"/><path fill="none" d="M59.966,64.055c-0.794-0.667-1.736-1.196-2.684-1.626c-0.633-0.287-1.39-0.331-2.099-0.413   c-0.387-0.045-0.769,0.092-0.914,0.649c0.243,0.847,1.063,1.449,1.385,2.272c-0.082,0.321-0.148,0.578-0.218,0.849   c0.774,0.429,1.484,0.858,2.224,1.225c1.251,0.621,2.582,1.004,3.982,1.066c0.345,0.016,0.7-0.165,1.179-0.288   c-0.245-0.518-0.362-0.962-0.627-1.284C61.492,65.651,60.804,64.759,59.966,64.055z"/><path fill="none" d="M48.845,59.792c-0.216-0.041-0.439-0.074-0.656-0.06c-0.525,0.034-0.902,0.516-0.806,1.034   c0.13,0.7,0.283,1.395,0.451,2.219c1.088,0.355,2.142,0.678,3.181,1.046c1.005,0.358,1.899,1.063,3.311,1.068   c-0.685-1.116-1.179-2.085-1.799-2.978C51.633,60.834,50.378,60.082,48.845,59.792z"/><path fill="none" d="M88.895,47.786c0.654-0.511,1.233-1.139,1.949-1.476c0.727-0.341,1.589-0.395,2.498-0.599   c-0.18-0.582-0.347-1.216-0.573-1.826c-0.209-0.566-0.479-1.11-0.703-1.619c-0.497-0.171-0.94-0.265-1.319-0.472   c-0.368-0.201-0.672-0.52-0.947-0.742c-1.08,0.151-1.408,0.951-1.817,1.67c-0.405,0.709-0.15,1.492-0.065,2.177   C88.038,45.858,88.532,46.77,88.895,47.786z"/><path fill="none" d="M72.504,63.994c-1.498-0.104-2.995-0.212-4.492-0.309c-0.2-0.013-0.457-0.057-0.486,0.32   c0.421,0.386,0.91,0.752,1.295,1.207c0.73,0.866,1.581,1.577,2.592,2.061c0.595,0.286,1.008,0.642,1.03,1.505   c1.064-0.219,1.889-0.345,2.689-0.564c0.814-0.222,1.055-0.721,0.846-1.529C75.619,65.299,74.075,64.103,72.504,63.994z"/><path d="M94.701,45.765c-0.23-1.082-0.595-2.151-1.027-3.172c-0.409-0.966-0.9-1.924-1.509-2.775   c-1.133-1.581-2.399-3.067-3.568-4.623c-0.912-1.212-2.095-1.966-3.549-2.323c-1.727-0.423-3.458-0.829-5.184-1.249   c-1.728-0.42-3.454-0.851-5.183-1.268c-0.211-0.051-0.44-0.079-0.655-0.056c-0.883,0.095-1.77,0.174-2.643,0.336   c-1.676,0.31-3.099,1.027-4.323,2.304c-2.263,2.36-3.483,5.26-4.645,8.217c-0.019,0.051-0.038,0.108-0.035,0.162   c0.064,1.383-0.143,2.787,0.292,4.141c0.238,0.74,0.56,1.455,0.758,2.204c0.267,1.013,0.843,1.792,1.587,2.495   c0.807,0.762,1.579,1.562,2.362,2.348c0.704,0.706,1.405,1.416,2.085,2.102c1.201,0.034,2.312,0.097,3.423,0.089   c1.503-0.009,2.83-0.554,3.985-1.498c0.806-0.659,1.112-1.493,0.734-2.541c-0.275-0.089-0.541-0.255-0.799-0.245   c-1.664,0.069-3.284,0.425-4.77,0.875c-0.657-0.746-1.247-1.389-1.806-2.057c-0.777-0.924-1.857-1.398-2.856-1.998   c-0.51-0.307-1.154-0.467-1.396-1.183c0.256-0.394,0.518-0.818,0.799-1.228c0.84-1.223,1.386-2.515,0.931-4.105   c0.272-0.118,0.513-0.243,0.768-0.328c0.714-0.237,1.269-0.678,1.706-1.28c0.359-0.496,0.707-0.999,1.08-1.484   c0.297-0.386,0.624-0.749,0.935-1.118c0.593,0.094,1.082,0.206,1.577,0.237c0.548,0.034,1.101-0.019,1.651-0.015   c0.92,0.006,1.472-0.689,2.166-1.173c1.009,0.51,1.961,1.119,2.999,1.48c1.027,0.357,2.142,0.463,3.321,0.699   c0.003,0.903,0.558,1.559,1.165,2.235c0.942,1.046,1.636,2.228,1.612,3.738c-0.007,0.465,0.23,0.964,0.455,1.396   c0.476,0.914,0.719,1.892,0.678,2.897c-0.054,1.329-0.161,2.669-0.405,3.975c-0.191,1.023-0.551,2.034-0.972,2.991   c-0.356,0.806-0.92,1.518-1.365,2.289c-0.203,0.352-0.444,0.606-0.837,0.759c-1.364,0.532-2.537,1.356-3.605,2.359   c-0.571,0.535-1.241,0.872-2.102,0.825c-1.029-0.057-1.976,0.294-2.772,0.97c-1.082,0.919-2.333,1.263-3.726,1.136   c-0.55-0.051-1.094-0.179-1.645-0.206c-1.101-0.054-2.216-0.515-3.297-0.106c-0.771,0.292-1.502,0.279-2.282,0.191   c-0.436-0.05-0.89-0.029-1.325,0.035c-0.712,0.105-1.415,0.272-2.235,0.434c-2.204-1.747-4.71-2.781-7.594-2.149   c-1.957-1.788-3.777-2.737-6.525-2.416c-0.432-0.573-0.878-1.138-1.296-1.721c-0.931-1.3-2.152-2.058-3.784-2.084   c-0.102-0.002-0.203-0.082-0.056-0.018c-1.072-1.298-1.973-2.421-2.914-3.511c-0.322-0.374-0.746-0.659-1.115-0.994   c-1.221-1.105-2.615-1.373-4.148-0.79c-0.563-0.468-1.09-0.876-1.581-1.322c-1.024-0.932-2.157-1.57-3.597-1.453   c-0.374,0.03-0.596-0.2-0.869-0.403c-0.712-0.53-1.399-1.185-2.208-1.474c-2.043-0.731-4.136-1.307-6.367-0.866   c-0.886,0.175-1.76,0.294-2.321,1.122c-0.318-0.037-0.433-0.032-0.537-0.066c-1.38-0.439-2.753-0.346-4.092,0.131   c-1.266,0.45-2.137,1.342-2.712,2.566c-0.26,0.553-0.711,0.948-1.361,1.134c-1.594,0.458-2.528,1.611-2.887,3.168   c-0.376,1.634-0.375,3.312-0.085,4.964c0.181,1.033,0.805,1.812,1.728,2.332c0.513,0.289,0.976,0.154,1.249-0.373   c0.638-1.233,1.28-2.465,1.905-3.706c0.712-1.411,1.7-2.592,2.859-3.662c1.588-1.463,3.432-2.191,5.584-2.191   c0.441-0.001,0.88-0.093,1.322-0.125c0.829-0.061,1.67-0.224,2.485-0.138c2.167,0.229,4.288,0.665,6.126,1.964   c0.59,0.417,1.235,0.754,1.828,1.167c1.686,1.176,3.346,2.382,4.415,4.211c0.105,0.179,0.298,0.362,0.489,0.426   c0.824,0.271,1.394,0.897,2.066,1.384c1.609,1.167,3.181,2.362,5.067,3.127c1.596,0.647,3.156,1.37,4.816,1.855   c1.28,0.374,2.562,0.758,3.8,1.249c2.272,0.901,4.547,1.795,6.705,2.972c0.911,0.497,1.959,0.84,2.986,1.007   c1.526,0.249,3.087,0.281,4.634,0.401c0.443,0.034,0.891,0.024,1.331,0.086c4.173,0.592,8.209,0.161,12.076-1.582   c0.862-0.388,1.71-0.812,2.586-1.164c2.033-0.817,3.86-1.985,5.597-3.289c0.783-0.587,1.694-1.082,2.115-2.068   c0.081-0.19,0.303-0.321,0.463-0.475c2.124-2.044,3.719-4.497,4.679-7.229C95.002,51.138,95.269,48.437,94.701,45.765z    M10.914,52.662c-0.811,0.72-1.322,1.629-1.822,2.551c-0.552,1.019-1.058,2.062-1.594,3.089c-0.044,0.084-0.167,0.125-0.295,0.216   c-0.584-0.189-0.835-0.676-0.903-1.237c-0.153-1.266-0.344-2.538-0.351-3.808c-0.01-1.65,0.92-3.147,3.048-3.276   c1.155-0.07,2.321,0.044,3.482,0.1c0.123,0.006,0.238,0.182,0.405,0.319C12.211,51.323,11.609,52.045,10.914,52.662z    M19.833,48.699c-1.858,0.346-3.699,0.69-5.647,1.053c-0.963-1.262-2.532-0.627-4.021-0.907c0.545-1.703,1.739-2.291,3.161-2.544   c1.226-0.219,2.436-0.05,3.589,0.395c0.928,0.357,1.831,0.783,2.732,1.206C20.019,48.076,20.054,48.385,19.833,48.699z    M26.872,49.389c-0.601-0.058-1.196-0.201-1.787-0.34c-1.232-0.289-2.458-0.596-3.747-0.91c-0.032-0.089-0.099-0.235-0.137-0.388   c-0.148-0.6-0.499-0.95-1.131-1.049c-0.716-0.112-1.367-0.401-1.953-0.841c0.072-0.444,0.406-0.523,0.703-0.564   c2.824-0.39,5.379,0.274,7.633,2.028c0.532,0.413,0.89,0.97,1.081,1.74C27.313,49.18,27.08,49.409,26.872,49.389z M36.197,56.662   c-1.394-1.323-2.547-2.576-3.917-3.566c-1.338-0.966-2.737-1.847-4.191-2.82c0.337-0.738,0.63-1.381,0.916-2.008   c0.629-0.211,1.1,0.046,1.555,0.387c1.835,1.375,3.372,3.045,4.699,4.898c0.411,0.574,0.666,1.271,0.921,1.94   C36.283,55.764,36.197,56.107,36.197,56.662z M41.603,60.368c-1.035-0.191-1.618-0.774-2.202-1.37   c-0.617-0.63-1.26-1.235-2.052-2.006c-0.003-0.035-0.065-0.304-0.05-0.568c0.091-1.597-0.612-2.892-1.521-4.115   c-0.361-0.485-0.714-0.975-1.065-1.455c0.432-0.576,0.944-0.537,1.367-0.236c0.853,0.606,1.716,1.227,2.449,1.967   c0.654,0.661,1.214,1.447,1.677,2.257c0.548,0.958,0.97,1.992,1.403,3.011C41.941,58.635,42.002,59.444,41.603,60.368z    M42.827,60.999c0.389-1.636,0.181-3.182-0.575-4.76c0.855-0.196,1.469,0.028,1.976,0.569c0.804,0.856,1.406,1.841,1.719,2.978   c0.218,0.793,0.376,1.603,0.609,2.613C44.993,62.416,44.043,61.481,42.827,60.999z M74.123,51.6   c0.802-0.029,1.629-0.347,2.493,0.093c-0.03,0.205-0.005,0.441-0.1,0.607c-0.31,0.54-0.784,0.914-1.348,1.173   c-1.287,0.589-2.617,0.682-4.088,0.429C71.542,52.122,72.719,51.652,74.123,51.6z M65.989,47.444   c0.778,0.414,1.54,0.859,2.325,1.261c0.918,0.471,1.558,1.219,2.09,2.064c0.647,1.027,0.517,1.443-0.619,2.245   c-1.361-0.88-3.899-3.388-4.715-4.703c0.218-0.344,0.391-0.617,0.552-0.872C65.784,47.438,65.908,47.401,65.989,47.444z    M66.402,44.138c-0.588,0.986-1.412,1.831-2.149,2.758c-1.119-1.564-1.449-3.868-0.848-5.806c1.008-0.184,2.049-0.053,3.132-0.061   C67.36,42.121,66.961,43.202,66.402,44.138z M73.814,36.018c-1.496-0.297-2.901-0.646-3.996-1.823   c-0.389-0.418-0.861-0.841-1.54-0.973c0.647,1.343,1.305,2.033,2.886,3.045c-0.137,0.603-0.662,0.966-0.98,1.456   c-0.301,0.462-0.634,0.929-1.044,1.29c-1.082,0.952-2.371,1.411-3.821,1.331c-0.495-0.027-0.986-0.126-1.601-0.209   c0.221-0.651,0.413-1.275,0.646-1.883c0.723-1.893,1.838-3.541,3.203-5.024c0.895-0.972,1.974-1.582,3.341-1.612   c0.439-0.009,0.874-0.149,1.314-0.196c0.495-0.054,0.995-0.105,1.491-0.097c1.018,0.017,1.795,0.315,2.081,1.481   c0.166,0.675,0.633,1.277,0.992,1.966C75.979,35.939,75.073,36.268,73.814,36.018z M83.117,36.633   c-0.723,0.009-1.432,0.014-2.108-0.309c-0.646-0.309-1.326-0.551-1.962-0.879c-0.949-0.488-1.759-1.13-2.197-2.162   c-0.147-0.347-0.41-0.644-0.761-1.177c0.371-0.113,0.578-0.254,0.747-0.217c2.316,0.509,4.628,1.034,6.936,1.578   c0.414,0.097,0.802,0.304,1.236,0.474c-0.266,0.706-0.488,1.322-0.733,1.929C84.068,36.381,83.688,36.626,83.117,36.633z    M86.955,41.09c-0.231-0.709-0.662-1.265-1.21-1.75c-0.572-0.507-0.869-1.13-0.791-1.913c0.074-0.738,0.226-1.413,0.953-1.823   c0.226-0.128,0.376-0.39,0.56-0.591c0.895,0.64,2.747,2.795,3.66,4.286c-0.948,0.792-1.826,1.526-2.762,2.31   C87.208,41.416,87.016,41.274,86.955,41.09z M87.983,42.723c0.409-0.719,0.737-1.518,1.817-1.67   c0.275,0.221,0.579,0.54,0.947,0.742c0.379,0.207,0.822,0.301,1.319,0.472c0.224,0.509,0.495,1.053,0.703,1.619   c0.226,0.611,0.393,1.244,0.573,1.826c-0.91,0.204-1.772,0.258-2.498,0.599c-0.716,0.336-1.295,0.965-1.949,1.476   c-0.364-1.017-0.857-1.929-0.977-2.887C87.833,44.215,87.578,43.432,87.983,42.723z M51.015,64.031   c-1.039-0.368-2.093-0.691-3.181-1.046c-0.169-0.825-0.322-1.52-0.451-2.219c-0.096-0.518,0.281-1,0.806-1.034   c0.217-0.014,0.441,0.019,0.656,0.06c1.533,0.29,2.789,1.041,3.682,2.329c0.62,0.893,1.114,1.862,1.799,2.978   C52.913,65.094,52.02,64.389,51.015,64.031z M61.641,68.078c-1.4-0.061-2.73-0.445-3.982-1.066c-0.74-0.367-1.45-0.796-2.224-1.225   c0.07-0.272,0.136-0.528,0.218-0.849c-0.322-0.823-1.142-1.425-1.385-2.272c0.146-0.557,0.527-0.694,0.914-0.649   c0.71,0.082,1.466,0.126,2.099,0.413c0.948,0.43,1.89,0.959,2.684,1.626c0.838,0.704,1.526,1.596,2.227,2.45   c0.264,0.323,0.381,0.766,0.627,1.284C62.341,67.913,61.986,68.094,61.641,68.078z M70.519,68.912   c-0.327,0.031-0.661,0-0.992-0.021c-1.49-0.097-2.98-0.196-4.469-0.302c-0.214-0.016-0.423-0.076-0.725-0.133   c-0.249-1.582-1.129-2.825-2.177-3.875c0.037-0.473,0.333-0.498,0.593-0.545c2.085-0.374,3.774,0.271,5.2,1.851   c0.693,0.768,1.599,1.343,2.406,2.008c0.243,0.2,0.478,0.41,0.834,0.716C70.873,68.758,70.702,68.895,70.519,68.912z    M75.131,68.214c-0.8,0.219-1.625,0.345-2.689,0.564c-0.022-0.863-0.434-1.219-1.03-1.505c-1.011-0.483-1.862-1.195-2.592-2.061   c-0.384-0.455-0.874-0.821-1.295-1.207c0.029-0.377,0.286-0.333,0.486-0.32c1.498,0.097,2.995,0.205,4.492,0.309   c1.571,0.109,3.115,1.305,3.473,2.692C76.186,67.494,75.944,67.993,75.131,68.214z M82.44,64.387   c-0.454,0.888-1.194,1.449-2.072,1.827c-0.91,0.391-1.851,0.713-2.778,1.064c-0.331-0.728-0.554-1.488-0.989-2.097   c-0.399-0.559-1.027-0.955-1.653-1.509c0.721-0.54,1.364-1.041,2.031-1.509c0.17-0.119,0.411-0.164,0.625-0.188   c1.453-0.163,2.876-0.025,4.235,0.529C82.722,62.866,82.89,63.508,82.44,64.387z M84.048,64.072   c-0.068-0.188-0.166-0.327-0.161-0.462c0.041-1.225-0.682-1.792-1.752-2.072c-0.373-0.098-0.744-0.201-1.175-0.317   c0.024-0.149-0.004-0.334,0.075-0.42c0.882-0.96,2.003-1.541,3.207-1.99c0.593-0.221,1.093,0.001,1.547,0.333   c0.708,0.518,1.34,1.124,1.984,1.83C86.695,62.259,85.613,63.39,84.048,64.072z M88.734,60.006   c-0.987-0.784-1.957-1.555-2.948-2.343c0.76-3.167,3.813-5.03,6.94-4.033C91.921,56.138,90.539,58.147,88.734,60.006z    M93.457,50.75c-0.048,0.486-0.15,0.967-0.237,1.505c-1.019,0.073-1.969,0.037-2.865,0.239c-0.829,0.186-1.6,0.628-2.558,1.024   c0.245-0.732,0.467-1.282,0.61-1.85c0.135-0.535,0.12-1.111,0.291-1.631c0.402-1.221,0.91-2.367,2.241-2.916   c1.342-0.553,2.518,0.038,2.65,1.48C93.654,49.308,93.527,50.035,93.457,50.75z"/></g><text x="0" y="115" fill="#000000" font-size="5px" font-weight="bold" font-family="'Helvetica Neue', Helvetica, Arial-Unicode, Arial, Sans-serif">Created by Valeriy</text><text x="0" y="120" fill="#000000" font-size="5px" font-weight="bold" font-family="'Helvetica Neue', Helvetica, Arial-Unicode, Arial, Sans-serif">from the Noun Project</text></svg>