<svg xmlns="http://www.w3.org/2000/svg" viewBox="0 0 60 75" x="0px" y="0px"><title>Ladies Clothing - 052-Winter Hat</title><g><path d="M53.03009,43.75024a1.95148,1.95148,0,0,0-1.5675-.75031H8.53741a1.95148,1.95148,0,0,0-1.5675.75031A12.3339,12.3339,0,0,0,5,51c0,5.13086,2.14941,9,5,9H50c2.85059,0,5-3.86914,5-9A12.3339,12.3339,0,0,0,53.03009,43.75024ZM20,52H18.41443l1.12122,1.12109a.99989.99989,0,1,1-1.41406,1.41406L17,53.4137V55a1,1,0,0,1-2,0V53.41418l-1.12109,1.121a.99989.99989,0,0,1-1.41406-1.41406L13.58606,52H12a1,1,0,0,1,0-2h1.58606l-1.12122-1.12109a.99989.99989,0,0,1,1.41406-1.41406L15,48.58582V47a1,1,0,0,1,2,0v1.5863l1.12158-1.12146a.99989.99989,0,0,1,1.41406,1.41406L18.41443,50H20a1,1,0,0,1,0,2Zm14,0H32.41443l1.12122,1.12109a.99989.99989,0,1,1-1.41406,1.41406L31,53.4137V55a1,1,0,0,1-2,0V53.41418l-1.12109,1.121a.99989.99989,0,0,1-1.41406-1.41406L27.58606,52H26a1,1,0,0,1,0-2h1.58606l-1.12122-1.12109a.99989.99989,0,0,1,1.41406-1.41406L29,48.58582V47a1,1,0,0,1,2,0v1.5863l1.12158-1.12146a.99989.99989,0,0,1,1.41406,1.41406L32.41443,50H34a1,1,0,0,1,0,2Zm14,0H46.41443l1.12122,1.12109a.99989.99989,0,1,1-1.41406,1.41406L45,53.4137V55a1,1,0,0,1-2,0V53.41418l-1.12109,1.121a.99989.99989,0,0,1-1.41406-1.41406L41.58606,52H40a1,1,0,0,1,0-2h1.58606l-1.12122-1.12109a.99989.99989,0,0,1,1.41406-1.41406L43,48.58582V47a1,1,0,0,1,2,0v1.5863l1.12158-1.12146a.99989.99989,0,0,1,1.41406,1.41406L46.41443,50H48a1,1,0,0,1,0,2Z"/><path d="M23.45,30.17a.96309.96309,0,0,1,1.1,0l4.89566,3.26078a1,1,0,0,0,1.10869,0L35.45,30.17a.96309.96309,0,0,1,1.1,0L42,33.8l7.03-4.69c-1.98855-6.45793-5.41169-11.60676-10.01474-14.89462a.98511.98511,0,0,0-1.31987.16742A9.997,9.997,0,0,1,21.77,13.68c-5,3.25-8.7,8.61-10.8,15.43L17.44548,33.43a1,1,0,0,0,1.10932.00042Z"/><path d="M49.59393,31.13922,42.55469,35.832a.99986.99986,0,0,1-1.10937,0l-4.89065-3.26014a1,1,0,0,0-1.10933,0L30.55469,35.832a1,1,0,0,1-1.10937,0l-4.89065-3.26014a1,1,0,0,0-1.10933,0l-4.89068,3.26016a1,1,0,0,1-1.10934,0l-7.03925-4.69281A47.69967,47.69967,0,0,0,9.05084,41H50.94916A47.69967,47.69967,0,0,0,49.59393,31.13922Z"/><circle cx="30" cy="8" r="8"/></g><text x="0" y="75" fill="#000000" font-size="5px" font-weight="bold" font-family="'Helvetica Neue', Helvetica, Arial-Unicode, Arial, Sans-serif">Created by Locad</text><text x="0" y="80" fill="#000000" font-size="5px" font-weight="bold" font-family="'Helvetica Neue', Helvetica, Arial-Unicode, Arial, Sans-serif">from the Noun Project</text></svg>