<svg xmlns="http://www.w3.org/2000/svg" xmlns:xlink="http://www.w3.org/1999/xlink" xml:space="preserve" version="1.1" style="shape-rendering:geometricPrecision;text-rendering:geometricPrecision;image-rendering:optimizeQuality;" viewBox="0 0 0.729 0.6887500000000001" x="0px" y="0px" fill-rule="evenodd" clip-rule="evenodd"><defs><style type="text/css">
   
    .fil0 {fill:black}
   
  </style></defs><g><path class="fil0" d="M0.064 0l0 0.434 0.194 0c0.029,0 0.053,0.004 0.072,0.013 0.007,0.003 0.014,0.007 0.02,0.011l0 -0.417c-0.009,-0.014 -0.019,-0.024 -0.033,-0.031 -0.015,-0.007 -0.035,-0.01 -0.059,-0.01l-0.194 0zm0.194 0.464l-0.209 0c-0.008,0 -0.015,-0.006 -0.015,-0.015l0 -0.385 -0.034 0 0 0.435 0.229 0c0.052,0 0.079,0.007 0.102,0.052l0.067 0c0.023,-0.045 0.051,-0.052 0.102,-0.052l0.229 0 0 -0.435 -0.034 0 0 0.385c0,0.009 -0.007,0.015 -0.015,0.015l-0.209 0c-0.042,0 -0.074,0.006 -0.093,0.044 -0.005,0.012 -0.022,0.012 -0.027,-0.001 -0.017,-0.036 -0.053,-0.043 -0.093,-0.043zm0.122 -0.423l0 0.417c0.024,-0.019 0.056,-0.024 0.091,-0.024l0.194 0 0 -0.434 -0.194 0c-0.024,0 -0.044,0.003 -0.059,0.01 -0.014,0.007 -0.024,0.017 -0.032,0.031z"/></g><text x="0" y="15.551" fill="#000000" font-size="5px" font-weight="bold" font-family="'Helvetica Neue', Helvetica, Arial-Unicode, Arial, Sans-serif">Created by Nociconist</text><text x="0" y="20.551000000000002" fill="#000000" font-size="5px" font-weight="bold" font-family="'Helvetica Neue', Helvetica, Arial-Unicode, Arial, Sans-serif">from the Noun Project</text></svg>