<svg xmlns="http://www.w3.org/2000/svg" xmlns:xlink="http://www.w3.org/1999/xlink" version="1.1" x="0px" y="0px" viewBox="0 0 100 125" enable-background="new 0 0 100 100" xml:space="preserve"><path d="M76.3695068,28.5383644c5.4594498,1.1251621,5.9863052,11.2493172,0.5547638,12.6300774  C76.7345123,37.6914024,76.2824402,31.5454769,76.3695068,28.5383644z M40.7228851,84.8652649  c-2.8820953-6.9216995-5.4259644-12.2192993-6.9027367-23.6338234c2.3474159,8.9487572,3.5819664,15.1795387,7.482048,23.6338234  h3.6880112c-1.4979744-11.0372314-2.1007385-17.6006317-4.0731087-24.9543037  c2.3139305,5.7318077,3.0193863,9.6307945,4.7383728,24.9543037h1.9321785  c-1.4544373-11.0472641-2.9189262-24.4575844-9.6531029-33.1072121c1.3528633,9.2021599,2.836319,15.4072533,3.8096695,21.9717674  c-7.4251251-21.7094536-7.3068008-32.1483765-5.6413994-40.8337135c5.1603012,0.0279083,8.1294594-8.9632797,3.7270737-11.9726162  c-1.8853035,2.3597031-3.5652237,6.0934734-4.5742836,11.0238266c0.206501-3.5562859,0.5904884-9.0481091,0.5101166-11.8375587  c-5.4237385,1.1173363-5.9773808,11.1164818-0.6596832,12.598814c-1.9210167,10.3395958-0.9097214,25.6675797,7.0969505,44.5317688  c0.1707802,1.4957428,0.308075,3.038353,0.4130058,4.6613464c-3.3665314-10.1353149-6.673912-19.9223785-11.2225246-30.3445549  c0.7735424,10.7336082,2.2625866,19.0037193,4.7026501,26.8998909c-4.2461224-4.0708618-10.5315762-6.7922211-17.9354897-8.6228333  c8.0680676,3.3062515,15.2007408,8.3973694,17.8874931,15.0299606h1.9087448  c-1.1463661-2.9579926-3.6076393-6.8714676-8.7255287-10.1665726c4.0228767,2.423317,6.5276794,5.1346283,8.1015549,7.5054932  c0.3114319,0.8873978,0.6340141,1.7725754,0.9711151,2.6599731h2.421093l-0.0011101,0.0022202H40.7228851z M50.086895,84.8652649  c0.8126068-4.8231964,1.0938988-14.3669205-3.9469681-26.7771072c5.4360161,12.6066437,5.5543289,22.0275726,5.1859741,26.7771072  h3.7806549c-0.4174728-10.4701843-1.2457008-21.0229721-0.539135-31.7822609  c-0.1495781,10.8173256,0.4152374,21.3555946,1.3361244,31.7822609h4.68256  c1.464489-10.4701843,2.5327187-21.0229721,5.1770477-31.7822609c-2.0929222,10.8173256-3.4234619,21.3555946-4.3789482,31.7822609  h5.1792793c0.3683548-8.3527145,0.990097-16.3381653,4.8444138-28.9180145  c-2.7392197,11.3531113-3.8119049,19.6868439-4.0184021,28.9180145h4.9370575  c2.2737503-4.5095444,4.6546555-7.659523,7.7242737-19.5037918c-2.5516891,11.8565216-4.3867645,14.5890503-6.8647842,19.5037918  h1.9768295c2.9903717-7.0735016,7.5356293-15.3938446,6.5354919-30.7899361  c-1.6542435,5.2529488-2.7816315,8.6284142-3.8029785,11.3486443c0.2991486-10.9925842-0.2868729-29.4225578-5.5922852-36.0696754  c-4.4001541,3.0104485-1.7312546,12.0016365,3.4323959,11.9726181c1.6843872,8.794735,1.7759018,17.2322807,1.3841171,26.0861626  c-1.5705338,3.8900375-3.1477509,6.9216995-6.3914948,13.8947678c0.9420929-13.6982956,1.8853073-21.8277664,2.8273926-35.527195  c-3.7929306,9.5213928-6.6861877,21.4739342-8.8137054,34.6866722c1.3573227-12.958252,3.3497849-26.20895,3.3442078-40.2544098  c-7.2967644,16.9956284-8.2890816,28.6032486-9.499073,41.0949097c0.0212135-9.252388-0.2846375-16.7344284-1.3193779-23.6460991  c0.080368-5.3880043,0.5134621-10.7269135,1.5616035-16.2019958c5.1603012,0.0279045,7.8325462-8.9632797,3.4323883-11.9726181  c-3.7527504,4.6993065-5.1435585,15.3023224-5.5297813,24.9944878c-0.6362457-3.3799362-1.4689445-6.6649704-2.5516815-10.0047264  c-2.4969978,10.4445-1.464489,17.9879532-1.6687584,28.9202614c-0.5982895-4.9091644-1.8205566-9.6352425-3.5942421-14.0923347  c-0.3181229-10.5695343-0.1663208-20.87117,1.3796501-31.4317646c5.1111946-0.2913303,7.3112679-9.3361053,2.7916718-12.1199722  c-4.8299026,6.6817131-5.1815147,28.8555088-4.9158554,41.7646408c-2.8340988-6.4707413-6.8402214-12.3286972-11.7817459-17.3036995  C44.7915115,54.9593277,50.5210991,71.8478012,47.6512794,84.86409h2.4356041l0.0011101,0.0011139L50.086895,84.8652649z   M58.1996078,28.6711769c-5.459446,1.1251621-5.9863052,11.2481842-0.5547638,12.6300774  C57.8346024,37.8242149,58.2866745,31.6782894,58.1996078,28.6711769z M48.9896469,15.1347332  c-5.3991776,1.384119-5.4427032,11.5239048,0.0479965,12.6423531  C49.0610809,24.2922421,49.2207069,18.1329079,48.9896469,15.1347332z"/><text x="0" y="115" fill="#000000" font-size="5px" font-weight="bold" font-family="'Helvetica Neue', Helvetica, Arial-Unicode, Arial, Sans-serif">Created by kareemov1000</text><text x="0" y="120" fill="#000000" font-size="5px" font-weight="bold" font-family="'Helvetica Neue', Helvetica, Arial-Unicode, Arial, Sans-serif">from the Noun Project</text></svg>