<svg xmlns="http://www.w3.org/2000/svg" xmlns:xlink="http://www.w3.org/1999/xlink" xml:space="preserve" version="1.1" style="shape-rendering:geometricPrecision;text-rendering:geometricPrecision;image-rendering:optimizeQuality;" viewBox="0 0 847 1058.75" x="0px" y="0px" fill-rule="evenodd" clip-rule="evenodd"><defs><style type="text/css">
   
    .fil0 {fill:black}
   
  </style></defs><g><path class="fil0" d="M269 302c61,-20 107,-6 147,21l0 188c-46,-29 -95,-38 -147,-19l0 -190zm-27 19l13 -2 0 192c85,-20 133,-4 168,24 36,-28 83,-44 169,-24l0 -192 12 2 0 208c-59,-14 -134,-22 -181,25 -48,-41 -116,-45 -181,-25l0 -208zm335 -19c-61,-20 -107,-6 -147,21l0 188c46,-29 95,-38 146,-19l1 -190z"/></g><text x="0" y="862" fill="#000000" font-size="5px" font-weight="bold" font-family="'Helvetica Neue', Helvetica, Arial-Unicode, Arial, Sans-serif">Created by QOLBIN SALIIM</text><text x="0" y="867" fill="#000000" font-size="5px" font-weight="bold" font-family="'Helvetica Neue', Helvetica, Arial-Unicode, Arial, Sans-serif">from the Noun Project</text></svg>