<svg xmlns="http://www.w3.org/2000/svg" xmlns:xlink="http://www.w3.org/1999/xlink" version="1.1" x="0px" y="0px" viewBox="0 0 100 125" enable-background="new 0 0 100 100" xml:space="preserve"><g><path d="M70.538,39.11l-4.621-5.662l1.27-4.621c0,0-2.312-0.001-3.466,1.501c-1.155,1.503-7.279,12.596-8.434,13.058   c-1.155,0.461-17.908,2.31-23.339,1.154c-0.054-0.012-0.103-0.004-0.156-0.009l-4.521-3.039c-0.723-0.518-1.726-0.352-2.244,0.37   c-0.519,0.724-0.352,1.728,0.371,2.245l4.027,3.396c-1.627,6.342-0.441,20.794-0.183,23.67h9.49   c-0.474-1.804-1.763-8.081,1.764-12.883l11.438,1.849l2.207,11.034h6.827c0.115-2.729,0.732-15.639,2.175-20.277l7.625,3.004   l4.506-8.203C75.275,45.696,70.538,43.731,70.538,39.11z"/></g><text x="0" y="115" fill="#000000" font-size="5px" font-weight="bold" font-family="'Helvetica Neue', Helvetica, Arial-Unicode, Arial, Sans-serif">Created by lipi</text><text x="0" y="120" fill="#000000" font-size="5px" font-weight="bold" font-family="'Helvetica Neue', Helvetica, Arial-Unicode, Arial, Sans-serif">from the Noun Project</text></svg>