<svg xmlns="http://www.w3.org/2000/svg" xmlns:xlink="http://www.w3.org/1999/xlink" version="1.1" x="0px" y="0px" viewBox="0 0 100 125" enable-background="new 0 0 100 100" xml:space="preserve"><path d="M50.058,70.771c-3.162,0-6.225,0.322-9.207,0.887c1.083-10.41,4.427-22.538,13.507-30.376c0,0,15.35-5.633,24.365,16.568  c0,0,7.177-19.165-11.164-25.783c0,0,11.239-1.405,21.774,7.848c0,0-5.163-14.093-21.071-14.19c0,0,4.666-7.176,14.356-7.93  c0,0-9.42-3.04-19.308,4.802c0,0,2.256-14.403-16.142-18.092c0,0,11.716,5.644,9.912,17.88c0,0-12.149-17.88-32.263-6.088  c0,0,19.638-4.733,24.127,15.049c0,0-1.776-2.97-8.652-4.266c0,0,7.101,4.296,6.678,11.183c0,0-12.864,8.892-18.247,37.383  c-8.992,4.323-16.467,11.259-21.452,19.852h85.56C84.271,80.738,68.349,70.771,50.058,70.771z"/><text x="0" y="115" fill="#000000" font-size="5px" font-weight="bold" font-family="'Helvetica Neue', Helvetica, Arial-Unicode, Arial, Sans-serif">Created by Michael Ribeiro</text><text x="0" y="120" fill="#000000" font-size="5px" font-weight="bold" font-family="'Helvetica Neue', Helvetica, Arial-Unicode, Arial, Sans-serif">from the Noun Project</text></svg>