<svg xmlns:dc="http://purl.org/dc/elements/1.1/" xmlns:cc="http://creativecommons.org/ns#" xmlns:rdf="http://www.w3.org/1999/02/22-rdf-syntax-ns#" xmlns:svg="http://www.w3.org/2000/svg" xmlns="http://www.w3.org/2000/svg" xmlns:sodipodi="http://sodipodi.sourceforge.net/DTD/sodipodi-0.dtd" xmlns:inkscape="http://www.inkscape.org/namespaces/inkscape" version="1.1" x="0px" y="0px" viewBox="0 0 100 125"><g transform="translate(0,-952.36218)"><path style="color:#000000;enable-background:accumulate;" d="m 40.584539,961.87377 c -2.97025,0.9698 -3.96905,1.9331 -3.96905,4.8431 -3.29846,0.5787 -4.98382,2.7826 -5.34415,5.3117 2.07497,0.4931 4.09476,3.0064 4.62535,4.9058 1.47459,0.6365 2.77354,1.6093 3.50026,3.0933 0.88171,1.8013 0.81585,4.1822 -0.40628,6.2804 -0.0437,1.3799 -0.16215,2.3807 -0.81256,3.5308 0.98006,0.5803 1.95084,1.1249 3.40651,1.1249 0.99008,2.9093 2.9677,3.9071 5.93794,2.937 0.53011,0.3462 0.98272,0.6202 1.40636,0.8436 l -0.40629,8.62393 -11.96964,-14.93553 c 0.38726,-0.8925 0.61029,-1.8564 0.53129,-2.7809 2.34019,-3.3962 -0.0125,-6.7768 -2.93772,-7.3427 -1.09892,-4.7541 -5.77665,-5.6289 -9.34445,-4.5307 -1.75515,-0.5658 -4.04301,-0.9145 -5.844189,2.2497 -1.75514,0.5662 -2.34392,1.1454 -2.34392,2.8434 -1.75516,0 -2.93772,1.114 -2.93772,2.8121 -1.75516,1.6982 -2.3177,3.4225 -0.56255,5.6868 -0.0872,2.9343 2.42445,6.3999 6.40673,5.6554 0.862069,2.3491 5.102449,2.7928 7.625569,1.6873 3.14198,0.2611 5.33955,-0.7489 6.28172,-2.9683 l 5.09414,8.62383 -6.563,-1.62483 c 0.14123,-0.8505 -0.13546,-1.6445 -0.65629,-2.2809 -1.36564,0.499 -2.74803,0.4805 -4.03156,0.25 -1.56924,0.5423 -3.25121,0.7075 -4.90661,0.4061 -1.47756,-0.2689 -3.046029,-0.9237 -4.031559,-2.2185 -1.51789,-0.051 -2.94228,-0.4473 -4.0628,-1.1872 -1.34486,0.6529 -2.80356,2.0912 -2.87522,3.7495 -1.4851302,1.2347 -1.9851402,2.4773 -0.50003,4.12443 -0.0738,2.1337 2.06828,4.6655 5.4379,4.1244 0.72944,1.7081 4.303029,2.0227 6.437989,1.2186 1.8363,0.4009 4.44283,0.028 4.93787,-2.0311 1.20003,-0.2687 2.27587,-1.202 2.90646,-2.312 l 5.9067,1.7809 10.00075,8.9988 -1.00008,17.9975 -1.71888,-2.3122 c 0.43359,-0.5196 0.71881,-1.0861 0.71881,-1.6872 2.00015,-1.9998 1.00007,-3.9995 -1.00008,-4.9994 -1.10252,-2.4775 -5.00037,-1.9997 -5.00037,0 -2.00015,0 -4.0003,1.9998 -3.00023,2.9996 -2.00015,3.9995 1.00008,5.9992 4.0003,4.9993 0.91132,0.4556 2.0208,0.2562 2.96897,-0.2499 l 3.03148,4.2494 -1.00007,12.9982 12.00089,0 -1.00007,-25.9964 16.188708,-9.7175 c 0.45825,1.6767 2.78443,2.7126 4.93787,2.4997 1.66995,0.8628 5.30196,1.4854 6.31297,-0.375 2.5717,0.5064 5.56386,-0.6643 5.87544,-2.562 2.44968,-1.4144 0.5569,-6.0753 -1.3751,-6.5929 1.03536,-3.8632 -4.49117,-6.37313 -7.90684,-5.21813 -1.84232,-1.1887 -3.96007,-0.5709 -5.34415,0.62493 -1.55408,-0.68433 -3.8459,0.067 -4.56284,2.3435 -1.33861,2.0381 -1.06404,4.0386 -0.28127,5.1243 l -4.84412,0.8749 5.03163,-9.49873 c 0.13322,0 0.2718,-0.023 0.40628,-0.031 1.12393,-0.7594 2.50059,-1.0748 3.81279,-0.8749 1.47041,-0.8839 2.77318,-1.3222 4.31282,-1.1878 0.0603,-0.1226 0.0918,-0.2681 0.12501,-0.4062 2.61509,-0.1766 5.19072,-2.0856 5.00037,-3.9994 2.00015,-1.9998 -1.00007,-5.9992 -3.00022,-5.9992 0,-2.7496 -2.8154,-4.0853 -5.56292,-3.9995 -2.08005,0.1701 -3.48181,0.9149 -5.12538,1.7815 0.28851,2.4385 -1.02981,4.9083 -3.56277,6.2179 -0.79045,2.2904 -2.46895,3.9402 -4.34407,4.8432 0.59746,1.2643 1.87747,2.2657 3.81278,2.2184 l -10.907068,12.93573 -1.09383,-15.84163 c 0.31554,-0.183 0.66005,-0.3824 1.03133,-0.6249 2.97024,0.9701 8.916908,-0.025 9.906988,-4.8744 2.97024,-0.9695 3.95906,-3.872 2.96897,-5.8116 1.98017,-0.97 3.9378,-1.9335 3.9378,-4.8431 3.96034,-5.8193 0.0125,-11.6534 -4.93787,-12.6233 0,-2.9096 -1.98888,-4.8418 -3.96905,-5.8117 -0.99008,-1.9398 -3.957778,-1.9388 -5.937938,-0.9685 -0.99009,-1.9401 -2.9677,-1.9386 -5.93795,-0.9687 -4.28136,-1.5615 -8.12249,0.8022 -9.90699,3.874 z" fill="#000000" stroke="none" marker="none" visibility="visible" display="inline" overflow="visible"/></g><text x="0" y="115" fill="#000000" font-size="5px" font-weight="bold" font-family="'Helvetica Neue', Helvetica, Arial-Unicode, Arial, Sans-serif">Created by Orin zuu</text><text x="0" y="120" fill="#000000" font-size="5px" font-weight="bold" font-family="'Helvetica Neue', Helvetica, Arial-Unicode, Arial, Sans-serif">from the Noun Project</text></svg>