<svg xmlns="http://www.w3.org/2000/svg" xmlns:xlink="http://www.w3.org/1999/xlink" version="1.1" x="0px" y="0px" viewBox="0 0 2000 2500" enable-background="new 0 0 2000 2000" xml:space="preserve"><path d="M1962,680c-4-6-16-16-24-18c-6-2-18-6-24-10c-4-4-48-24-56-26s-6-22-22-76c-10-28-54-56-98-72c-42-16-50-14-68-22  c-22-8-78-12-118,0c-42,12-66,38-82,52s-44,62-50,74c-8,12-14,22-28,30c-12,8-54,22-72,32s-66,36-84,40c-18,4-170,20-270,26  c-98,6-286,32-300,34c-14,2-58,14-82,18c-24,4-148-8-172-8c-24,0-126-10-170-18c-40-8-128-20-146-14s-12,28-4,36s8,12,66,42  c16,8,82,30,152,50s152,26,168,32c16,8,2,24-10,48c-12,24-12.5,74.4-5.5,101.6c7,27.2,19.5,42.4,25.5,54.4c8,12,4,28,0,44  c-2,16-8,76-16,96s-24,56-30,74c-6,18-6,118,22,162c28,44,60,66,82,70c20,4,67.3,12.8,92.1,8.2s22.1-34.7,22.2-35.4  c2.6,0.9,33.2,10.8,35.6,11.3c20,4,66,6,80,6c14,0,26-2,42-2c20,0,19.4-13.7,20-20c0.6-6.2,0-22-16-38c-16-18-32-18-42-18  c-10,0-16-10-28-18c-12-8-26-20-34-26c-8-6-8-44,0-50c8-8,14-12,20-16c6-4,16-14,16-14s26-18,54-42c12.9-11.9,35.1-37.5,55.9-62.1  c5.5,2.3,10.9,4.4,16.1,6.1c24,8,86,18,120,14c34-2,108-12,114-12c14,0,8,18,8,28s-10,40-18,60c-8,20-10,72-10,82s0.6,16.2-0.1,26.9  c-0.7,10.1-1.1,17.4-1.1,23.4c0,6-0.8,19.6,1.2,25.6c2,6,6,18,10,32c2,8,12,14,18,16s40,6,54,6c14,0,40-2,62-4c22-4,28-12,24-28  c-4-16-16-28-30-32c-14-4-24-6-28-20c-4-14,6-30,12-40c8-12,46-64,46-64s4,42,6,50c2,8,2,36,2,46s6,42,8,52c2,10,14,40,22,50  c10,8,38,14,50,16c10,2,58,4,66,4h38c8,0,20-20,20-24c0-4,4-28-6-38s-28-14-38-14s-22,2-32-10s-8-38-8-50c0-10,2-36,2-44  c2-8,8-70,10-112c2-38,36-86,44-96c10-12,44-38,56-48c14-8,46-48,54-74c10-28,22-86,42-114c20-30,32-40,42-48s26-18,38-32  c12-14,46-8,56-4s96,26,164-14c22-12,52-66,54-76c4-10,4-22,4-22s6-8,8-12c2-6,4-14,4-22C1968,692,1966,686,1962,680z M568,1416  c-8-6-8-44,0-50c7-7,12.5-10.9,17.7-14.5c4.6,33.7,13.7,71.6,28.3,94.5c2.6,4.1,5.2,8,7.9,11.7c-6-3.4-11.4-10-19.9-15.7  C590,1434,576,1422,568,1416z"/><text x="0" y="2015" fill="#000000" font-size="5px" font-weight="bold" font-family="'Helvetica Neue', Helvetica, Arial-Unicode, Arial, Sans-serif">Created by Daniel Ducrocq</text><text x="0" y="2020" fill="#000000" font-size="5px" font-weight="bold" font-family="'Helvetica Neue', Helvetica, Arial-Unicode, Arial, Sans-serif">from the Noun Project</text></svg>