<svg xmlns="http://www.w3.org/2000/svg" xmlns:xlink="http://www.w3.org/1999/xlink" version="1.1" x="0px" y="0px" viewBox="0 0 89.874 79.73124999999999" enable-background="new 0 0 89.874 63.785" xml:space="preserve"><g><g><path d="M14.187,46.213c-1.197,0-2.168,0.96-2.168,2.145c0,1.186,0.971,2.146,2.168,2.146s2.167-0.961,2.167-2.146    C16.354,47.173,15.384,46.213,14.187,46.213z M89.874,45.218c0,0-0.919-4.558-5.881-7.32c1.889-2.455,5.14,0.063,5.14,0.063    s-0.853-5.906-6.676-9.657c1.311-1.344,5.165-0.059,5.165-0.059s-1.945-6.882-9.585-8.045c0-2.632,4.192-1.845,4.192-1.845    s-1.77-7.034-10.802-7.034c0.703-1.686,4.526-1.862,4.526-1.862s-8.159-5.794-16.203-3.246c-0.373-2.862,5.306-3.485,5.306-3.485    s-11.313-4.581-16.829,1.08C47.82,1.617,49.768,0,49.768,0s-9.243,1.383-13.421,8.828c-0.169-2.884,0.684-5.284,0.684-5.284    s-9.855,3.632-12.945,13.279c0-2.331,0-4.973,0-4.973S12.637,26.736,9.439,37.456c-2.875,9.632-5.803,14.306-6.836,16.988    c-0.118-0.02-0.236-0.038-0.359-0.038C1.004,54.406,0,55.471,0,56.785c0,1.315,1.004,2.38,2.244,2.38    c0.732,0,1.377-0.378,1.787-0.953c6.403,2.878,25.625-1.711,25.625-1.711s0.629,2.792-0.712,4.167    c-1.968,2.019,2.152,3.596,5.363,2.984c2.773-0.527,5.769-0.094,6.903-2.634c1.135-2.539,1.854-3.989,1.854-3.989    s7.839,1.588,15.368,0c7.53-1.588,14.337-5.184,14.337-5.184s1.135-0.3,1.135,2.115c0,2.376,0.738,3.956,5.879,2.645    c3.062-0.78,4.474-1.903,5.3-5.078c0.825-3.175,0.285-4.612-0.349-7.089C86.793,42.326,89.874,45.218,89.874,45.218z     M63.205,11.809c-3.854,0.295-5.768,4.652-5.768,4.652s0.38-4.44,3.431-5.167c-1.039-2.086-8.032-1.358-8.032-1.358    S59.309,6.603,63.205,11.809z M48.351,12.894c-3.577,1.5-4.085,6.25-4.085,6.25s-0.976-4.344,1.707-6    c-1.615-1.656-8.048,1.25-8.048,1.25S43.077,9.175,48.351,12.894z M36.278,18.331c-2.927,3-5.609,8.688-5.609,8.688    s1.006-4.156,3.628-7.844c-5.183-1.375-9.542,2.719-9.542,2.719S29.968,15.55,36.278,18.331z M15.1,51.284    c-2.751,0-4.982-2.254-4.982-5.033c0-2.78,2.231-5.033,4.982-5.033s4.982,2.253,4.982,5.033    C20.082,49.03,17.851,51.284,15.1,51.284z M28.718,54.447c-1.402-1.438,5.294-4.597,3.521-10.493    c-3.008-10-12.891-11.602-12.891-11.602s9.618,1.072,14.292,10.447C36.707,48.948,30.018,55.78,28.718,54.447z M41.095,35.894    c0,0,1.341-6.094,3.476-7.563c-3.049-2.188-10.061,1.438-10.061,1.438s6.951-5.875,12.133-1.875    C42.375,30.956,41.095,35.894,41.095,35.894z M48.968,44.845c0,0,3.973-4.738,6.528-5.01c-1.691-3.397-9.543-3.565-9.543-3.565    s8.827-1.848,11.574,4.176C52.357,41.099,48.968,44.845,48.968,44.845z M53.14,27.641c0,0,3.217-5.306,5.703-5.976    c-2.181-3.091-9.964-2.024-9.964-2.024s8.445-3.213,12.063,2.308C55.929,23.407,53.14,27.641,53.14,27.641z M63.374,36.358    c0,0,1.52-4.356,4.687-4.351c-0.475-2.339-7.487-3.292-7.487-3.292s7.179-1.781,9.635,4.37    C66.371,32.454,63.374,36.358,63.374,36.358z M67.39,24.564c0,0,1.916-4.001,5.017-3.552c-0.234-2.33-7.015-4.233-7.015-4.233    s7.21-0.719,9.015,5.577C70.706,21.207,67.39,24.564,67.39,24.564z M74.718,36.673c0,0,2.259-2.929,4.722-2.001    c0.21-1.95-5.013-4.734-5.013-4.734s6.026,0.715,6.417,6.196C78.013,34.524,74.718,36.673,74.718,36.673z"/></g></g><text x="0" y="78.785" fill="#000000" font-size="5px" font-weight="bold" font-family="'Helvetica Neue', Helvetica, Arial-Unicode, Arial, Sans-serif">Created by Arancha R</text><text x="0" y="83.785" fill="#000000" font-size="5px" font-weight="bold" font-family="'Helvetica Neue', Helvetica, Arial-Unicode, Arial, Sans-serif">from the Noun Project</text></svg>