<svg xmlns="http://www.w3.org/2000/svg" xmlns:xlink="http://www.w3.org/1999/xlink" version="1.1" x="0px" y="0px" viewBox="0 0 49 61.25" enable-background="new 0 0 49 49" xml:space="preserve"><path d="M45.984,38.893h-31.23l-9.875-8.632c-0.469-0.409-1.18-0.361-1.588,0.106c-0.41,0.468-0.361,1.179,0.105,1.587l9.809,8.574  v4.123h2.25v-3.509h25.916v3.509h2.25v-3.509h2.363c0.621,0,1.125-0.503,1.125-1.125S46.605,38.893,45.984,38.893z"/><path d="M11.213,29.546c-2.213-1.761-4.125,0.57-4.125,0.57l8.494,7.425h28.525c0-2.477-2.717-3.015-4.125-3.015s-22.533,0-22.533,0  S13.426,31.307,11.213,29.546z"/><path d="M9.014,24.606c1.822-0.849,3.131-2.199,3.623-3.539c1.16,0.419,2.719,0.373,4.297-0.196l5.885,12.62h1.654l-6.176-13.245  c1.496-0.847,2.566-2.035,3-3.217c1.342,0.484,3.217,0.35,5.039-0.5c2.846-1.327,4.465-3.88,3.615-5.702L2.32,23.712  C3.17,25.534,6.168,25.934,9.014,24.606z"/><path d="M29.396,9.963l-9.336-2.067l-8.389-1.857l-0.586-1.256c-0.176-0.375-0.621-0.538-0.998-0.362  C9.713,4.594,9.551,5.041,9.727,5.416l0.572,1.23l-3.99,7.663l-4.418,8.48l13.752-6.413L29.396,9.963z"/><polygon points="26.869,42.178 28.023,44.651 29.678,44.651 28.523,42.178 "/><text x="0" y="64" fill="#000000" font-size="5px" font-weight="bold" font-family="'Helvetica Neue', Helvetica, Arial-Unicode, Arial, Sans-serif">Created by Eddy Wong</text><text x="0" y="69" fill="#000000" font-size="5px" font-weight="bold" font-family="'Helvetica Neue', Helvetica, Arial-Unicode, Arial, Sans-serif">from the Noun Project</text></svg>