<svg xmlns="http://www.w3.org/2000/svg" xmlns:xlink="http://www.w3.org/1999/xlink" version="1.1" x="0px" y="0px" viewBox="0 0 100 125" enable-background="new 0 0 100 100" xml:space="preserve"><polygon points="26.375,68.047 27.725,67.279 33.428,67.279 46.279,75.528 40.259,72.998 26.375,83.801 28.701,83.801 12.47,94.017   23.099,95.002 27.247,92.608 24.853,95.002 31.889,95.002 57.134,82.274 62.724,82.274 69.543,89.229 76.96,86.84 70.819,82.508   78.589,86.213 82.897,75.441 76.673,74.257 83.443,74.248 85.999,67.945 72.557,67.945 85.996,49.532 85.981,31.253 80.14,19.092   78.906,28.701 78.906,17.845 67.558,5.05 67.561,21.935 64.084,19.062 64.061,37.003 52.08,58.985 35.529,58.985 32.782,61.463   28.065,62.981 26.375,65.277 "/><text x="0" y="115" fill="#000000" font-size="5px" font-weight="bold" font-family="'Helvetica Neue', Helvetica, Arial-Unicode, Arial, Sans-serif">Created by Yuriy Obodnikov</text><text x="0" y="120" fill="#000000" font-size="5px" font-weight="bold" font-family="'Helvetica Neue', Helvetica, Arial-Unicode, Arial, Sans-serif">from the Noun Project</text></svg>