<svg xmlns="http://www.w3.org/2000/svg" data-name="Layer 1" viewBox="0 0 128 160" x="0px" y="0px"><title>Light House On Bold</title><path d="M87,117H82.93l-2-27.08-2-26L77.08,39A3,3,0,0,0,80,36V34a1,1,0,0,0-1-1V27a1,1,0,0,0-2,0v1H75V16a1,1,0,0,0,0-2h-.06A9,9,0,0,0,67,6.06V6a3,3,0,0,0-6,0v.06A9,9,0,0,0,53.06,14H53a1,1,0,0,0,0,2V28H51V27a1,1,0,0,0-2,0v6a1,1,0,0,0-1,1v2a3,3,0,0,0,2.92,3L49.05,63.92l-1.95,26-2,27.08H41a4,4,0,0,0-4,4v3a1,1,0,0,0,1,1H90a1,1,0,0,0,1-1v-3A4,4,0,0,0,87,117Zm-18,0H59V106a5,5,0,0,1,10,0ZM55,30h8v3H55Zm10,3V30h8v3ZM52.93,39H75.07l1.8,24H51.13ZM68,76v6H60V76a4,4,0,0,1,8,0Zm9-46v3H75V30ZM55,16H73V28H65V27a1,1,0,0,0-2,0v1H55ZM51,30h2v3H51ZM49,91H79l1.95,26H71V106a7,7,0,0,0-14,0v11H47.08Z"/><path d="M84,16a1,1,0,0,0,.35-.06l24-9a1,1,0,0,0-.7-1.87l-24,9A1,1,0,0,0,84,16Z"/><path d="M108.35,33.06l-24-9a1,1,0,1,0-.7,1.87l24,9a1,1,0,0,0,.7-1.87Z"/><path d="M84,21h24a1,1,0,0,0,0-2H84a1,1,0,0,0,0,2Z"/><path d="M19.65,6.94l24,9a1,1,0,1,0,.7-1.87l-24-9a1,1,0,1,0-.7,1.87Z"/><path d="M44.94,24.65a1,1,0,0,0-1.29-.58l-24,9a1,1,0,0,0,.7,1.87l24-9A1,1,0,0,0,44.94,24.65Z"/><path d="M20,21H44a1,1,0,0,0,0-2H20a1,1,0,0,0,0,2Z"/><path d="M64,45a5,5,0,0,0-5,5v6a1,1,0,0,0,1,1h8a1,1,0,0,0,1-1V50A5,5,0,0,0,64,45Zm3,10H61V50a3,3,0,0,1,6,0Z"/><circle cx="64" cy="21" r="3"/><text x="0" y="143" fill="#000000" font-size="5px" font-weight="bold" font-family="'Helvetica Neue', Helvetica, Arial-Unicode, Arial, Sans-serif">Created by Yoyon Pujiyono</text><text x="0" y="148" fill="#000000" font-size="5px" font-weight="bold" font-family="'Helvetica Neue', Helvetica, Arial-Unicode, Arial, Sans-serif">from the Noun Project</text></svg>