<svg xmlns="http://www.w3.org/2000/svg" xmlns:xlink="http://www.w3.org/1999/xlink" version="1.1" x="0px" y="0px" viewBox="0 0 50 62.5" enable-background="new 0 0 50 50" xml:space="preserve"><g><path d="M24.8,27.2c-0.5,2.5-2.9,4.1-5.4,3.6c-2.5-0.5-4.1-2.9-3.6-5.4c0.3-1.3,1.3-3.6,2.6-5.4c0.8,0.8,1.9,1.4,3.1,1.6   c0.4,0.1,0.8,0.1,1.2,0.1c0.7,0,1.3-0.1,1.9-0.3C24.9,23.5,25,25.9,24.8,27.2z"/><path d="M23,9.7c-0.2,0-0.3,0-0.5,0c-2.1,0-3.9,1.1-5,2.7c-1.8-1.5-3.4-3.5-4-4.8c-1.1-2.3-0.1-5.1,2.3-6.1   c2.3-1.1,5.1-0.1,6.1,2.3C22.5,4.9,23,7.4,23,9.7z"/><path d="M35.9,23.1c-1.2,2.2-4.1,3-6.3,1.8c-1.1-0.6-2.9-2.2-4.2-3.9c1.5-0.8,2.7-2.3,3-4.1c0.1-0.5,0.1-1,0.1-1.5   c2.2,0.2,4.5,0.9,5.6,1.5C36.4,18.1,37.2,20.9,35.9,23.1z"/><path d="M17.7,19.2c-1.9,1.2-4.3,2.1-5.7,2.2c-2.5,0.3-4.8-1.5-5.1-4c-0.3-2.5,1.5-4.8,4-5.1c1.4-0.2,4,0.1,6.2,0.8   c-0.2,0.4-0.4,0.9-0.5,1.4C16.3,16.2,16.7,17.9,17.7,19.2z"/><path d="M33.5,11.5c-1,0.9-3,2.1-5.1,2.8c-0.2-0.7-0.5-1.4-0.9-2c-0.9-1.3-2.1-2.2-3.6-2.5c0.8-2.1,2.3-4.2,3.3-5.1   C29.1,3,32,3.1,33.7,5C35.5,6.8,35.4,9.8,33.5,11.5z"/><path d="M30.6,45.7c0,1.1,0,2.2-0.1,3.3h-3.8c2.1-3.4,3.5-13.8-2-27.7c0.2-0.1,0.4-0.1,0.5-0.2C28.5,27.3,30.6,36,30.6,45.7z"/><circle cx="22.5" cy="15.7" r="4"/><path d="M27.1,41.9c-1.7-1.9-5.2-4.7-7.4-5.3c2.1,0.1,6,2.7,7.8,4.3c-1-5-5.2-7.7-9.8-5.8C18,40.2,22.2,43.1,27.1,41.9z"/><path d="M40.8,38.6c-2,2.2-5.1,3.5-8.7,3.1c1.8-2.8,5.9-7.1,8.7-8.2c-2.7,0.5-7.3,4.7-9.3,7.1c0.4-6.7,5.4-11,11.7-9.3   C43.3,34.2,42.4,36.8,40.8,38.6z"/></g><text x="0" y="65" fill="#000000" font-size="5px" font-weight="bold" font-family="'Helvetica Neue', Helvetica, Arial-Unicode, Arial, Sans-serif">Created by Vectors Market</text><text x="0" y="70" fill="#000000" font-size="5px" font-weight="bold" font-family="'Helvetica Neue', Helvetica, Arial-Unicode, Arial, Sans-serif">from the Noun Project</text></svg>