<svg xmlns="http://www.w3.org/2000/svg" xmlns:xlink="http://www.w3.org/1999/xlink" version="1.2" baseProfile="tiny" x="0px" y="0px" viewBox="0 0 100 125" xml:space="preserve"><g><polygon points="92.95,5.027 74.427,5.027 68.822,10.636 87.345,10.636  "/><polygon points="84.533,13.45 66.01,13.45 60.406,19.058 78.929,19.058  "/><polygon points="76.116,21.873 57.593,21.873 51.989,27.481 70.511,27.481  "/><rect x="50" y="30.296" width="19.688" height="19.701"/><polygon points="86.563,15.399 80.938,21.028 80.938,39.563 86.563,33.935  "/><polygon points="78.125,23.842 72.5,29.471 72.5,48.007 78.125,42.378  "/><polygon points="15.989,19.058 33.929,19.058 39.533,13.45 21.593,13.45  "/><polygon points="89.375,53.635 95,48.007 95,29.471 89.375,35.1  "/><rect x="5" y="75.326" width="19.688" height="19.701"/><polygon points="70.45,5.027 51.927,5.027 46.322,10.636 64.845,10.636  "/><polygon points="86.563,60.43 80.938,66.059 80.938,84.011 86.563,78.382  "/><polygon points="86.563,37.914 80.938,43.543 80.938,62.079 86.563,56.45  "/><polygon points="24.405,10.636 42.345,10.636 47.95,5.027 30.01,5.027  "/><polygon points="62.033,13.45 43.51,13.45 37.906,19.058 56.429,19.058  "/><rect x="50" y="75.326" width="19.688" height="19.701"/><rect x="27.5" y="75.326" width="19.688" height="19.701"/><polygon points="78.125,68.873 72.5,74.502 72.5,92.454 78.125,86.825  "/><rect x="5" y="30.296" width="19.688" height="19.701"/><polygon points="89.375,75.568 95,69.939 95,51.986 89.375,57.615  "/><polygon points="53.616,21.873 35.093,21.873 29.489,27.481 48.011,27.481  "/><rect x="5" y="52.811" width="19.688" height="19.701"/><rect x="50" y="52.811" width="19.688" height="19.701"/><rect x="27.5" y="52.811" width="19.688" height="19.701"/><rect x="27.5" y="30.296" width="19.688" height="19.701"/><polygon points="7.571,27.481 25.511,27.481 31.116,21.873 13.176,21.873  "/><polygon points="89.375,31.12 95,25.491 95,6.956 89.375,12.584  "/><polygon points="78.125,46.358 72.5,51.986 72.5,70.522 78.125,64.893  "/></g><text x="0" y="115" fill="#000000" font-size="5px" font-weight="bold" font-family="'Helvetica Neue', Helvetica, Arial-Unicode, Arial, Sans-serif">Created by Aleks</text><text x="0" y="120" fill="#000000" font-size="5px" font-weight="bold" font-family="'Helvetica Neue', Helvetica, Arial-Unicode, Arial, Sans-serif">from the Noun Project</text></svg>