<svg xmlns="http://www.w3.org/2000/svg" viewBox="0 0 120 150" x="0px" y="0px"><title>135 Chemistry</title><circle cx="60" cy="60" r="5"/><path d="M60,10c-6.9,0-12.5,22.39-12.5,50s5.6,50,12.5,50S72.5,87.61,72.5,60,66.9,10,60,10Zm1.78,93.39a2,2,0,0,1-3.55,0,44.63,44.63,0,0,1-3.61-10.79c-2-8.92-3.12-20.5-3.12-32.61s1.11-23.69,3.12-32.61a44.63,44.63,0,0,1,3.61-10.79,2,2,0,0,1,3.55,0,44.64,44.64,0,0,1,3.61,10.79c2,8.92,3.12,20.5,3.12,32.61s-1.11,23.69-3.12,32.61A44.64,44.64,0,0,1,61.78,103.39Z"/><path d="M16.7,35c-3.45,6,13.14,22,37.05,35.83S99.85,91,103.3,85,90.16,63,66.25,49.17,20.15,29,16.7,35ZM98.47,80.16a2,2,0,0,1-1.78,3.08A44.63,44.63,0,0,1,85.55,81c-8.73-2.72-19.31-7.55-29.8-13.6s-20-12.8-26.68-19a44.63,44.63,0,0,1-7.54-8.52,2,2,0,0,1,1.78-3.08A44.64,44.64,0,0,1,34.45,39c8.73,2.72,19.31,7.55,29.8,13.6s20,12.8,26.68,19A44.64,44.64,0,0,1,98.47,80.16Z"/><path d="M53.75,49.17C29.84,63,13.25,79,16.7,85s25.64-.37,49.55-14.17S106.75,41,103.3,35,77.66,35.37,53.75,49.17ZM29.07,71.64c6.72-6.2,16.19-12.95,26.68-19S76.82,41.75,85.55,39a44.64,44.64,0,0,1,11.14-2.27,2,2,0,0,1,1.78,3.08,44.63,44.63,0,0,1-7.54,8.52c-6.72,6.2-16.19,12.95-26.68,19S43.18,78.25,34.45,81a44.63,44.63,0,0,1-11.14,2.27,2,2,0,0,1-1.78-3.08A44.64,44.64,0,0,1,29.07,71.64Z"/><text x="0" y="135" fill="#000000" font-size="5px" font-weight="bold" font-family="'Helvetica Neue', Helvetica, Arial-Unicode, Arial, Sans-serif">Created by Jae Deasigner</text><text x="0" y="140" fill="#000000" font-size="5px" font-weight="bold" font-family="'Helvetica Neue', Helvetica, Arial-Unicode, Arial, Sans-serif">from the Noun Project</text></svg>