<svg xmlns="http://www.w3.org/2000/svg" xmlns:xlink="http://www.w3.org/1999/xlink" version="1.1" x="0px" y="0px" viewBox="0 0 100 125" style="enable-background:new 0 0 100 100;" xml:space="preserve"><path d="M57.0651474,43.4675217c0-3.123867-2.0541725-5.862278-5.0303459-6.7576485v-3.3054619l-0.3748055-0.1181564  c-0.0029068-0.0009689-0.2498703-0.0789337-0.6062775-0.149147L50.7776985,6.5699253C50.7776985,5.5283122,50.5162048,5,50,5  s-0.7776985,0.5278282-0.7776985,1.5645986l-0.2755356,26.5720253c-0.3360672,0.0663414-0.5738335,0.1389771-0.6072464,0.1496315  l-0.3752899,0.1181564v3.3054619c-2.9756889,0.8958549-5.029377,3.6342659-5.029377,6.7576485  c0,2.9655228,1.8372307,5.5891685,4.6013031,6.6181908l-3.1020775,42.2732124C44.4340782,94.037323,46.4625854,95,50,95  c2.4667473,0,4.1383667-0.4222641,4.9702988-1.2551651c0.3903046-0.3903046,0.5965919-0.8745499,0.5946541-1.42659  l-3.1001396-42.233017C55.2279167,49.0557213,57.0651474,46.43256,57.0651474,43.4675217z M55.1936569,92.3448792  C55.1946259,93.2066574,54.519104,94.6280975,50,94.6280975c-3.2520752,0-5.1941414-0.8482742-5.1941414-2.2687531  l3.1220551-42.5309486c-2.67873-0.8749733-4.6211586-3.393837-4.6211586-6.3609924  c0-3.1150322,2.1426659-5.7323837,5.0295563-6.4750328V33.676918l0.11483-0.0361977  c0.0219727-0.006958,0.3898773-0.1199112,0.864315-0.1900635l0.2787437-26.882185  c0-0.4458089,0.0526047-1.1965714,0.4057999-1.1965714s0.4057999,0.7507625,0.4057999,1.1980243l0.2787437,26.8807316  c0.4743767,0.0701523,0.842041,0.1831055,0.8633499,0.1900635l0.1148262,0.0361977v3.3152695  c2.8871346,0.7423477,5.0305252,3.3598785,5.0305252,6.4752159c0,2.9669113-1.9424286,5.4855957-4.6206741,6.3607483  L55.1936569,92.3448792z"/><path d="M50.0019379,43.3438606c3.0494156-0.0358353,5.4887428,0.5197754,6.2654762,0.720253  c0.0185814-0.1966019,0.0302048-0.3952637,0.0302048-0.5967102c0-3.4725876-2.8245468-6.2971344-6.2976189-6.2971344  c-3.4725876,0-6.2976189,2.8245468-6.2976189,6.2971344c0,0.2011414,0.0116844,0.3995628,0.0302048,0.5959244  c0.7499771-0.1953316,3.0394325-0.7218895,5.9403076-0.7218895C49.7814217,43.3414383,49.8909836,43.3424072,50.0019379,43.3438606z  "/><path d="M50.3777733,44.9679604c2.9356194,0,4.9555283,0.4738922,5.5413437,0.6292763  c0.0745163-0.2064095,0.1384354-0.4174194,0.1912804-0.633091c-0.651371-0.1820145-2.9982719-0.7671661-6.1084595-0.7257042  c-3.116848-0.0414619-5.4607811,0.5435066-6.1123352,0.7256432c0.052845,0.2155495,0.116703,0.4262581,0.1910973,0.6324844  c0.6095428-0.1640358,2.7736397-0.6768532,5.9212379-0.6261902C50.1283264,44.9684448,50.2538071,44.9679604,50.3777733,44.9679604z  "/><path d="M56.1709862,44.7250481c0.0276642-0.1361923,0.044735-0.275898,0.0634995-0.4150581  c-0.7223167-0.1908531-3.1569214-0.7632332-6.2325478-0.7191048c-3.0856171-0.0416451-5.5150757,0.5289154-6.2364235,0.7192268  c0.0187073,0.1389771,0.0357742,0.2784996,0.0634384,0.4145126c0.6751595-0.187706,3.032589-0.7707367,6.1729851-0.7332687  C53.1284103,43.9543114,55.4947968,44.5378265,56.1709862,44.7250481z"/><path d="M55.8336487,45.8301582c-0.6204376-0.164402-2.7533607-0.6589966-5.8317108-0.612751  c-3.0819244-0.0413437-5.2151489,0.4503479-5.8353462,0.6133575C45.1035461,48.1348076,47.3634033,49.7650185,50,49.7650185  C52.6372032,49.7650185,54.8969955,48.1345024,55.8336487,45.8301582z"/><polygon points="50.1863747,9.2373934 49.8135643,9.2373934 49.7946815,11.0594893 50.2053185,11.0594893 "/><polygon points="50.2194862,12.4260921 49.7805138,12.4260921 49.761631,14.248188 50.238369,14.248188 "/><polygon points="50.252533,15.6147299 49.747467,15.6147299 49.7285805,17.4368858 50.2714195,17.4368858 "/><polygon points="50.2855835,18.8034286 49.7144165,18.8034286 49.6955299,20.6255245 50.3044701,20.6255245 "/><polygon points="50.318634,21.9921265 49.681366,21.9921265 49.6624794,23.8142223 50.3375206,23.8142223 "/><polygon points="50.3516846,25.1807652 49.6483154,25.1807652 49.6293716,27.0029221 50.3706284,27.0029221 "/><polygon points="50.3847351,28.369463 49.6152077,28.369463 49.5963211,30.1915588 50.4036789,30.1915588 "/><path d="M50.1587715,6.5713778c0-0.454041-0.0786896-0.9075975-0.1650658-0.9539037  c-0.0737877,0.0463061-0.1524773,0.4998627-0.1524773,0.9524512l-0.0135002,1.3009262h0.3444824L50.1587715,6.5713778z"/><path d="M50.4371529,33.420208l-0.01931-1.8620453h-0.8356857l-0.01931,1.8620453  C49.7053375,33.4058037,49.8516998,33.3951492,50,33.3951492S50.2946625,33.4058037,50.4371529,33.420208z"/><path d="M51.3345833,36.9088974v-2.9873123C51.1000862,33.8578453,50.543808,33.7241936,50,33.7241936  s-1.1000862,0.1336517-1.3345833,0.1973915v2.9873123C49.0968819,36.8211899,49.5430527,36.7745781,50,36.7745781  S50.9031181,36.8211899,51.3345833,36.9088974z"/><path d="M48.0771217,53.1876106c0.6281242-0.0741501,1.2751999-0.1154327,1.9248161-0.1010284  c0.6491928-0.0168877,1.2942657,0.0260887,1.9214249,0.1007843l-0.0863762-1.1760521  c-0.6168098-0.0746956-1.237915-0.1108932-1.8345642-0.1030235c-0.6077919-0.0096245-1.2238731,0.0279655-1.8389244,0.1028442  L48.0771217,53.1876106z"/><path d="M50.0019379,53.3336105c-0.660511-0.0121689-1.311882,0.0274811-1.9431572,0.1044159l-2.8582611,38.9357834  C45.2014885,93.2645264,46.4617958,94.2324066,50,94.2324066c3.0503845,0,4.798996-0.6822357,4.798996-1.8730621  l-2.8572922-38.9215622C51.3134575,53.3609085,50.6692276,53.3205948,50.0019379,53.3336105z"/><path d="M51.8186455,51.7613831l-0.1338921-1.8240318C51.1454239,50.0780258,50.5827904,50.1606483,50,50.1606483  c-0.5826073,0-1.1450615-0.0826225-1.684269-0.223175l-0.1338921,1.8237305  c0.6102104-0.0712471,1.2200584-0.107563,1.8205833-0.0999374C50.5968933,51.6544876,51.208313,51.6902618,51.8186455,51.7613831z"/><text x="0" y="115" fill="#000000" font-size="5px" font-weight="bold" font-family="'Helvetica Neue', Helvetica, Arial-Unicode, Arial, Sans-serif">Created by emilegraphics</text><text x="0" y="120" fill="#000000" font-size="5px" font-weight="bold" font-family="'Helvetica Neue', Helvetica, Arial-Unicode, Arial, Sans-serif">from the Noun Project</text></svg>