<svg xmlns="http://www.w3.org/2000/svg" xmlns:xlink="http://www.w3.org/1999/xlink" version="1.1" x="0px" y="0px" viewBox="0 0 100 125" enable-background="new 0 0 100 100" xml:space="preserve"><g><g><path fill-rule="evenodd" clip-rule="evenodd" d="M18.041,59.556c-1.096-1.262-2.002-1.962-2.002-1.962s2.552,4.977,4.493,16.826    c2.131-4.413,1.402-8.288-0.032-11.202v-0.001C19.549,61.575,18.72,60.397,18.041,59.556z M22.541,81.041    c0,0,0.522,1.656,3.66-0.632c0,0,0.071-2.278-0.601-5.65C24.486,77.43,23.33,79.637,22.541,81.041z M97.5,74.277    c-13.419-24.484-16.108-39.89-32.964-43.915c0,0-9.316-2.474-17.307-0.742c0,0-17.007,3.666-23.843-1.583    c0,0,2.816-3.367,1.587-9.658c0,0-4.15,0.381-6.47,4.042c0,0-1.221,1.222-6.958,0.367c0,0-1.539-3.082-5.408-4.409    c0,0-3.197,3.073-1.723,9.014c0,0-9.169,18.318,12.614,29.953c0,0,13.12,10.149,0,22.774c0,0,0.568,2.175,4.282,1.1    c0,0,8.179-12.775,7.324-24.129c0,0,0.394-4.093,4.301-6.172c0,0-3.673,2.347-3.28,6.531c2.773,0.869,10.78,2.653,18.688-2.434    c0,0-0.488,2.44,4.639,6.348c0,0,7.936,8.057,5.738,15.625c0,0,0.154,0.786,2.4,0.064c0.826-1.067,1.848-4.361-3.956-13.295    c0,0-3.206-4.309-2.276-9.568c0,0-0.285,5.036,2.835,9.389c7.935,11.073,3.37,14.218,3.37,14.218s1.102,1.912,3.74,0.538    c0,0,3.022-5.166,0.234-11.479c0,0-2.563-4.883,1.099-11.107c0,0,1.132-1.865,0.911-5.521    C67.273,52.927,69.569,70.265,97.5,74.277z M10.613,34.243c0,0,2.109-2.345,4.14,0.634C12.328,36.37,10.613,34.243,10.613,34.243z     M21.54,40.901c-0.023,0.105-0.045,0.212-0.068,0.316c-0.028,0.178-0.081,0.346-0.146,0.505c-0.021,0.062-0.041,0.122-0.068,0.183    c-0.061,0.164-0.142,0.32-0.224,0.477c-0.088,0.152-0.18,0.305-0.287,0.444c-0.055,0.069-0.107,0.142-0.164,0.208L20.4,43.229    c-0.13,0.119-0.26,0.24-0.406,0.341c-0.14,0.108-0.293,0.196-0.445,0.281l-0.235,0.118l-0.242,0.1    c-0.164,0.057-0.328,0.111-0.496,0.15c-0.167,0.043-0.337,0.075-0.506,0.1c-0.339,0.049-0.68,0.062-1.018,0.056    c-0.675-0.023-1.344-0.13-1.976-0.343c0.328,0.052,0.658,0.079,0.988,0.094c0.328,0.016,0.657,0.011,0.982-0.012    c0.325-0.021,0.647-0.067,0.962-0.136c0.156-0.033,0.312-0.073,0.464-0.123c0.152-0.046,0.3-0.106,0.445-0.167l0.214-0.1    l0.205-0.113c0.133-0.083,0.266-0.166,0.385-0.266c0.115-0.084,0.216-0.186,0.315-0.285c-0.755-0.316-1.49-1.623-1.49-1.623    c0.651-0.802,1.503-0.869,2.123-0.777c-0.039-0.045-0.079-0.089-0.117-0.135c-0.182-0.221-0.354-0.449-0.519-0.682    c-0.332-0.465-0.629-0.954-0.887-1.463c-0.26-0.508-0.476-1.037-0.642-1.58c-0.082-0.273-0.153-0.548-0.205-0.826    c-0.027-0.139-0.051-0.278-0.068-0.42c-0.021-0.139-0.028-0.28-0.044-0.42c0.037,0.136,0.066,0.273,0.109,0.407    c0.038,0.134,0.077,0.269,0.123,0.401c0.089,0.264,0.183,0.526,0.293,0.782c0.107,0.256,0.224,0.507,0.35,0.755    c0.124,0.247,0.263,0.487,0.4,0.727c0.282,0.477,0.597,0.932,0.93,1.371c0.167,0.22,0.343,0.433,0.522,0.641    c0.09,0.105,0.181,0.209,0.272,0.309c0.092,0.101,0.189,0.203,0.281,0.292l0.099,0.096L21.54,40.901z M18.932,34.751    c0,0,0.793-3.052,3.967-1.342C21.434,35.851,18.932,34.751,18.932,34.751z"/></g></g><text x="0" y="115" fill="#000000" font-size="5px" font-weight="bold" font-family="'Helvetica Neue', Helvetica, Arial-Unicode, Arial, Sans-serif">Created by Anna Bearne</text><text x="0" y="120" fill="#000000" font-size="5px" font-weight="bold" font-family="'Helvetica Neue', Helvetica, Arial-Unicode, Arial, Sans-serif">from the Noun Project</text></svg>