<svg xmlns="http://www.w3.org/2000/svg" xmlns:xlink="http://www.w3.org/1999/xlink" xml:space="preserve" version="1.1" style="shape-rendering:geometricPrecision;text-rendering:geometricPrecision;image-rendering:optimizeQuality;" viewBox="0 0 331 411.25" x="0px" y="0px" fill-rule="evenodd" clip-rule="evenodd"><defs><style type="text/css">
   
    .fil0 {fill:black}
   
  </style></defs><g><path class="fil0" d="M264 25c0,14 -4,29 -12,43 9,-36 -10,-76 -40,-66 19,13 30,45 29,72 -17,-22 -44,-33 -89,21 5,12 31,40 42,47 8,5 0,16 -7,11 -8,-5 -34,-29 -44,-47 -14,17 -30,38 -46,60 2,7 7,16 13,19 7,5 -1,16 -8,11 -6,-3 -10,-10 -14,-17 -17,24 -33,49 -48,73 3,4 8,16 11,18 7,8 -2,20 -11,8 -3,-4 -5,-8 -8,-13l-32 64 108 -60c-15,-11 -35,-31 -39,-36 -5,-7 6,-15 11,-7 5,6 31,30 40,35 25,-16 50,-33 72,-49 -19,-8 -43,-26 -50,-36 -6,-8 5,-15 11,-8 6,9 38,31 51,35 42,-31 69,-34 61,-92 -3,-4 -6,-10 -10,-17 28,-1 59,4 74,28 12,-36 -25,-46 -61,-39 16,-7 33,-12 43,-12 33,-57 -53,-46 -47,-46z"/></g><text x="0" y="344" fill="#000000" font-size="5px" font-weight="bold" font-family="'Helvetica Neue', Helvetica, Arial-Unicode, Arial, Sans-serif">Created by SELicon</text><text x="0" y="349" fill="#000000" font-size="5px" font-weight="bold" font-family="'Helvetica Neue', Helvetica, Arial-Unicode, Arial, Sans-serif">from the Noun Project</text></svg>