<svg xmlns:dc="http://purl.org/dc/elements/1.1/" xmlns:cc="http://creativecommons.org/ns#" xmlns:rdf="http://www.w3.org/1999/02/22-rdf-syntax-ns#" xmlns:svg="http://www.w3.org/2000/svg" xmlns="http://www.w3.org/2000/svg" xmlns:sodipodi="http://sodipodi.sourceforge.net/DTD/sodipodi-0.dtd" xmlns:inkscape="http://www.inkscape.org/namespaces/inkscape" version="1.1" x="0px" y="0px" viewBox="0 0 100 125"><g transform="translate(0,-952.36218)"><path style="color:#000000;enable-background:accumulate;" d="m 48.410546,966.36215 c -30.11636,0 -43.1595505,17.00002 -43.4105405,36.62505 0.25099,24.375 18.3173605,35.375 42.4104405,35.375 11.3595,0 18.87525,-7.1869 22.97102,-13.9063 -2.98369,-3.8899 -3.83083,-8.5341 -0.0312,-11.9062 1.18706,-8.5863 -2.20146,-15.22179 -7.00069,-19.9063 -4.89322,-4.77624 -11.40969,-7.28125 -15.09525,-7.28125 -11.15327,0 -17.57974,2.87678 -21.2521,6.4375 -3.67235,3.56072 -4.75047,7.97917 -4.75047,11.56255 0,3.8081 0.52526,6.8249 2.65652,9 2.12817,2.1719 6.28622,3.8707 14.34516,4 0.0116,2e-4 0.0195,-2e-4 0.0312,0 2.54879,-0.01 5.44507,-0.9237 7.56325,-2.4063 2.12633,-1.4883 3.40658,-3.3715 3.40658,-5.5937 0,-1.9667 -0.83345,-4.0886 -2.0627,-5.625 -1.22925,-1.5365 -2.77111,-2.375 -3.93789,-2.375 -3.33366,0 -6.32944,1.534 -7.0632,4.4687 -0.20432,1.0648 -1.39775,1.8266 -2.44973,1.5636 -1.05199,-0.263 -1.74651,-1.4966 -1.42565,-2.5323 1.26643,-5.0653 6.27145,-7.50005 10.93858,-7.50005 2.83361,0 5.29215,1.66141 7.0632,3.87505 1.77104,2.2135 2.93779,5.0916 2.93779,8.125 0,3.7777 -2.22009,6.8633 -5.09426,8.875 -2.87416,2.0117 -6.46244,3.125 -9.90723,3.125 -0.0104,10e-5 -0.0208,10e-5 -0.0312,0 -8.61736,-0.1332 -13.9631,-1.9583 -17.15794,-5.2188 -3.19485,-3.2605 -3.81288,-7.5894 -3.81288,-11.7812 0,-4.41672 1.39088,-9.99827 5.96934,-14.43755 4.57846,-4.43928 12.18462,-7.5625 24.03362,-7.5625 5.31534,0 12.3002,2.96374 17.90802,8.4375 5.00788,4.88815 8.76896,11.98575 8.37583,20.68755 3.71018,-0.676 7.97233,0.5876 10.71981,2.125 3.79668,3.0144 7.18996,6.1491 9.43838,10.0312 0.76767,-6.7661 -0.0356,-13.6137 -1.12511,-19.2812 -2.66643,-15.91165 -19.05987,-37.00005 -45.16071,-37.00005 z m 26.7839,48.09375 c -1.96289,0.4723 -3.07843,1.5695 -3.4691,3.1875 0.14565,1.4627 0.41056,2.8243 1.43765,3.9063 l 13.97013,9.125 c 3.01163,2 5.00098,0.9744 5.90683,-0.3438 1.53175,-4.5056 -5.42257,-11.7758 -9.87603,-14.2812 -2.66451,-1.1856 -5.60188,-1.9112 -7.96948,-1.5938 z" fill="#000000" stroke="none" marker="none" visibility="visible" display="inline" overflow="visible"/></g><text x="0" y="115" fill="#000000" font-size="5px" font-weight="bold" font-family="'Helvetica Neue', Helvetica, Arial-Unicode, Arial, Sans-serif">Created by Orin zuu</text><text x="0" y="120" fill="#000000" font-size="5px" font-weight="bold" font-family="'Helvetica Neue', Helvetica, Arial-Unicode, Arial, Sans-serif">from the Noun Project</text></svg>