<svg xmlns="http://www.w3.org/2000/svg" xmlns:xlink="http://www.w3.org/1999/xlink" xml:space="preserve" version="1.1" style="shape-rendering:geometricPrecision;text-rendering:geometricPrecision;image-rendering:optimizeQuality;" viewBox="0 0 846.66 1058.325" x="0px" y="0px" fill-rule="evenodd" clip-rule="evenodd"><defs><style type="text/css">
   
    .fil0 {fill:black}
   
  </style></defs><g><path class="fil0" d="M334.62 397.32l258.04 -107.91 58.81 329.45 -316.85 -221.54zm307.83 265.13l-225.48 126.03 -149.69 -211.77 37.75 -150.17 337.42 235.91zm-288.57 107.59l-207.13 -71.72 -61.67 -121.61 148.46 23.01 120.34 170.32zm-290.8 -238.23l53.5 -305.58 153.34 172.04 -40.01 159.5 -166.83 -25.96zm71.38 -347.06l287.43 -124.07 153.32 191.64 -277.22 115.91 -163.53 -183.48zm338.15 -126.58l217.64 20.84 88.43 122.17 -162.35 36.66 -143.72 -179.67zm310.98 183.9l-97.13 340.16 -54.62 -305.99 151.75 -34.17z"/></g><text x="0" y="861.66" fill="#000000" font-size="5px" font-weight="bold" font-family="'Helvetica Neue', Helvetica, Arial-Unicode, Arial, Sans-serif">Created by septian kho</text><text x="0" y="866.66" fill="#000000" font-size="5px" font-weight="bold" font-family="'Helvetica Neue', Helvetica, Arial-Unicode, Arial, Sans-serif">from the Noun Project</text></svg>