<svg xmlns="http://www.w3.org/2000/svg" xmlns:xlink="http://www.w3.org/1999/xlink" version="1.1" x="0px" y="0px" viewBox="-55 147 500 625" style="enable-background:new -55 147 500 500;" xml:space="preserve"><g><path d="M195,147C57.1,147-55,259.1-55,397c0,137.8,112.1,250,250,250s250-112.1,250-250S332.8,147,195,147z M-14.5,397   c0-56.2,22.2-107.3,58.4-144.9c1.7-1.6,3.4-3.1,5.1-4.6c15.3,13.5,11.8,31.9,4.4,59.4c-5.2,19.2-10.5,39-3.5,56.7   c1.9,4.9,5.8,7.4,8.4,9.1c0.8,0.5,2.1,1.3,2.3,1.6c1.8,4.5,2.7,9.7,3.7,15.2c2.1,12.1,4.6,25.9,18.1,33.8c3,1.8,6.8,1.2,9.2-1.3   c4.8-5.1,3.8-13.7-3.1-26.5c0-0.1-0.1-0.2-0.1-0.2c5.5,7.9,10.3,16.2,15.4,24.9c2.1,3.6,4.2,7.3,6.4,10.9c1.2,2.1,2.5,4.3,3.8,6.6   c4.3,7.5,9.1,16.1,15.1,22.5c5.8,6.2,13.7,8.6,20,10.6c2.1,0.6,4.3,0.4,6.1-0.8c1.8-1.1,3.1-3,3.5-5.1l0,0   c7.2,2.6,12.8,6.8,16.5,12.3c-0.3,3.4,1.8,6.6,5.1,7.7c2.7,0.9,5.3,1.1,7.6,0.7c-0.2,4.1-2.6,9.3-6.8,16.7   c-3.3,5.8-6.1,10.9-6.2,16.1c0,1.5,0.4,2.9,1.2,4.1l1.9,3.1c9.8,15.4,19.9,31.3,37.4,40.5c0.5,8.1-1.2,17.3-2.9,26.2   c-0.9,4.8-1.8,9.4-2.3,13.9c-5,0.4-10.1,0.6-15.3,0.6C79.5,606.5-14.5,512.5-14.5,397z M299,578.8c18.1-16.3,35.1-35.9,42.8-63.9   c0.6-2.3,0.1-4.8-1.4-6.7c-25.4-31-49.4-34.9-63.6-37.3c-4.6-0.8-9.4-1.6-10.7-2.9c-0.7-0.8-1.7-1.5-2.7-1.9c-4-1.6-7-3.5-9.3-5.8   c-1.6-1.6-3.9-2.4-6.2-2.1c-5.3,0.7-13.8-0.7-20.2-6.7c-2.5-2.4-6.3-2.7-9.2-0.8c-1.6,1.1-4,1.9-6.4,2.9c-4.5,1.7-10.5,4-14.4,8.9   c-4.3-1.5-8.2-1.5-12.6-0.8c0.1-0.6,0.3-1.3,0.6-2.1l0.1-0.5c0.6-1.9,0.3-4-0.7-5.8c-0.7-1.3-1.8-2.3-3.1-3   c-0.6-0.4-1.3-0.7-2.1-0.9c-0.6-0.2-1.3-0.4-1.9-0.6l-0.4-0.1c-3.5-1.1-6-2.3-8.3-4.2c-1.2-1.6-3-2.6-5-2.9   c-4.6-0.5-9.6-2.4-14.5-5.5c-3.8-2.4-15.9-10.9-13.3-21.5c0.3-1.2,0.3-2.5,0-3.7c-0.2-0.7-0.1-1.1,0.2-1.7c0.5-0.9,0.8-1.9,1-2.9   c0.1-1,1.7-3.1,4.8-4.7c3.8-2,8.2-2.3,10.8-0.9c1.2,0.7,2.6,1,4,0.9c1.4-0.1,2.8-0.1,4.1-0.1c2.7,0,5.2-1.3,6.6-3.6   c1.3-0.3,4.1-0.1,7,0.4c0.5,7.4,3.9,12,6.6,15.6c0.6,0.8,1.3,1.7,1.8,2.6c1.1,1.7,2.8,2.8,4.7,3.2c0.9,0.2,1.7,0.3,2.6,0.5   c3,0.4,5.9-1,7.5-3.6c3.3-5.5,2.3-13.1,1.1-21.9c-0.4-2.8-0.7-5.6-1-8.3c12.1-7.3,19.8-18.4,27.2-29.1c6.6-9.6,12.9-18.7,21.9-24.4   c0.8-0.5,1.4-1.1,2-1.8c2.4-3.2,5.2-6.2,9.4-9.9c1.8-1.6,2.7-4.1,2.4-6.6c-0.3-2.5-1.9-4.6-4.1-5.7c-3.5-1.8-6.4-3.3-9.1-4.8   c0,0,0-0.1-0.1-0.1c7.7-3.7,15.6-0.7,20.4,3.4c0.9,0.8,2,1.3,3.2,1.6c0.1,1.2,0.5,2.3,1.1,3.3c0.3,0.5,0.6,0.9,0.8,1.4   c0.7,1.5,1.9,2.6,3.4,3.3c0,0,0.1,0.1,0.3,0.5c1.2,2.8,3.9,4.6,6.9,4.6c0,0,0,0,0.1,0h0.2c0.5,0,1,0,1.5,0c0.7,0,1.2-0.2,1.9-0.4   c0.3-0.1,1.2-0.2,1.9-0.3c1.1-0.1,2.3-0.2,3.4-0.5l0.4-0.1c1.2-0.3,2.9-0.7,4.6-1.2c3.9-1.2,6.1-5.2,5-9.1   c-1.2-4.3-3.8-7.6-7.2-9.3c1.6-13.2-5.3-20.9-10.6-26.8c-5.4-6-8.2-9.5-7.2-16.7c0.2-1.4,0-2.8-0.6-4.1c-2.2-4.8-5.5-6.1-7.8-6.3   c-3.7-0.4-6.2,1.5-8,3.5c-4.5-10.2-12.6-17-23.8-20c-2.8-0.7-5.8,0.2-7.6,2.4c-7.5,8.9-10.8,18.6-10.4,30.6   c-3.1,1.5-5.1,3.9-6.5,6.6c-4.6-6-11.5-10.1-17.1-13.4c-3.9-2.3-7.8-4.6-10.6-7.1c2.6-4.7,7.6-7.6,15-11.4c2.9-1.5,6-3.1,8.9-5   c2.2-1.5,3.5-4,3.4-6.7c-0.2-4-1-8.1-2.4-12.8c-0.3-1.2-1.1-2.3-1.9-3.2c-0.2-0.2-0.4-0.5-0.7-0.7c-4.9-4.8-10.9-8.3-18.3-10.7   c-0.8-0.3-1.6-0.4-2.5-0.4c-2.7,0.1-6.7-0.9-8.9-2c-0.7-0.4-1.5-0.7-2.4-0.8c-3.9-0.6-7.8-1-11.6-1.5c-4.3-0.5-8.3-0.9-12.2-1.6   c-0.9-0.2-1.8-0.3-2.7-0.5c14.7-3.3,30-5,45.6-5c38.3,0,74.2,10.3,105.2,28.4c-0.4,4-1.8,8.5-4.4,13.7c-0.1,0.2-0.2,0.3-0.2,0.5   c-0.5,1.1-0.7,2.3-0.7,3.5c0.8,13.8,9.4,32.6,22.6,40.2c1.2,0.7,2.4,1,3.7,1c1.5,0,3-0.4,4.2-1.3c5.7-3.9,7.6-10.3,9.1-15.5   c0.5-1.6,1-3.2,1.5-4.5c3.8-0.2,7-1.1,9.6-1.8c28.3,29.3,48.1,66.8,55.5,108.5c-0.1,3.6,0,7,1.4,9.1c0.3,2.2,0.6,4.4,0.8,6.6   c-8,6.1-14.4,14.7-18.8,25.4c-9.6,23.5-7.5,53.5,5.1,72.9l0,0C372.1,518.5,339.9,555.3,299,578.8z"/><path d="M223.7,426.2c-0.7,0-1.5,0-2.2,0c-1.5-1.1-3.8-1.7-6.2-1.6c-2.2,0.1-4.7-0.5-8.4-1.7c-3.4-1.1-7.6-0.4-9.7,1.6   c0,0-0.1,0.1-0.2,0.2c-1,0.9-2.3,1.6-3.8,2.2c-2.3,0.9-3.6,2.5-3.5,4.1c0.1,1.7,1.7,3.2,4.1,3.9c2.3,0.7,4.5,1.2,6.7,1.6   c0.3,1.4,1.7,2.7,3.8,3.4c3.9,1.3,7.2,1.7,10.3,1.7c2.3,0,4.5-0.2,6.8-0.5c2.8-0.3,6-0.6,10.6-0.7c2,0,4-0.6,5.4-1.5   s2.1-2.2,1.9-3.5C238.6,430.3,232.5,426.6,223.7,426.2z"/></g><text x="-55" y="662" fill="#000000" font-size="5px" font-weight="bold" font-family="'Helvetica Neue', Helvetica, Arial-Unicode, Arial, Sans-serif">Created by Serhii Smirnov</text><text x="-55" y="667" fill="#000000" font-size="5px" font-weight="bold" font-family="'Helvetica Neue', Helvetica, Arial-Unicode, Arial, Sans-serif">from the Noun Project</text></svg>