<svg xmlns:rdf="http://www.w3.org/1999/02/22-rdf-syntax-ns#" xmlns="http://www.w3.org/2000/svg" xmlns:cc="http://creativecommons.org/ns#" xmlns:dc="http://purl.org/dc/elements/1.1/" xml:space="preserve" viewBox="0 0 100 125" version="1.0" y="0px" x="0px"><title>study light 01</title><path d="m44.623 2.5664c-1.966 0.0249-3.922 0.7978-5.398 2.3145-0.38 0.3991-0.719 0.8379-1.018 1.2968-5.029-2.4545-10.497-2.4951-15.945-0.0605-2.694 1.1973-5.17 2.8742-7.305 4.9298-0.399 0.419-0.497 1.038-0.258 1.557l0.219 0.458c5.687 12.353 15.804 22.111 28.316 27.379 0.539 0.22 1.138 0.101 1.537-0.318 1.996-2.195 3.592-4.731 4.709-7.465 2.255-5.528 2.077-11.015-0.517-15.984 0.16-0.1 0.319-0.218 0.459-0.338l24.045 31.31c-4.071 2.655-5.207 8.082-2.553 12.153 0.918 1.397 2.215 2.514 3.752 3.213l-15.785 26.242h-13.172c-0.778 0.02-1.397 0.657-1.397 1.435v3.952h-37.916c-0.7778 0-1.396 0.618-1.396 1.396s0.6182 1.399 1.3965 1.399h87.208c0.778 0 1.396-0.621 1.396-1.399s-0.618-1.396-1.396-1.396h-22.95v-3.952c0-0.778-0.618-1.415-1.396-1.435h-7.106l15.327-25.504c0.259 0.02 0.519 0.039 0.798 0.039 4.85 0 8.801-3.93 8.801-8.779s-3.932-8.801-8.781-8.801c-0.738 0-1.458 0.1-2.176 0.279l-24.805-32.289c1.816-3.073 1.298-6.9643-1.236-9.4588-1.517-1.4767-3.491-2.1987-5.457-2.1738zm-24.328 7.8006c7.514 11.896 16.254 18.653 25.029 24.371-0.576 0.953-1.22 1.868-1.929 2.731-11.315-5.009-20.454-13.931-25.743-25.106 0.832-0.725 1.715-1.392 2.643-1.996zm26.81 81.68h20.754v2.594h-20.754v-2.594z"/><text x="0" y="115" fill="#000000" font-size="5px" font-weight="bold" font-family="'Helvetica Neue', Helvetica, Arial-Unicode, Arial, Sans-serif">Created by jabbar</text><text x="0" y="120" fill="#000000" font-size="5px" font-weight="bold" font-family="'Helvetica Neue', Helvetica, Arial-Unicode, Arial, Sans-serif">from the Noun Project</text></svg>