<svg xmlns="http://www.w3.org/2000/svg" xmlns:xlink="http://www.w3.org/1999/xlink" xmlns:serif="http://www.serif.com/" viewBox="0 0 84 105" version="1.1" xml:space="preserve" style="" x="0px" y="0px" fill-rule="evenodd" clip-rule="evenodd" stroke-linejoin="round" stroke-miterlimit="1.41421"><g transform="matrix(1,0,0,1,-1,6.13832)"><path d="M51.171,34.25C52.211,35.329 53.67,36 55.285,36C56.32,36 57.292,35.724 58.129,35.242L44.261,72.374C44.064,72.9 43.562,73.249 43,73.249C42.438,73.249 41.936,72.9 41.739,72.374L27.871,35.242C28.708,35.724 29.68,36 30.715,36C32.298,36 33.731,35.355 34.766,34.314C35.801,35.355 37.235,36 38.818,36C40.375,36 41.788,35.376 42.819,34.364C43.85,35.376 45.263,36 46.82,36C48.435,36 49.894,35.329 50.934,34.25L51.171,34.25Z"/></g><g transform="matrix(1.02886,0,0,1.04167,-2.93696,3.67999)"><path d="M27.988,25.588C28.212,17.5 35.029,11 43.394,11C51.584,11 58.29,17.231 58.777,25.084C60.126,26.087 61,27.692 61,29.5C61,32.536 58.536,35 55.5,35C53.886,35 52.433,34.303 51.426,33.194C50.42,34.303 48.967,35 47.353,35C45.854,35 44.494,34.399 43.502,33.425C42.51,34.399 41.15,35 39.651,35C38.128,35 36.748,34.379 35.752,33.377C34.756,34.379 33.376,35 31.853,35C28.817,35 26.353,32.536 26.353,29.5C26.353,27.97 26.979,26.586 27.988,25.588Z"/></g><g transform="matrix(0.987535,-0.157401,0.157401,0.987535,23.0558,-30.2236)"><path d="M10.24,42.179C10.964,38.863 13.311,36.086 16.983,36.001C17.068,36 17.152,35.999 17.237,36.001C18.377,36.096 18.554,38.018 16.789,38.092C15.632,38.152 14.456,38.484 13.627,39.279C12.84,40.034 12.412,41.016 12.207,42.055C14.355,42.395 16,44.257 16,46.5C16,48.984 13.984,51 11.5,51C9.016,51 7,48.984 7,46.5C7,44.454 8.369,42.725 10.24,42.179Z"/></g><text x="0" y="99" fill="#000000" font-size="5px" font-weight="bold" font-family="'Helvetica Neue', Helvetica, Arial-Unicode, Arial, Sans-serif">Created by TS Graphics</text><text x="0" y="104" fill="#000000" font-size="5px" font-weight="bold" font-family="'Helvetica Neue', Helvetica, Arial-Unicode, Arial, Sans-serif">from the Noun Project</text></svg>