<svg xmlns="http://www.w3.org/2000/svg" xmlns:xlink="http://www.w3.org/1999/xlink" version="1.1" x="0px" y="0px" viewBox="0 0 100 125" enable-background="new 0 0 100 100" xml:space="preserve"><g display="none"><rect x="-589.328" y="-649.245" display="inline" fill="#000000" width="1557.221" height="1347.135"/></g><g><path d="M76.45,13.593c-1.653-1.199-3.965-0.834-5.166,0.818l-4.348,5.985c-1.201,1.653-0.834,3.965,0.818,5.166   c0.657,0.477,1.417,0.706,2.171,0.706c1.144,0,2.272-0.528,2.995-1.524l4.348-5.985C78.469,17.107,78.103,14.794,76.45,13.593z"/><path d="M23.55,86.406c0.657,0.477,1.417,0.706,2.171,0.706c1.144,0,2.272-0.528,2.995-1.524l4.348-5.985   c1.201-1.653,0.834-3.965-0.818-5.166c-1.652-1.2-3.966-0.833-5.166,0.818l-4.348,5.985C21.531,82.892,21.897,85.205,23.55,86.406z   "/><path d="M82.244,43.222c0.378,0,0.764-0.059,1.143-0.182l7.035-2.285c1.943-0.631,3.006-2.718,2.375-4.66   c-0.631-1.942-2.719-3.007-4.66-2.375l-7.035,2.285c-1.943,0.631-3.006,2.718-2.375,4.66   C79.235,42.228,80.685,43.222,82.244,43.222z"/><path d="M10.72,66.463c0.378,0,0.764-0.059,1.144-0.182l7.035-2.286c1.943-0.631,3.006-2.718,2.375-4.66   c-0.631-1.944-2.717-3.007-4.661-2.375l-7.035,2.286c-1.943,0.631-3.006,2.718-2.375,4.66C7.71,65.469,9.16,66.463,10.72,66.463z"/><path d="M81.102,63.994l7.035,2.286c0.38,0.123,0.765,0.182,1.144,0.182c1.559,0,3.009-0.993,3.517-2.557   c0.631-1.943-0.432-4.029-2.375-4.66l-7.035-2.286c-1.944-0.63-4.029,0.431-4.661,2.375C78.096,61.277,79.159,63.363,81.102,63.994   z"/><path d="M9.577,40.755l7.035,2.285c0.38,0.123,0.765,0.182,1.143,0.182c1.559,0,3.01-0.994,3.517-2.557   c0.631-1.943-0.432-4.029-2.375-4.66l-7.035-2.285c-1.947-0.631-4.029,0.433-4.66,2.375C6.571,38.037,7.635,40.123,9.577,40.755z"/><path d="M72.921,75.255c-1.201-1.653-3.513-2.018-5.166-0.818c-1.653,1.201-2.019,3.514-0.818,5.166l4.348,5.985   c0.724,0.996,1.852,1.524,2.995,1.524c0.754,0,1.514-0.229,2.171-0.706c1.653-1.201,2.019-3.514,0.818-5.166L72.921,75.255z"/><path d="M23.55,13.593c-1.653,1.201-2.019,3.514-0.818,5.166l4.348,5.985c0.724,0.996,1.852,1.524,2.995,1.524   c0.754,0,1.514-0.229,2.171-0.706c1.653-1.201,2.019-3.514,0.818-5.166l-4.348-5.985C27.515,12.759,25.203,12.393,23.55,13.593z"/><path d="M53.699,91.301v-7.398c0-2.043-1.656-3.699-3.699-3.699s-3.699,1.656-3.699,3.699v7.398C46.301,93.344,47.957,95,50,95   S53.699,93.344,53.699,91.301z"/><path d="M53.699,16.096V8.699C53.699,6.656,52.043,5,50,5s-3.699,1.656-3.699,3.699v7.397c0,2.043,1.656,3.699,3.699,3.699   S53.699,18.138,53.699,16.096z"/><path d="M23.587,49.999c0,7.056,2.747,13.688,7.736,18.677C36.472,73.826,43.236,76.4,50,76.4s13.528-2.574,18.677-7.723   c4.989-4.99,7.736-11.622,7.736-18.677s-2.747-13.688-7.736-18.676C63.688,26.334,57.055,23.587,50,23.587   s-13.688,2.748-18.677,7.736S23.587,42.944,23.587,49.999z M36.857,36.857c3.511-3.511,8.178-5.444,13.143-5.444   s9.632,1.934,13.143,5.444c3.511,3.511,5.444,8.178,5.444,13.142c0,4.965-1.934,9.633-5.444,13.143   c-7.246,7.248-19.039,7.247-26.286,0c-3.511-3.511-5.444-8.178-5.444-13.143C31.413,45.035,33.347,40.368,36.857,36.857z"/></g><text x="0" y="115" fill="#000000" font-size="5px" font-weight="bold" font-family="'Helvetica Neue', Helvetica, Arial-Unicode, Arial, Sans-serif">Created by Oksana Latysheva</text><text x="0" y="120" fill="#000000" font-size="5px" font-weight="bold" font-family="'Helvetica Neue', Helvetica, Arial-Unicode, Arial, Sans-serif">from the Noun Project</text></svg>