<svg xmlns="http://www.w3.org/2000/svg" xmlns:xlink="http://www.w3.org/1999/xlink" version="1.1" x="0px" y="0px" viewBox="0 0 100 125" enable-background="new 0 0 100 100" xml:space="preserve"><path d="M8,5h46.296c0,0-3.036,23.634-4.274,35.028c-1.225,11.261-5.51,30.759,28.686,35.139c0,0,13.158,1.122,13.158,6.289  c0,0-7.535,10.55-44.429,4.713c0,0-17.252-2.597-38.398-2.597c0,0-0.425-6.241,2.763-22.438c0.963-4.893,0.576-7.449-1.728-19.862  C8.416,32.34,8.675,34.415,8,5z"/><path d="M91.865,83.977c0,0-7.535,10.553-44.429,4.716c0,0-17.252-2.6-38.398-2.6v7.381h7.6v-3.559h1.728l3.527,3.559h3.321v-3.559  h1.89l3.396,3.559h3.024v-3.559l15.889,1.413l1.017,2.033l6.118,0.992l0.621-2.687h1.414l0.056,3.165h5.378l1.703-2.373h1.185V95  h5.493l1.983-2.6h1.584l0.057,2.276l5.464-0.784l1.953-2.96h1.643v1.695c0,0,6.908-1.13,6.908-4.181  C92.046,88.277,91.865,83.977,91.865,83.977z"/><text x="0" y="115" fill="#000000" font-size="5px" font-weight="bold" font-family="'Helvetica Neue', Helvetica, Arial-Unicode, Arial, Sans-serif">Created by Fabio Meroni</text><text x="0" y="120" fill="#000000" font-size="5px" font-weight="bold" font-family="'Helvetica Neue', Helvetica, Arial-Unicode, Arial, Sans-serif">from the Noun Project</text></svg>