<svg xmlns="http://www.w3.org/2000/svg" xmlns:xlink="http://www.w3.org/1999/xlink" xml:space="preserve" version="1.1" style="shape-rendering:geometricPrecision;text-rendering:geometricPrecision;image-rendering:optimizeQuality;" viewBox="0 0 847 1058.75" x="0px" y="0px" fill-rule="evenodd" clip-rule="evenodd"><defs><style type="text/css">
   
    .fil0 {fill:black}
   
  </style></defs><g><path class="fil0" d="M825 272l0 66c-24,0 -33,-1 -53,-20 -43,-44 -74,-44 -117,0 -27,26 -49,26 -76,0 -43,-44 -74,-44 -117,0 -27,26 -50,26 -77,0 -43,-44 -74,-44 -117,0 -27,26 -50,26 -77,0 -43,-44 -74,-44 -117,0 -19,19 -29,20 -52,20l0 -66c36,0 60,-16 75,-30 31,-32 36,-32 69,-1 43,42 84,42 127,0 30,-29 36,-29 66,0 43,42 86,42 128,0 31,-29 36,-29 67,0 42,42 84,42 127,0 30,-29 36,-29 66,0 27,26 44,32 78,31zm0 114l0 65c-24,1 -33,0 -53,-19 -43,-44 -74,-44 -117,0 -27,26 -49,26 -76,0 -43,-44 -74,-44 -117,0 -27,26 -50,26 -77,0 -43,-44 -74,-44 -117,0 -27,26 -50,26 -77,0 -43,-44 -74,-44 -117,0 -19,19 -29,20 -52,19l0 -65c36,0 60,-16 75,-31 31,-31 36,-32 69,0 43,41 84,41 127,0 30,-30 36,-30 66,0 43,41 86,41 128,0 31,-30 36,-30 67,0 42,41 84,41 127,0 30,-30 36,-30 66,0 27,26 44,31 78,31zm0 113l0 66c-24,0 -33,-1 -53,-20 -43,-44 -74,-44 -117,0 -27,26 -49,26 -76,0 -43,-44 -74,-44 -117,0 -27,26 -50,26 -77,0 -43,-44 -74,-44 -117,0 -27,26 -50,26 -77,0 -43,-44 -74,-44 -117,0 -19,19 -29,20 -52,20l0 -66c36,0 60,-16 75,-30 31,-32 36,-32 69,-1 43,42 84,42 127,0 30,-29 36,-29 66,0 43,42 86,42 128,0 31,-29 36,-29 67,0 42,42 84,42 127,0 30,-29 36,-29 66,0 27,26 44,32 78,31zm0 114l0 16 -803 0 0 -16c36,0 60,-16 75,-31 31,-31 36,-32 69,0 43,41 84,41 127,0 30,-30 36,-30 66,0 43,41 86,41 128,0 31,-30 36,-30 67,0 42,41 84,41 127,0 30,-30 36,-30 66,0 27,26 44,31 78,31z"/></g><text x="0" y="862" fill="#000000" font-size="5px" font-weight="bold" font-family="'Helvetica Neue', Helvetica, Arial-Unicode, Arial, Sans-serif">Created by Aina</text><text x="0" y="867" fill="#000000" font-size="5px" font-weight="bold" font-family="'Helvetica Neue', Helvetica, Arial-Unicode, Arial, Sans-serif">from the Noun Project</text></svg>