<svg xmlns="http://www.w3.org/2000/svg" xmlns:xlink="http://www.w3.org/1999/xlink" version="1.1" x="0px" y="0px" viewBox="0 0 100 125" enable-background="new 0 0 100 100" xml:space="preserve"><path d="M70.073,64.858c0.291-0.694,1.937-4.879,1.937-9.858c0-7.412-3.234-14.315-8.875-19.072  c1.303-2.963,3.139-5.618,5.484-7.89l2.271-2.202l-3.125,0.496c-4.403,0.699-8.587,2.51-12.147,5.228C52.869,30.538,49.977,30,47,30  c-6.4,0-11.861,4.764-12.835,11H30.5c-1.93,0-3.5,1.57-3.5,3.5c0,0.938,0.363,1.817,1.023,2.477S29.562,48,30.5,48H43  c0.834,0,1.645,0.051,2.456,0.125C45.158,49.741,45,51.375,45,53c0,1.67,0.164,3.392,0.487,5.115l0.569,3.032l1.318-2.79  c1.469-3.109,3.61-5.924,6.201-8.189c0.779,0.33,1.57,0.699,2.364,1.128c5.375,2.948,9.602,7.665,11.963,13.3  c-0.936,2.05-2.062,3.883-4.643,6.731l-1.265,1.395l10.115,1.445l-0.113-1.258C71.752,70.212,71.037,67.392,70.073,64.858z M44.5,35  c0.83,0,1.5,0.67,1.5,1.5S45.33,38,44.5,38S43,37.33,43,36.5S43.67,35,44.5,35z M56.896,49.54c-1.056-0.571-2.112-1.065-3.131-1.467  c-2.243-0.905-4.594-1.519-6.982-1.824C45.527,46.082,44.29,46,43,46H30.5c-0.404,0-0.781-0.155-1.063-0.437S29,44.904,29,44.5  c0-0.827,0.673-1.5,1.5-1.5H43c5.318,0,10.462,1.547,14.879,4.475c5.003,3.305,8.758,8.177,10.675,13.816  C65.9,56.361,61.848,52.256,56.896,49.54z"/><text x="0" y="115" fill="#000000" font-size="5px" font-weight="bold" font-family="'Helvetica Neue', Helvetica, Arial-Unicode, Arial, Sans-serif">Created by André Luiz Gollo</text><text x="0" y="120" fill="#000000" font-size="5px" font-weight="bold" font-family="'Helvetica Neue', Helvetica, Arial-Unicode, Arial, Sans-serif">from the Noun Project</text></svg>