<svg xmlns="http://www.w3.org/2000/svg" viewBox="0 0 26 85" x="0px" y="0px"><path fill="#000000" fill-rule="evenodd" d="M577,484 C578.104569,484 579,483.104569 579,482 L579,464 L581,464 C582.104569,464 583,463.104569 583,462 L583,445.997062 C583,441.581572 579.419109,438 575.002938,438 L564.997062,438 C560.581572,438 557,441.580891 557,445.997062 L557,462 C557,463.104569 557.895431,464 559,464 L561,464 L561,482 C561,483.104569 561.895431,484 563,484 L565.995118,484 C567.102384,484 568,483.109596 568,481.999117 L568,466.993398 C568,466.444946 568.45191,466 569.009369,466 L570.990631,466 C571.556647,466 572,466.444759 572,466.993398 L572,481.999117 C572,483.104174 572.8939,484 574.004882,484 L577,484 Z M570,434 C565.029437,434 561,429.970563 561,425 C561,420.029437 565.029437,416 570,416 C574.970563,416 579,420.029437 579,425 C579,429.970563 574.970563,434 570,434 Z" transform="translate(-557 -416)"/><text x="0" y="83" fill="#000000" font-size="5px" font-weight="bold" font-family="'Helvetica Neue', Helvetica, Arial-Unicode, Arial, Sans-serif">Created by Andrejs Kirma</text><text x="0" y="88" fill="#000000" font-size="5px" font-weight="bold" font-family="'Helvetica Neue', Helvetica, Arial-Unicode, Arial, Sans-serif">from the Noun Project</text></svg>