<svg xmlns="http://www.w3.org/2000/svg" xmlns:xlink="http://www.w3.org/1999/xlink" version="1.1" x="0px" y="0px" viewBox="-2.5 -2.5 110 137.5" enable-background="new -2.5 -2.5 110 110" xml:space="preserve"><path fill-rule="evenodd" clip-rule="evenodd" d="M97,47C97,22.4,77,2.5,52.5,2.5C28,2.5,8,22.4,8,47c0,22.9,17.4,41.8,39.7,44.2  l-3.6,7.2c0,2.3,1.9,4.2,4.2,4.2h8.3c2.3,0,4.2-1.9,4.2-4.2l-3.6-7.2C79.5,88.8,97,69.9,97,47z M34.7,21.9  c-9.5,6.3-14.5,17.3-13.1,28.7c0.2,1.8-1,3.4-2.8,3.6c-0.1,0-0.3,0-0.4,0c-1.6,0-3-1.2-3.2-2.8c-1.7-13.8,4.4-27.1,15.9-34.9  c1.5-1,3.5-0.6,4.5,0.9C36.6,18.9,36.2,20.9,34.7,21.9z"/><text x="-2.5" y="122.5" fill="#000000" font-size="5px" font-weight="bold" font-family="'Helvetica Neue', Helvetica, Arial-Unicode, Arial, Sans-serif">Created by Mihail Zhukov</text><text x="-2.5" y="127.5" fill="#000000" font-size="5px" font-weight="bold" font-family="'Helvetica Neue', Helvetica, Arial-Unicode, Arial, Sans-serif">from the Noun Project</text></svg>