<svg xmlns="http://www.w3.org/2000/svg" xmlns:xlink="http://www.w3.org/1999/xlink" version="1.1" x="0px" y="0px" viewBox="0 0 100 125" style="enable-background:new 0 0 100 100;" xml:space="preserve"><style type="text/css">
	.st0{stroke:#FFFFFF;stroke-miterlimit:10;}
	.st1{fill:#FFFFFF;stroke:#000000;stroke-miterlimit:10;}
	.st2{fill:none;stroke:#000000;stroke-width:0.25;stroke-linecap:round;stroke-linejoin:round;stroke-miterlimit:10;}
	.st3{fill:none;stroke:#FFFFFF;stroke-width:0.25;stroke-miterlimit:10;}
	.st4{fill:none;stroke:#000000;stroke-width:0.25;stroke-miterlimit:10;}
	.st5{fill:none;stroke:#000000;stroke-width:0.25;stroke-linecap:round;stroke-miterlimit:10;}
	.st6{fill:none;stroke:#000000;stroke-linecap:round;stroke-miterlimit:10;}
	.st7{fill:none;stroke:#000000;stroke-miterlimit:10;}
	.st8{fill:none;stroke:#FFFFFF;stroke-miterlimit:10;}
	.st9{fill:#FFFFFF;stroke:#000000;stroke-width:0.25;stroke-miterlimit:10;}
	.st10{stroke:#FFFFFF;stroke-width:0.25;stroke-miterlimit:10;}
</style><g><path d="M51.8,59.1c-0.9,1.6-2.2,4.3-2.5,7.5c-0.2,2.4,0.2,3.1-0.4,4.6c-1.3,3.4-5.9,6.1-8.2,4.7c-2-1.2-1.9-5.3-1.1-7.9   C41.8,61.4,50.9,59.3,51.8,59.1z"/><path d="M51.8,59.4c1.4,1.2,3.3,3.1,4.7,6c1.1,2.1,0.9,3,2,4.2c2.4,2.7,7.6,3.5,9.3,1.5c1.5-1.8-0.1-5.6-1.8-7.8   C61.6,57.8,52.8,59.2,51.8,59.4z"/><path d="M51.2,57.8c-4.1,4.3-22.5,9.8-22.5,9.8c-7.9,1.1-10.8-5.2-10.8-5.2c2.7-10.3,12.2-8.5,12.2-8.5s4.1,0,11.3,2   C48.6,57.8,51.2,57.8,51.2,57.8s5.1-3.3,10.8-7c0,0,10-6.7,18.9-2l1.5,0.9c0,0-2.7,8.5-10.6,8.8s-8.4,0.8-10.7,0.1"/><path d="M50.9,57.5c-1.4,0.1-18.6-5.4-18.6-5.4S15.1,48,19,33.9l0.2-1.2h1.1c0,0,8-2.8,15.6,3.8c0,0,6.8,6.2,8.9,11.9   C46.9,54,50.9,57.5,50.9,57.5z"/><path d="M51.2,57.8L56,38.6c0,0,2.2-11.8,8.8-13.7c0,0,4.8-1.6,6.3-0.9s2.1,3,2.1,3s0.6,10.6-2.8,13.7S51.2,57.8,51.2,57.8z"/><path d="M51.1,57.8l-7.2-13c0,0-12-16.5-2.9-23.8l4.8-4c0,0,2.7,0.4,6.4,3.8s4.8,9.3,3.6,15.8S51.1,57.8,51.1,57.8z"/><path d="M51.1,57.8c0,0,4.7,17.3,2.5,20.5h1.6C55.2,78.2,55.2,62.9,51.1,57.8z"/></g><text x="0" y="115" fill="#000000" font-size="5px" font-weight="bold" font-family="'Helvetica Neue', Helvetica, Arial-Unicode, Arial, Sans-serif">Created by Anne</text><text x="0" y="120" fill="#000000" font-size="5px" font-weight="bold" font-family="'Helvetica Neue', Helvetica, Arial-Unicode, Arial, Sans-serif">from the Noun Project</text></svg>